<svg width="264" height="163" viewBox="0 0 264 163" fill="none" xmlns="http://www.w3.org/2000/svg">
<path d="M161.068 163H-279.213C-279.841 163 -280.464 162.877 -281.044 162.637C-281.625 162.397 -282.153 162.046 -282.598 161.602C-283.042 161.159 -283.395 160.632 -283.636 160.052C-283.876 159.473 -284 158.852 -284 158.224C-284 156.957 -283.496 155.742 -282.598 154.846C-281.7 153.95 -280.482 153.447 -279.213 153.447H161.068C162.338 153.447 163.556 153.95 164.454 154.846C165.352 155.742 165.856 156.957 165.856 158.224C165.856 158.852 165.732 159.473 165.491 160.052C165.251 160.632 164.898 161.159 164.454 161.602C164.009 162.046 163.481 162.397 162.9 162.637C162.32 162.877 161.697 163 161.068 163Z" fill="#95A6DB"/>
<path d="M50.8472 80.1075C47.326 72.5315 56.1811 62.9812 51.9582 55.7683C49.3335 51.2914 42.4372 49.6608 41.6706 44.5291C41.44 42.9989 41.8493 41.4591 42.0669 39.929C42.4902 36.9317 42.1682 33.8765 41.1294 31.0326C40.0906 28.1888 38.3669 25.6436 36.11 23.6213C33.8532 21.599 31.1326 20.1617 28.188 19.4361C25.2433 18.7105 22.165 18.7189 19.2244 19.4604H19.2017H19.1789C13.5365 21.574 8.78413 26.7025 7.40358 32.5539C6.73151 35.5042 6.78278 38.5727 7.55301 41.499C8.32324 44.4252 9.7897 47.1228 11.8279 49.3625C12.8803 50.4972 14.1017 51.528 14.7806 52.9285C17.0837 57.5804 12.3508 62.8451 12.7569 68.0157C13.4066 76.3438 26.1402 79.148 27.5759 87.3756C27.956 89.5476 27.446 91.765 27.4038 93.9661C27.2121 103.584 37.6784 111.838 47.0077 109.426L47.4884 109.277C56.5287 105.948 60.4105 93.2076 54.755 85.4176C53.4622 83.6346 51.7763 82.1012 50.8472 80.1075Z" fill="#97AAE8"/>
<path d="M19.7832 19.9435L56.4085 132.375C56.4896 132.592 56.5258 132.823 56.5151 133.055C56.5043 133.286 56.4467 133.513 56.3458 133.722C56.2449 133.93 56.1028 134.116 55.928 134.269C55.7531 134.421 55.5492 134.537 55.3285 134.609C55.1077 134.68 54.8747 134.707 54.6435 134.686C54.4122 134.666 54.1875 134.599 53.9828 134.49C53.7782 134.38 53.5978 134.231 53.4525 134.05C53.3072 133.869 53.2 133.661 53.1374 133.438V133.403L18.9549 20.2029C18.9299 20.0961 18.9463 19.9839 19.0007 19.8887C19.0552 19.7935 19.1437 19.7224 19.2485 19.6896C19.3533 19.6568 19.4666 19.6647 19.5658 19.7118C19.665 19.7589 19.7426 19.8417 19.7832 19.9435Z" fill="#859CE8"/>
<path d="M22.9019 72.2106C23.3339 72.162 23.766 72.123 24.2012 72.1003C24.6365 72.0777 25.0783 72.0744 25.5168 72.1003C26.4025 72.1296 27.2829 72.248 28.1447 72.4537C29.0145 72.6636 29.8603 72.9624 30.6687 73.3452C31.4782 73.7337 32.253 74.1903 32.9848 74.71C34.4325 75.7619 35.7488 76.983 36.9056 78.3473C38.0537 79.7016 39.1065 81.1335 40.0565 82.6329C40.2236 82.8938 40.28 83.2104 40.2133 83.5128C40.1466 83.8153 39.9622 84.0789 39.7008 84.2457C39.4393 84.4125 39.1221 84.4688 38.8191 84.4022C38.516 84.3356 38.2519 84.1517 38.0847 83.8907L38.0295 83.7902C37.2813 82.2902 36.4293 80.8441 35.4795 79.4624C34.5391 78.0827 33.4354 76.8211 32.1922 75.7052C31.5692 75.1587 30.8996 74.6673 30.1912 74.2367C29.4721 73.8049 28.7101 73.4485 27.9174 73.1734C27.122 72.8957 26.3002 72.7001 25.4648 72.5899C25.0458 72.5347 24.6203 72.4959 24.1947 72.4764C23.7692 72.457 23.3372 72.4505 22.8954 72.457C22.8626 72.4591 22.8304 72.4482 22.8057 72.4266C22.7811 72.405 22.766 72.3745 22.7638 72.3419C22.7617 72.3092 22.7726 72.277 22.7942 72.2524C22.8159 72.2278 22.8464 72.2127 22.8791 72.2106H22.9019Z" fill="#859CE8"/>
<path d="M43.0677 54.9546C42.7104 55.1881 42.3595 55.4312 42.0185 55.684C41.6774 55.9369 41.3688 56.2157 41.044 56.4977C40.4234 57.0651 39.8648 57.6964 39.3776 58.3812C38.4254 59.7529 37.7441 61.2933 37.3701 62.9197C36.992 64.5504 36.8013 66.2188 36.8016 67.8926C36.798 69.5739 36.9065 71.2536 37.1265 72.9206C37.1549 73.1467 37.0921 73.3748 36.952 73.5548C36.8119 73.7347 36.6059 73.8518 36.3793 73.8801C36.1528 73.9085 35.9242 73.8459 35.7438 73.7061C35.5635 73.5662 35.4462 73.3607 35.4178 73.1345C35.4162 73.114 35.4162 73.0934 35.4178 73.0729C35.3171 71.3245 35.3302 69.5713 35.4568 67.8245C35.5844 66.0644 35.9113 64.3243 36.4313 62.6377C36.9502 60.9451 37.7869 59.3664 38.8968 57.9857C39.4566 57.3092 40.0858 56.6932 40.7743 56.1476C41.1187 55.8786 41.4695 55.6257 41.8333 55.389C42.1971 55.1524 42.5707 54.9287 42.9507 54.7212C42.9646 54.7132 42.9799 54.708 42.9957 54.7059C43.0116 54.7038 43.0277 54.7049 43.0431 54.7092C43.0586 54.7134 43.073 54.7207 43.0856 54.7305C43.0982 54.7404 43.1086 54.7527 43.1164 54.7666C43.1272 54.7817 43.1346 54.7989 43.138 54.8171C43.1414 54.8353 43.1408 54.8541 43.1362 54.872C43.1315 54.89 43.123 54.9067 43.1111 54.9209C43.0993 54.9352 43.0845 54.9467 43.0677 54.9546Z" fill="#859CE8"/>
<path d="M68.9278 80.0623C71.8513 74.0812 64.9356 66.3431 68.4081 60.6667C70.5617 57.1397 76.0774 55.9402 76.7661 51.8685C76.9707 50.6528 76.6687 49.421 76.5192 48.1988C76.2262 45.8058 76.5276 43.3776 77.3968 41.1283C78.2661 38.8789 79.6765 36.8776 81.5038 35.3006C83.3311 33.7237 85.519 32.6197 87.8748 32.0859C90.2305 31.552 92.6817 31.6048 95.0122 32.2396H95.0284C99.4917 34.0096 103.188 38.1623 104.212 42.8434C104.704 45.2024 104.618 47.6454 103.961 49.9641C103.304 52.2829 102.095 54.4087 100.437 56.1606C99.5826 57.0489 98.5984 57.8528 98.0332 58.9453C96.1296 62.6182 99.8198 66.8812 99.4202 70.9918C98.7705 77.6147 88.5967 79.657 87.3298 86.1892C87.005 87.9106 87.3688 89.6838 87.372 91.4409C87.372 99.1012 78.9263 105.517 71.5265 103.461L71.1497 103.335C64.0033 100.547 61.0992 90.3452 65.7152 84.2279C66.7936 82.834 68.1579 81.641 68.9278 80.0623Z" fill="#97AAE8"/>
<path d="M94.5609 32.6156L63.7209 121.602C63.6024 121.946 63.6257 122.323 63.7856 122.65C63.9455 122.977 64.229 123.227 64.5736 123.345C64.9182 123.463 65.2957 123.44 65.6232 123.28C65.9506 123.121 66.2011 122.838 66.3196 122.494V122.468L95.23 32.8328C95.2438 32.7515 95.2281 32.6681 95.1858 32.5974C95.1435 32.5266 95.0773 32.4732 94.9992 32.4467C94.921 32.4202 94.836 32.4223 94.7592 32.4526C94.6825 32.483 94.6191 32.5396 94.5804 32.6123L94.5609 32.6156Z" fill="#859CE8"/>
<path d="M91.3121 74.1913C90.9678 74.1459 90.6235 74.1102 90.2759 74.0843C89.9283 74.0584 89.5808 74.0519 89.2299 74.0519C88.5251 74.062 87.8231 74.1434 87.1347 74.295C86.4384 74.4487 85.7601 74.6747 85.111 74.9693C84.4596 75.2638 83.8356 75.6152 83.2464 76.0196C82.0757 76.8338 81.0088 77.7874 80.0695 78.8595C79.1335 79.9191 78.2738 81.0436 77.4968 82.2244C77.3742 82.4294 77.3353 82.6736 77.3881 82.9064C77.4408 83.1392 77.5812 83.3429 77.7803 83.4753C77.9793 83.6077 78.2217 83.6587 78.4573 83.6178C78.693 83.5768 78.9038 83.447 79.0463 83.2553L79.095 83.1742C79.714 81.9917 80.414 80.8533 81.1902 79.7671C81.9619 78.691 82.8606 77.7114 83.8669 76.8495C84.3735 76.4221 84.917 76.0402 85.4911 75.7084C86.0651 75.3755 86.6726 75.1039 87.3036 74.898C87.9373 74.6899 88.5902 74.5454 89.2527 74.4668C89.5775 74.4312 89.9283 74.4052 90.2694 74.3955C90.6105 74.3858 90.9483 74.3955 91.2926 74.3955C91.3054 74.3959 91.3182 74.3938 91.3302 74.3894C91.3422 74.3849 91.3532 74.3781 91.3625 74.3693C91.3719 74.3606 91.3794 74.3501 91.3847 74.3385C91.39 74.3268 91.3929 74.3143 91.3933 74.3015C91.3963 74.2763 91.3895 74.2509 91.3744 74.2305C91.3594 74.21 91.3371 74.196 91.3121 74.1913Z" fill="#859CE8"/>
<path d="M100.687 46.124C100.343 46.0819 99.9983 46.0494 99.6507 46.03C99.3032 46.0105 98.9556 46.0041 98.608 46.0105C97.9048 46.0286 97.2051 46.1166 96.5194 46.2731C95.8302 46.435 95.1596 46.6675 94.5184 46.9669C93.8757 47.2672 93.2605 47.623 92.6798 48.0302C91.529 48.8534 90.481 49.8111 89.5581 50.8829C88.6413 51.9479 87.8001 53.0756 87.0407 54.2576C86.9851 54.3382 86.9463 54.4291 86.9265 54.525C86.9067 54.6208 86.9063 54.7197 86.9255 54.8156C86.9446 54.9116 86.9828 55.0028 87.0378 55.0838C87.0928 55.1648 87.1636 55.234 87.2458 55.2873C87.3281 55.3406 87.4202 55.3769 87.5167 55.3941C87.6133 55.4112 87.7123 55.4089 87.8079 55.3873C87.9036 55.3656 87.9939 55.3251 88.0735 55.268C88.1532 55.2109 88.2206 55.1385 88.2718 55.055L88.301 55.0064C88.937 53.825 89.6556 52.6897 90.4514 51.6091C91.2409 50.5312 92.157 49.5517 93.18 48.6915C93.6945 48.2691 94.2444 47.8916 94.8237 47.5633C95.4056 47.2368 96.0195 46.9707 96.6558 46.7691C97.2989 46.5686 97.9606 46.4329 98.6308 46.3639C98.9556 46.3315 99.3064 46.3088 99.6443 46.3023C99.9821 46.2958 100.326 46.3023 100.667 46.3023C100.68 46.3032 100.693 46.3015 100.705 46.2974C100.717 46.2934 100.729 46.2869 100.738 46.2785C100.748 46.27 100.756 46.2598 100.762 46.2483C100.767 46.2368 100.771 46.2243 100.771 46.2115C100.769 46.1897 100.759 46.1694 100.744 46.1536C100.729 46.1378 100.709 46.1274 100.687 46.124Z" fill="#859CE8"/>
<path d="M75.4995 60.1511C75.7788 60.3392 76.0549 60.5402 76.3213 60.7476C76.5877 60.9551 76.8411 61.1788 77.0879 61.396C77.5736 61.858 78.0091 62.3698 78.3873 62.9228C79.125 64.0315 79.6443 65.2704 79.9173 66.5731C80.1941 67.877 80.3206 69.2083 80.2941 70.541C80.2733 71.8801 80.1648 73.2164 79.9693 74.5413C79.9434 74.721 79.9902 74.9036 80.0992 75.0489C80.2082 75.1942 80.3706 75.2903 80.5507 75.3161C80.7308 75.3419 80.9137 75.2953 81.0593 75.1864C81.2049 75.0776 81.3012 74.9155 81.3271 74.7358C81.3271 74.7196 81.3271 74.7002 81.3271 74.6872C81.4348 73.2969 81.45 71.9009 81.3726 70.5086C81.3001 69.1067 81.0669 67.7177 80.6774 66.3688C80.2904 65.0139 79.6476 63.7453 78.7836 62.6311C78.35 62.0823 77.8588 61.5813 77.3186 61.1366C77.0457 60.9194 76.7696 60.7087 76.4837 60.5142C76.1979 60.3197 75.9023 60.1414 75.6067 59.9663C75.5956 59.96 75.5833 59.9558 75.5706 59.9541C75.5579 59.9525 75.545 59.9533 75.5327 59.9566C75.5203 59.9599 75.5087 59.9656 75.4985 59.9734C75.4884 59.9812 75.4799 59.9909 75.4735 60.002C75.4644 60.0131 75.4579 60.0261 75.4543 60.04C75.4507 60.0538 75.4501 60.0683 75.4525 60.0825C75.455 60.0966 75.4605 60.11 75.4686 60.1219C75.4767 60.1337 75.4872 60.1437 75.4995 60.1511Z" fill="#859CE8"/>
<path d="M72.5822 67.3026C71.4973 59.036 82.8016 52.5525 80.9175 44.4091C79.7546 39.352 73.6639 35.7406 74.4663 30.6121C74.7066 29.0852 75.5577 27.7367 76.2236 26.3427C77.5261 23.6088 78.1346 20.5971 77.9952 17.5731C77.8559 14.5492 76.9731 11.6059 75.4247 9.00282C73.8762 6.39979 71.7098 4.21701 69.1163 2.64696C66.5229 1.07692 63.5822 0.167876 60.5535 0H60.508C54.4856 0.324178 48.4306 3.81232 45.3479 8.98296C43.8215 11.5973 42.9505 14.541 42.8091 17.5635C42.6677 20.586 43.2601 23.5978 44.5358 26.3427C45.1855 27.7367 46.0528 29.0852 46.2932 30.6121C47.0955 35.7406 41.0016 39.3649 39.8387 44.4091C37.9774 52.5525 49.2882 59.036 48.1968 67.3026C47.9077 69.4875 46.7577 71.452 46.0561 73.5397C42.9961 82.6621 50.5128 93.6615 60.1377 94.1413H60.638C70.2661 93.6615 77.7828 82.6621 74.7196 73.5397C74.018 71.452 72.8713 69.4875 72.5822 67.3026Z" fill="#AEBCE8"/>
<path d="M60.9498 0.628907L62.2491 118.847C62.2613 119.078 62.2265 119.31 62.1467 119.527C62.0669 119.745 61.9439 119.944 61.7849 120.113C61.626 120.282 61.4345 120.417 61.2218 120.51C61.0092 120.603 60.7799 120.653 60.5477 120.655C60.3155 120.658 60.0853 120.613 59.8708 120.524C59.6562 120.436 59.4619 120.305 59.2995 120.139C59.1371 119.973 59.0099 119.777 58.9256 119.561C58.8414 119.345 58.8017 119.114 58.8091 118.882V118.847L60.1084 0.628907C60.1178 0.520593 60.1676 0.419724 60.2479 0.34624C60.3282 0.272756 60.4332 0.231995 60.5421 0.231995C60.651 0.231995 60.756 0.272756 60.8363 0.34624C60.9166 0.419724 60.9663 0.520593 60.9757 0.628907H60.9498Z" fill="#97AAE8"/>
<path d="M48.2746 51.4373C48.7034 51.5183 49.1257 51.6123 49.5512 51.7193C49.9768 51.8263 50.3926 51.9559 50.8083 52.0986C52.4967 52.6825 54.0453 53.6097 55.3561 54.8217C56.012 55.4324 56.6141 56.0984 57.1556 56.8121C58.2222 58.2475 59.1111 59.8062 59.8031 61.4544C60.4938 63.0893 61.0691 64.7705 61.5247 66.4856C61.575 66.6406 61.5923 66.8043 61.5754 66.9664C61.5585 67.1284 61.5077 67.2851 61.4265 67.4264C61.3452 67.5677 61.2352 67.6905 61.1035 67.7868C60.9719 67.8831 60.8215 67.9508 60.662 67.9856C60.5025 68.0204 60.3375 68.0214 60.1776 67.9887C60.0176 67.956 59.8663 67.8903 59.7334 67.7957C59.6005 67.7011 59.4889 67.5798 59.4058 67.4396C59.3227 67.2994 59.2699 67.1434 59.2508 66.9816C58.9863 65.3273 58.6053 63.6938 58.1107 62.093C57.6239 60.5046 56.9466 58.9807 56.0934 57.5545C55.662 56.8464 55.1696 56.1772 54.6219 55.5543C54.0701 54.9307 53.4551 54.3658 52.7866 53.8686C52.1108 53.3634 51.3848 52.9289 50.6199 52.5719C50.2366 52.3968 49.8436 52.2477 49.4408 52.0856C49.038 51.9235 48.6319 51.8036 48.2226 51.6836C48.192 51.6752 48.1658 51.6553 48.1495 51.628C48.1332 51.6007 48.1281 51.5682 48.1352 51.5373C48.1423 51.5064 48.1612 51.4794 48.1877 51.4619C48.2143 51.4445 48.2466 51.438 48.2779 51.4437L48.2746 51.4373Z" fill="#97AAE8"/>
<path d="M48.2746 14.2995C48.7002 14.387 49.1257 14.4843 49.5447 14.5945C49.9638 14.7047 50.3828 14.8409 50.7986 14.9868C51.628 15.2868 52.4247 15.6703 53.1764 16.1311C53.9344 16.5972 54.642 17.1404 55.2878 17.752C55.9325 18.3644 56.5227 19.0314 57.0517 19.7457C58.1018 21.1821 58.9743 22.7397 59.6504 24.3847C60.318 26.0159 60.8705 27.6917 61.3038 29.3998C61.3412 29.5188 61.354 29.6441 61.3414 29.7682C61.3287 29.8922 61.291 30.0124 61.2304 30.1215C61.1699 30.2306 61.0877 30.3262 60.989 30.4026C60.8903 30.4791 60.777 30.5347 60.6561 30.5661C60.5352 30.5976 60.4091 30.6042 60.2856 30.5855C60.162 30.5669 60.0435 30.5233 59.9373 30.4576C59.8312 30.3919 59.7394 30.3054 59.6678 30.2032C59.5961 30.101 59.546 29.9854 59.5205 29.8633C59.5205 29.8407 59.5205 29.818 59.5042 29.7953C59.2162 28.1367 58.8135 26.5 58.2991 24.8969C57.7859 23.3061 57.0836 21.7824 56.2071 20.3584C55.7632 19.6517 55.2589 18.9847 54.6999 18.3647C54.1393 17.743 53.5143 17.1823 52.8353 16.6919C52.1506 16.1962 51.417 15.7715 50.6459 15.4244C50.2561 15.2526 49.8631 15.1002 49.4603 14.9511C49.0575 14.802 48.6482 14.682 48.2356 14.5621C48.2199 14.5583 48.2051 14.5514 48.1921 14.5418C48.1791 14.5322 48.1682 14.5201 48.16 14.5061C48.1518 14.4922 48.1465 14.4768 48.1444 14.4608C48.1423 14.4448 48.1435 14.4285 48.1479 14.413C48.1512 14.3817 48.1659 14.3528 48.1893 14.3318C48.2127 14.3109 48.2432 14.2993 48.2746 14.2995Z" fill="#97AAE8"/>
<path d="M72.6861 40.9825C72.2768 41.096 71.8675 41.2257 71.468 41.3683C71.0684 41.511 70.6786 41.6925 70.2921 41.8513C69.5299 42.2057 68.8079 42.6404 68.1384 43.1481C66.8169 44.1738 65.7043 45.4426 64.8608 46.8859C64.013 48.3302 63.3319 49.8658 62.8306 51.4633C62.3251 53.0673 61.9247 54.7025 61.6319 56.3584C61.6167 56.4736 61.5782 56.5845 61.5187 56.6845C61.4592 56.7844 61.3801 56.8713 61.286 56.9398C61.1919 57.0083 61.0849 57.057 60.9714 57.0831C60.8579 57.1091 60.7403 57.1119 60.6257 57.0913C60.5111 57.0706 60.4019 57.027 60.3047 56.963C60.2074 56.899 60.1242 56.816 60.0601 56.719C59.9959 56.622 59.9522 56.513 59.9315 56.3987C59.9107 56.2843 59.9135 56.1669 59.9395 56.0537C59.938 56.0332 59.938 56.0126 59.9395 55.9921C60.3673 54.2941 60.9044 52.6254 61.5475 50.9965C62.1954 49.3616 63.0268 47.8054 64.026 46.3575C65.0261 44.8951 66.2974 43.6374 67.7714 42.6521C68.5071 42.1712 69.2923 41.7702 70.1134 41.4559C70.5195 41.3035 70.9353 41.1641 71.3511 41.0474C71.7668 40.9307 72.1924 40.8302 72.6147 40.7427C72.6307 40.7394 72.6472 40.7393 72.6632 40.7424C72.6793 40.7455 72.6945 40.7518 72.7081 40.7608C72.7217 40.7698 72.7334 40.7815 72.7424 40.7951C72.7515 40.8087 72.7577 40.8239 72.7609 40.8399C72.7669 40.8686 72.7628 40.8986 72.7492 40.9246C72.7355 40.9507 72.7132 40.9711 72.6861 40.9825Z" fill="#97AAE8"/>
<path d="M71.7181 113.822H43.5612C43.0345 113.832 42.5157 113.952 42.0385 114.175C41.5614 114.397 41.1366 114.718 40.7919 115.116C40.4472 115.513 40.1902 115.979 40.0377 116.482C39.8852 116.985 39.8406 117.515 39.9068 118.036L43.7042 150.5C43.7966 151.406 44.2198 152.246 44.8932 152.86C45.5665 153.475 46.4429 153.821 47.3553 153.832H67.924C68.8366 153.82 69.713 153.474 70.3867 152.86C71.0604 152.245 71.4845 151.406 71.5784 150.5L75.3725 118.036C75.4392 117.515 75.395 116.985 75.2427 116.481C75.0904 115.978 74.8335 115.512 74.4887 115.115C74.1438 114.717 73.7188 114.396 73.2415 114.173C72.7641 113.951 72.245 113.831 71.7181 113.822Z" fill="#494C7F"/>
<path d="M54.2282 108.952H50.7335C50.5962 108.96 50.4588 108.939 50.3297 108.892C50.2006 108.845 50.0826 108.771 49.9827 108.677C49.8829 108.583 49.8034 108.469 49.749 108.343C49.6947 108.217 49.6666 108.081 49.6666 107.944C49.6666 107.807 49.6947 107.671 49.749 107.545C49.8034 107.419 49.8829 107.305 49.9827 107.211C50.0826 107.116 50.2006 107.043 50.3297 106.996C50.4588 106.949 50.5962 106.928 50.7335 106.936H53.2194V100.386H50.7335C50.466 100.386 50.2094 100.28 50.0202 100.091C49.831 99.9023 49.7247 99.6463 49.7247 99.3793C49.7247 99.1123 49.831 98.8562 50.0202 98.6674C50.2094 98.4786 50.466 98.3726 50.7335 98.3726H54.2282C54.4957 98.3726 54.7523 98.4786 54.9415 98.6674C55.1307 98.8562 55.237 99.1123 55.237 99.3793V107.945C55.2362 108.212 55.1296 108.468 54.9406 108.656C54.7516 108.845 54.4955 108.951 54.2282 108.952Z" fill="#FF6C00"/>
<path d="M40.4564 94.4055H47.8872C48.2606 94.4055 48.6303 94.4789 48.9752 94.6215C49.3202 94.7641 49.6336 94.9731 49.8976 95.2366C50.1616 95.5001 50.3711 95.8129 50.514 96.1571C50.6568 96.5014 50.7304 96.8703 50.7304 97.2429V110.076C50.7304 110.448 50.6568 110.817 50.514 111.162C50.3711 111.506 50.1616 111.819 49.8976 112.082C49.6336 112.346 49.3202 112.555 48.9752 112.697C48.6303 112.84 48.2606 112.913 47.8872 112.913H40.4564C40.0827 112.913 39.7126 112.84 39.3672 112.697C39.0219 112.554 38.7082 112.345 38.4439 112.081C38.1796 111.818 37.9699 111.504 37.8269 111.16C37.6838 110.815 37.6102 110.446 37.6102 110.073V97.2399C37.6106 96.8673 37.6846 96.4984 37.8278 96.1543C37.9711 95.8102 38.1808 95.4977 38.4451 95.2345C38.7094 94.9713 39.0231 94.7626 39.3682 94.6204C39.7133 94.4781 40.0831 94.4051 40.4564 94.4055Z" fill="#FF6C00"/>
<path d="M42.8915 92.6439C42.8915 92.6439 38.6493 90.9271 39.9613 87.82C41.2733 84.7129 46.0469 85.1234 43.3329 80.629C46.6054 82.4268 47.0977 86.4387 44.5548 87.4215C42.0118 88.4042 41.8827 90.8821 42.8915 92.6439Z" fill="white"/>
<path d="M46.8905 92.6437C46.8905 92.6437 43.8881 91.4212 44.8069 89.213C45.7256 87.0048 49.1332 87.2955 47.2087 84.0925C49.5355 85.3749 49.8868 88.2243 48.0794 88.9224C46.272 89.6205 46.1579 91.3883 46.8905 92.6437Z" fill="white"/>
<path d="M55.8974 118.864H-12.105C-12.5064 118.864 -12.9038 118.785 -13.2746 118.632C-13.6454 118.478 -13.9824 118.254 -14.2662 117.97C-14.55 117.687 -14.7751 117.351 -14.9287 116.981C-15.0823 116.611 -15.1614 116.214 -15.1614 115.814C-15.1614 115.005 -14.8394 114.229 -14.2662 113.657C-13.693 113.085 -12.9156 112.763 -12.105 112.763H55.8974C56.708 112.763 57.4854 113.085 58.0586 113.657C58.6318 114.229 58.9538 115.005 58.9538 115.814C58.9538 116.214 58.8747 116.611 58.7211 116.981C58.5675 117.351 58.3424 117.687 58.0586 117.97C57.7748 118.254 57.4379 118.478 57.0671 118.632C56.6962 118.785 56.2988 118.864 55.8974 118.864Z" fill="#95ADF5"/>
<path d="M51.7693 117.788H47.8302V162.998H51.7693V117.788Z" fill="#95ADF5"/>
<path d="M30.75 108.137V111.301H31.6146C31.7142 111.301 31.813 111.32 31.9051 111.358C31.9972 111.396 32.081 111.451 32.1516 111.521C32.2221 111.591 32.2781 111.675 32.3163 111.767C32.3546 111.858 32.3742 111.957 32.3742 112.056V112.185C32.3742 112.285 32.3546 112.383 32.3163 112.475C32.2781 112.567 32.2221 112.65 32.1516 112.72C32.081 112.79 31.9972 112.846 31.9051 112.884C31.813 112.921 31.7142 112.941 31.6146 112.94H-5.17274C-5.40684 112.94 -5.63135 112.847 -5.79689 112.682C-5.96242 112.517 -6.05542 112.293 -6.05542 112.059V107.502C-6.05542 107.268 -5.96242 107.044 -5.79689 106.879C-5.63135 106.714 -5.40684 106.621 -5.17274 106.621H31.6146C31.8161 106.621 32.0093 106.701 32.1517 106.843C32.2942 106.985 32.3742 107.178 32.3742 107.379C32.3742 107.58 32.2942 107.773 32.1517 107.915C32.0093 108.057 31.8161 108.137 31.6146 108.137H30.75Z" fill="#FF6C00"/>
<path d="M30.8611 111.298H-0.363016C-0.571049 111.299 -0.777116 111.258 -0.969426 111.179C-1.16174 111.1 -1.33652 110.984 -1.48376 110.837C-1.631 110.69 -1.74781 110.516 -1.82751 110.324C-1.90721 110.132 -1.94824 109.927 -1.94824 109.719C-1.94863 109.511 -1.9079 109.305 -1.82838 109.113C-1.74885 108.921 -1.6321 108.747 -1.48482 108.6C-1.33754 108.453 -1.16263 108.336 -0.970123 108.257C-0.777616 108.177 -0.571302 108.137 -0.363016 108.137H30.8611V111.298Z" fill="white"/>
<path d="M-9.31 101.306V104.805H-10.1717C-10.3838 104.816 -10.583 104.911 -10.7254 105.068C-10.8678 105.225 -10.9419 105.433 -10.9312 105.644V105.785C-10.9411 105.996 -10.8667 106.203 -10.7243 106.36C-10.582 106.516 -10.3833 106.61 -10.1717 106.621H26.6157C26.8619 106.608 27.0928 106.498 27.2581 106.316C27.4235 106.133 27.5099 105.893 27.4984 105.647V100.605C27.5099 100.359 27.4235 100.119 27.2581 99.9363C27.0928 99.7539 26.8619 99.6442 26.6157 99.631H-10.1717C-10.3833 99.6418 -10.582 99.7358 -10.7243 99.8925C-10.8667 100.049 -10.9411 100.256 -10.9312 100.467C-10.9419 100.679 -10.8678 100.886 -10.7254 101.043C-10.583 101.201 -10.3838 101.295 -10.1717 101.306H-9.31Z" fill="#92B5F8"/>
<path d="M-9.41797 104.806H21.647C22.112 104.806 22.558 104.621 22.8868 104.293C23.2156 103.965 23.4003 103.52 23.4003 103.056C23.4007 102.826 23.3557 102.598 23.2677 102.386C23.1797 102.173 23.0506 101.98 22.8877 101.818C22.7248 101.655 22.5313 101.526 22.3184 101.438C22.1055 101.351 21.8774 101.306 21.647 101.306H-9.41797V104.806Z" fill="white"/>
<path d="M25.4539 96.392H-5.08869C-5.46232 96.392 -5.83228 96.3185 -6.17743 96.1757C-6.52258 96.0329 -6.83614 95.8236 -7.10019 95.5598C-7.36425 95.296 -7.57361 94.9829 -7.71632 94.6383C-7.85903 94.2937 -7.93228 93.9244 -7.93188 93.5515C-7.93188 92.799 -7.63233 92.0773 -7.09913 91.5452C-6.56593 91.013 -5.84275 90.7141 -5.08869 90.7141H25.4539C26.2079 90.7141 26.9311 91.013 27.4643 91.5452C27.9975 92.0773 28.2971 92.799 28.2971 93.5515C28.2975 93.9244 28.2242 94.2937 28.0815 94.6383C27.9388 94.9829 27.7294 95.296 27.4654 95.5598C27.2013 95.8236 26.8878 96.0329 26.5426 96.1757C26.1975 96.3185 25.8275 96.392 25.4539 96.392Z" fill="#FF6C00"/>
<path d="M29.0387 99.631H-3.94179C-4.37284 99.6303 -4.78597 99.4588 -5.09049 99.1543C-5.39501 98.8499 -5.56604 98.4372 -5.56604 98.007C-5.56604 97.5771 -5.39491 97.1648 -5.09031 96.8608C-4.7857 96.5568 -4.37256 96.386 -3.94179 96.386H29.0387C29.4697 96.386 29.8832 96.5567 30.1882 96.8607C30.4933 97.1646 30.6651 97.5769 30.6659 98.007C30.6659 98.4378 30.4945 98.8508 30.1893 99.1554C29.8841 99.4599 29.4702 99.631 29.0387 99.631Z" fill="#768FDB"/>
<path d="M153.213 131.799C151.277 137.785 147.605 143.063 142.663 146.965C137.721 150.868 131.73 153.221 125.448 153.726C119.165 154.231 112.874 152.865 107.37 149.802C101.866 146.739 97.3949 142.116 94.5234 136.517C91.6519 130.918 90.5086 124.595 91.2379 118.347C91.9673 112.1 94.5366 106.209 98.621 101.419C102.705 96.6285 108.121 93.1547 114.184 91.4364C120.247 89.7181 126.684 89.8326 132.681 91.7653C140.724 94.357 147.405 100.031 151.255 107.539C155.106 115.046 155.81 123.773 153.213 131.799Z" fill="#7C9AF2"/>
<path d="M147.798 130.042C146.624 133.661 144.673 136.98 142.081 139.769C139.489 142.557 136.318 144.747 132.79 146.186C129.262 147.626 125.462 148.279 121.655 148.101C117.847 147.924 114.125 146.919 110.747 145.157C108.592 144.037 106.605 142.619 104.846 140.946C104.191 140.319 103.569 139.659 102.982 138.969C98.7713 134.04 96.5457 127.726 96.7364 121.251C96.9272 114.777 99.5207 108.604 104.014 103.93C108.507 99.2562 114.58 96.4142 121.054 95.9556C127.528 95.497 133.942 97.4545 139.051 101.448C143.262 104.751 146.358 109.263 147.922 114.375C149.486 119.487 149.443 124.955 147.798 130.042Z" fill="#92B5F8"/>
<path d="M139.051 101.461L102.982 138.982C98.6299 133.891 96.3983 127.328 96.7458 120.645L120.434 95.9939C127.111 95.3747 133.772 97.3277 139.051 101.453V101.461Z" fill="#A7C1E9"/>
<path d="M145.553 108.954L110.747 145.162C108.592 144.041 106.605 142.624 104.846 140.951L141.094 103.243C142.839 104.931 144.34 106.853 145.553 108.954Z" fill="#A7C1E9"/>
<path d="M124.645 97.1889C121.552 96.8638 120.989 97.1691 119.6 99.9062C119.945 96.8572 119.639 96.2927 116.877 94.8692C119.959 95.1944 120.533 94.889 121.922 92.152C121.598 95.2383 121.902 95.8028 124.645 97.1889Z" fill="white"/>
<path d="M113.712 146.251C111.104 145.979 110.63 146.236 109.455 148.545C109.746 145.972 109.49 145.496 107.157 144.296C109.768 144.569 110.239 144.312 111.416 142.003C111.13 144.606 111.388 145.083 113.712 146.251Z" fill="white"/>
<path d="M263.315 83.2592L257.752 66.9161C257.752 66.9161 247.779 66.1231 241.372 76.7461C237.41 83.3361 227.284 85.4141 227.284 85.4141L232.875 101.843C232.875 101.843 245.824 100.589 250.238 92.986C254.913 84.9353 263.315 83.2592 263.315 83.2592Z" fill="#D4DEFF"/>
<path d="M239.696 88.7377C241.994 91.422 246.403 91.4286 249.542 88.7531C252.681 86.0776 253.363 81.7238 251.065 79.0439C248.767 76.364 244.356 76.353 241.217 79.0285C238.078 81.704 237.398 86.0512 239.696 88.7377Z" fill="#E3EAFF"/>
<path d="M184.773 92.9815L171.826 86.9232C171.507 87.5997 171.189 88.277 170.87 88.9551C170.408 89.937 172.95 92.0985 176.545 93.7877C180.139 95.4769 183.428 96.0371 183.89 95.0552C183.932 94.9585 184.773 92.9815 184.773 92.9815Z" fill="#C2D0FF"/>
<path d="M184.795 93.1303C184.332 94.1123 181.053 93.5433 177.449 91.8607C173.846 90.178 171.313 88.0165 171.775 87.028C172.237 86.0395 175.517 86.6151 179.12 88.2977C182.723 89.9803 185.255 92.1462 184.795 93.1303Z" fill="#D4DEFF"/>
<path d="M201.437 121.044L188.052 126.068L188.845 128.168C189.228 129.185 192.552 128.877 196.267 127.482C199.983 126.088 202.688 124.133 202.305 123.118C202.269 123.025 201.437 121.044 201.437 121.044Z" fill="#C2D0FF"/>
<path d="M201.554 121.129C201.935 122.144 199.232 124.097 195.517 125.491C191.801 126.886 188.473 127.194 188.092 126.179C187.711 125.164 190.414 123.209 194.13 121.814C197.845 120.419 201.171 120.114 201.554 121.129Z" fill="#D4DEFF"/>
</svg>
