<svg width="435" height="265" viewBox="0 0 435 265" fill="none" xmlns="http://www.w3.org/2000/svg">
<path d="M268.119 265.565H-449.2C-450.224 265.565 -451.238 265.364 -452.185 264.973C-453.131 264.583 -453.991 264.01 -454.715 263.287C-455.44 262.564 -456.014 261.707 -456.406 260.762C-456.798 259.818 -457 258.806 -457 257.784C-457 255.72 -456.178 253.74 -454.715 252.28C-453.253 250.82 -451.269 250 -449.2 250H268.119C270.188 250 272.172 250.82 273.634 252.28C275.097 253.74 275.919 255.72 275.919 257.784C275.919 258.806 275.717 259.818 275.325 260.762C274.933 261.707 274.358 262.564 273.634 263.287C272.91 264.01 272.05 264.583 271.104 264.973C270.157 265.364 269.143 265.565 268.119 265.565Z" fill="#95A6DB"/>
<path d="M88.5435 130.514C82.8066 118.171 97.2335 102.611 90.3534 90.8595C86.0772 83.5656 74.8416 80.909 73.5926 72.5482C73.2168 70.0553 73.8837 67.5465 74.2383 65.0536C74.9279 60.1703 74.4034 55.1927 72.7109 50.5594C71.0185 45.9261 68.2101 41.7794 64.5332 38.4846C60.8563 35.1898 56.4238 32.8482 51.6263 31.666C46.8288 30.4838 41.8136 30.4974 37.0226 31.7056H36.9855H36.9485C27.7557 35.1492 20.013 43.5047 17.7637 53.038C16.6688 57.8446 16.7523 62.844 18.0072 67.6115C19.2621 72.379 21.6513 76.7739 24.9719 80.423C26.6866 82.2716 28.6765 83.9511 29.7826 86.2328C33.5349 93.8119 25.8239 102.389 26.4855 110.813C27.544 124.382 48.2899 128.95 50.6291 142.355C51.2483 145.894 50.4175 149.506 50.3487 153.093C50.0364 168.763 67.0883 182.21 82.2879 178.28L83.0712 178.038C97.7998 172.613 104.124 151.857 94.9102 139.165C92.8038 136.26 90.0571 133.762 88.5435 130.514Z" fill="#97AAE8"/>
<path d="M37.9329 32.4924L97.604 215.669C97.736 216.023 97.7951 216.399 97.7776 216.776C97.76 217.153 97.6662 217.523 97.5018 217.863C97.3374 218.203 97.1059 218.506 96.821 218.755C96.5362 219.003 96.204 219.191 95.8443 219.308C95.4847 219.425 95.1051 219.468 94.7283 219.435C94.3516 219.402 93.9855 219.293 93.652 219.115C93.3185 218.936 93.0246 218.693 92.7879 218.398C92.5512 218.104 92.3766 217.765 92.2746 217.401V217.343L36.5834 32.915C36.5427 32.7411 36.5694 32.5582 36.6581 32.4031C36.7468 32.2481 36.891 32.1322 37.0617 32.0787C37.2324 32.0253 37.4171 32.0382 37.5787 32.1149C37.7402 32.1916 37.8668 32.3265 37.9329 32.4924Z" fill="#859CE8"/>
<path d="M43.0138 117.648C43.7177 117.568 44.4216 117.505 45.1308 117.468C45.8399 117.431 46.5597 117.426 47.2741 117.468C48.7171 117.516 50.1515 117.709 51.5556 118.044C52.9726 118.386 54.3506 118.873 55.6678 119.496C56.9865 120.129 58.2489 120.873 59.4412 121.72C61.7998 123.434 63.9444 125.423 65.829 127.646C67.6996 129.852 69.4148 132.185 70.9626 134.628C71.2349 135.053 71.3268 135.569 71.2181 136.062C71.1095 136.554 70.8091 136.984 70.3831 137.256C69.9571 137.527 69.4404 137.619 68.9466 137.511C68.4528 137.402 68.0225 137.102 67.7502 136.677L67.6602 136.514C66.4412 134.07 65.0531 131.714 63.5057 129.463C61.9736 127.215 60.1753 125.159 58.1499 123.341C57.1348 122.451 56.044 121.65 54.8898 120.949C53.7182 120.245 52.4767 119.665 51.1852 119.216C49.8894 118.764 48.5504 118.445 47.1894 118.266C46.5067 118.176 45.8135 118.112 45.1202 118.081C44.4269 118.049 43.723 118.039 43.0032 118.049C42.9499 118.053 42.8974 118.035 42.8572 118C42.817 117.964 42.7924 117.915 42.7889 117.862C42.7854 117.808 42.8032 117.756 42.8384 117.716C42.8737 117.676 42.9234 117.651 42.9768 117.648H43.0138Z" fill="#859CE8"/>
<path d="M75.8685 89.5338C75.2864 89.9141 74.7148 90.3102 74.1591 90.7222C73.6034 91.1342 73.1007 91.5884 72.5714 92.0479C71.5604 92.9722 70.6504 94.0008 69.8565 95.1165C68.3052 97.3514 67.1952 99.8609 66.5858 102.511C65.9699 105.168 65.6592 107.886 65.6597 110.613C65.6537 113.352 65.8305 116.089 66.1889 118.805C66.2352 119.173 66.133 119.545 65.9047 119.838C65.6764 120.131 65.3408 120.322 64.9717 120.368C64.6025 120.414 64.2301 120.312 63.9363 120.084C63.6425 119.856 63.4515 119.521 63.4052 119.153C63.4026 119.12 63.4026 119.086 63.4052 119.053C63.2411 116.204 63.2624 113.348 63.4687 110.502C63.6765 107.634 64.2092 104.799 65.0564 102.051C65.9018 99.2936 67.265 96.7216 69.0732 94.4722C69.9852 93.37 71.0105 92.3663 72.1322 91.4775C72.6932 91.0391 73.2647 90.6272 73.8575 90.2416C74.4502 89.856 75.0588 89.4916 75.678 89.1536C75.7005 89.1405 75.7255 89.132 75.7513 89.1286C75.7772 89.1252 75.8034 89.127 75.8286 89.1339C75.8537 89.1408 75.8772 89.1526 75.8977 89.1687C75.9182 89.1848 75.9353 89.2048 75.9479 89.2275C75.9656 89.2521 75.9776 89.2801 75.9832 89.3098C75.9887 89.3395 75.9877 89.37 75.9801 89.3992C75.9725 89.4285 75.9586 89.4557 75.9394 89.479C75.9201 89.5022 75.8959 89.5209 75.8685 89.5338Z" fill="#859CE8"/>
<path d="M118.001 130.44C122.764 120.695 111.497 108.088 117.154 98.84C120.663 93.0936 129.649 91.1394 130.771 84.5057C131.105 82.5251 130.613 80.5181 130.369 78.527C129.892 74.6282 130.383 70.6721 131.799 67.0074C133.215 63.3427 135.513 60.082 138.49 57.5129C141.467 54.9437 145.032 53.145 148.87 52.2752C152.708 51.4055 156.701 51.4915 160.498 52.5256H160.525C167.797 55.4094 173.819 62.1751 175.486 69.8017C176.289 73.6451 176.149 77.6252 175.078 81.403C174.008 85.1808 172.038 88.6444 169.337 91.4986C167.945 92.9457 166.341 94.2556 165.42 96.0354C162.319 102.02 168.331 108.965 167.68 115.662C166.622 126.452 150.046 129.78 147.982 140.422C147.453 143.227 148.046 146.116 148.051 148.978C148.051 161.459 134.291 171.911 122.235 168.562L121.621 168.356C109.978 163.814 105.246 147.193 112.767 137.227C114.524 134.956 116.747 133.012 118.001 130.44Z" fill="#97AAE8"/>
<path d="M159.762 53.1383L109.517 198.118C109.324 198.679 109.362 199.292 109.622 199.825C109.883 200.357 110.345 200.765 110.906 200.957C111.468 201.15 112.083 201.112 112.616 200.852C113.15 200.592 113.558 200.131 113.751 199.571V199.529L160.853 53.4921C160.875 53.3598 160.85 53.2238 160.781 53.1086C160.712 52.9933 160.604 52.9063 160.477 52.8631C160.349 52.8199 160.211 52.8233 160.086 52.8728C159.961 52.9222 159.857 53.0145 159.794 53.133L159.762 53.1383Z" fill="#859CE8"/>
<path d="M154.47 120.875C153.909 120.801 153.348 120.743 152.782 120.7C152.216 120.658 151.649 120.648 151.078 120.648C149.929 120.664 148.786 120.797 147.664 121.044C146.53 121.294 145.425 121.662 144.367 122.142C143.306 122.622 142.289 123.195 141.329 123.854C139.422 125.18 137.684 126.734 136.153 128.48C134.628 130.207 133.228 132.039 131.962 133.963C131.762 134.297 131.699 134.694 131.785 135.074C131.871 135.453 132.099 135.785 132.424 136.001C132.748 136.216 133.143 136.299 133.527 136.233C133.911 136.166 134.254 135.954 134.486 135.642L134.566 135.51C135.574 133.583 136.715 131.729 137.979 129.959C139.236 128.206 140.701 126.61 142.34 125.206C143.165 124.509 144.051 123.887 144.986 123.346C145.921 122.804 146.911 122.361 147.939 122.026C148.972 121.687 150.035 121.452 151.115 121.324C151.644 121.266 152.215 121.223 152.771 121.207C153.327 121.192 153.877 121.207 154.438 121.207C154.459 121.208 154.48 121.205 154.499 121.197C154.519 121.19 154.537 121.179 154.552 121.165C154.567 121.151 154.58 121.133 154.588 121.115C154.597 121.096 154.602 121.075 154.602 121.054C154.607 121.013 154.596 120.972 154.572 120.939C154.547 120.905 154.511 120.882 154.47 120.875Z" fill="#859CE8"/>
<path d="M169.744 75.1466C169.183 75.0779 168.622 75.0251 168.055 74.9934C167.489 74.9617 166.923 74.9512 166.357 74.9617C165.211 74.9912 164.071 75.1345 162.954 75.3895C161.831 75.6533 160.738 76.0321 159.694 76.5198C158.646 77.0091 157.644 77.5888 156.698 78.2521C154.823 79.5934 153.116 81.1538 151.612 82.8999C150.118 84.6351 148.748 86.4723 147.511 88.398C147.42 88.5294 147.357 88.6775 147.325 88.8337C147.292 88.9898 147.292 89.1509 147.323 89.3073C147.354 89.4636 147.416 89.6122 147.506 89.7442C147.596 89.8762 147.711 89.9889 147.845 90.0757C147.979 90.1625 148.129 90.2216 148.286 90.2496C148.444 90.2776 148.605 90.2738 148.761 90.2386C148.916 90.2033 149.064 90.1372 149.193 90.0442C149.323 89.9513 149.433 89.8333 149.516 89.6973L149.564 89.618C150.6 87.6932 151.771 85.8436 153.068 84.083C154.354 82.327 155.846 80.7311 157.513 79.3296C158.351 78.6414 159.247 78.0265 160.191 77.4916C161.139 76.9596 162.139 76.526 163.176 76.1976C164.224 75.871 165.302 75.6498 166.394 75.5374C166.923 75.4846 167.494 75.4476 168.045 75.437C168.595 75.4265 169.156 75.437 169.712 75.437C169.733 75.4385 169.754 75.4358 169.773 75.4291C169.793 75.4225 169.812 75.412 169.827 75.3982C169.843 75.3845 169.856 75.3678 169.865 75.3491C169.874 75.3304 169.88 75.31 169.881 75.2892C169.877 75.2537 169.861 75.2205 169.836 75.1948C169.812 75.169 169.779 75.1521 169.744 75.1466Z" fill="#859CE8"/>
<path d="M128.707 98.0002C129.163 98.3065 129.612 98.634 130.046 98.972C130.48 99.31 130.893 99.6744 131.295 100.028C132.087 100.781 132.796 101.615 133.412 102.516C134.614 104.322 135.46 106.341 135.905 108.463C136.356 110.587 136.562 112.756 136.519 114.928C136.485 117.109 136.308 119.286 135.99 121.445C135.948 121.738 136.024 122.035 136.201 122.272C136.379 122.509 136.644 122.665 136.937 122.707C137.23 122.749 137.528 122.673 137.766 122.496C138.003 122.319 138.16 122.055 138.202 121.762C138.202 121.736 138.202 121.704 138.202 121.683C138.377 119.418 138.402 117.143 138.276 114.875C138.158 112.591 137.778 110.328 137.143 108.13C136.513 105.923 135.466 103.856 134.058 102.041C133.352 101.146 132.551 100.33 131.671 99.6057C131.227 99.2519 130.777 98.9086 130.311 98.5917C129.845 98.2748 129.364 97.9843 128.882 97.6991C128.864 97.6887 128.844 97.6819 128.823 97.6792C128.803 97.6765 128.782 97.6779 128.761 97.6833C128.741 97.6887 128.722 97.698 128.706 97.7106C128.689 97.7233 128.675 97.7391 128.665 97.7572C128.65 97.7753 128.64 97.7964 128.634 97.8191C128.628 97.8417 128.627 97.8652 128.631 97.8883C128.635 97.9113 128.644 97.9332 128.657 97.9525C128.67 97.9718 128.687 97.988 128.707 98.0002Z" fill="#859CE8"/>
<path d="M123.954 109.651C122.187 96.1833 140.604 85.6201 137.535 72.3527C135.64 64.1134 125.717 58.2297 127.024 49.8742C127.416 47.3865 128.802 45.1894 129.887 42.9183C132.009 38.4642 133.001 33.5574 132.774 28.6307C132.547 23.7039 131.108 18.9086 128.585 14.6677C126.063 10.4267 122.533 6.87047 118.308 4.31251C114.082 1.75456 109.291 0.273509 104.357 0H104.283C94.4709 0.52816 84.606 6.21115 79.5836 14.6353C77.0966 18.8947 75.6776 23.6906 75.4472 28.6149C75.2169 33.5393 76.182 38.4463 78.2605 42.9183C79.319 45.1894 80.732 47.3865 81.1236 49.8742C82.4308 58.2297 72.5024 64.1345 70.6078 72.3527C67.5753 85.6201 86.0032 96.1833 84.225 109.651C83.7539 113.211 81.8804 116.412 80.7373 119.813C75.7519 134.676 87.9984 152.596 103.68 153.378H104.495C120.181 152.596 132.427 134.676 127.437 119.813C126.294 116.412 124.425 113.211 123.954 109.651Z" fill="#AEBCE8"/>
<path d="M105.003 1.02459L107.12 193.629C107.139 194.006 107.083 194.383 106.953 194.738C106.823 195.092 106.622 195.417 106.363 195.692C106.104 195.967 105.792 196.187 105.446 196.339C105.099 196.491 104.726 196.571 104.348 196.575C103.969 196.579 103.594 196.506 103.245 196.362C102.895 196.217 102.579 196.004 102.314 195.734C102.049 195.464 101.842 195.144 101.705 194.792C101.568 194.44 101.503 194.064 101.515 193.687V193.629L103.632 1.02459C103.647 0.848123 103.728 0.683785 103.859 0.564062C103.99 0.44434 104.161 0.37793 104.338 0.37793C104.516 0.37793 104.687 0.44434 104.818 0.564062C104.949 0.683785 105.03 0.848123 105.045 1.02459H105.003Z" fill="#97AAE8"/>
<path d="M84.3519 83.8031C85.0505 83.9351 85.7385 84.0883 86.4318 84.2626C87.1251 84.4369 87.8025 84.6481 88.4799 84.8805C91.2307 85.8318 93.7536 87.3425 95.8892 89.3171C96.9579 90.3122 97.9388 91.3971 98.8211 92.56C100.559 94.8986 102.007 97.438 103.134 100.123C104.26 102.787 105.197 105.526 105.939 108.32C106.021 108.573 106.049 108.84 106.022 109.104C105.994 109.368 105.912 109.623 105.779 109.853C105.647 110.083 105.468 110.283 105.253 110.44C105.039 110.597 104.794 110.707 104.534 110.764C104.274 110.821 104.005 110.823 103.745 110.769C103.484 110.716 103.237 110.609 103.021 110.455C102.804 110.301 102.623 110.103 102.487 109.875C102.352 109.646 102.266 109.392 102.235 109.128C101.804 106.433 101.183 103.772 100.377 101.164C99.5841 98.5758 98.4806 96.0931 97.0906 93.7695C96.3877 92.6159 95.5855 91.5255 94.6931 90.5107C93.7941 89.4947 92.792 88.5743 91.703 87.7643C90.602 86.9412 89.4191 86.2333 88.173 85.6517C87.5485 85.3665 86.9081 85.1235 86.2519 84.8594C85.5956 84.5953 84.9341 84.3999 84.2672 84.2045C84.2173 84.1907 84.1746 84.1583 84.1481 84.1139C84.1215 84.0694 84.1132 84.0165 84.1248 83.9661C84.1364 83.9157 84.1671 83.8717 84.2104 83.8433C84.2537 83.8149 84.3063 83.8043 84.3572 83.8137L84.3519 83.8031Z" fill="#97AAE8"/>
<path d="M84.352 23.2972C85.0453 23.4398 85.7385 23.5983 86.4212 23.7779C87.104 23.9574 87.7867 24.1793 88.4641 24.4169C89.8154 24.9059 91.1134 25.5306 92.3381 26.2814C93.5731 27.0407 94.7259 27.9257 95.7781 28.9222C96.8284 29.9199 97.79 31.0066 98.6519 32.1704C100.363 34.5106 101.784 37.0482 102.886 39.7284C103.973 42.3859 104.874 45.1162 105.58 47.8991C105.64 48.0929 105.661 48.2971 105.641 48.4992C105.62 48.7014 105.559 48.8972 105.46 49.0749C105.361 49.2526 105.227 49.4084 105.067 49.533C104.906 49.6575 104.721 49.7481 104.524 49.7993C104.327 49.8505 104.122 49.8613 103.921 49.8309C103.719 49.8005 103.526 49.7296 103.353 49.6226C103.18 49.5155 103.031 49.3745 102.914 49.208C102.797 49.0416 102.716 48.8532 102.674 48.6543C102.674 48.6174 102.674 48.5804 102.648 48.5434C102.178 45.8412 101.522 43.1747 100.684 40.5629C99.848 37.9711 98.7038 35.4887 97.2758 33.1686C96.5526 32.0173 95.731 30.9305 94.8202 29.9204C93.9068 28.9075 92.8885 27.994 91.7824 27.1951C90.6668 26.3875 89.4716 25.6955 88.2154 25.13C87.5803 24.85 86.9399 24.6018 86.2836 24.3589C85.6274 24.1159 84.9606 23.9205 84.2884 23.7251C84.2628 23.7189 84.2387 23.7077 84.2175 23.692C84.1963 23.6764 84.1785 23.6566 84.1652 23.6339C84.1518 23.6112 84.1432 23.5861 84.1398 23.56C84.1365 23.5339 84.1384 23.5074 84.1455 23.4821C84.1508 23.4312 84.1748 23.3841 84.213 23.3499C84.2511 23.3157 84.3007 23.297 84.352 23.2972Z" fill="#97AAE8"/>
<path d="M124.124 66.77C123.457 66.9548 122.79 67.1661 122.139 67.3985C121.488 67.6309 120.853 67.9267 120.223 68.1855C118.982 68.7627 117.805 69.471 116.715 70.2981C114.561 71.9693 112.749 74.0364 111.375 76.3879C109.993 78.7411 108.884 81.2429 108.067 83.8455C107.243 86.4589 106.591 89.1229 106.114 91.8208C106.089 92.0085 106.026 92.1892 105.93 92.352C105.833 92.5148 105.704 92.6563 105.55 92.768C105.397 92.8796 105.223 92.959 105.038 93.0015C104.853 93.0439 104.661 93.0484 104.475 93.0148C104.288 92.9812 104.11 92.9101 103.952 92.8059C103.793 92.7016 103.658 92.5664 103.553 92.4083C103.449 92.2503 103.377 92.0727 103.344 91.8864C103.31 91.7001 103.314 91.5088 103.357 91.3243C103.354 91.2909 103.354 91.2573 103.357 91.2239C104.054 88.4576 104.929 85.7389 105.976 83.085C107.032 80.4215 108.387 77.8859 110.015 75.5269C111.644 73.1445 113.715 71.0953 116.117 69.49C117.315 68.7066 118.594 68.0532 119.932 67.5411C120.594 67.2929 121.271 67.0658 121.949 66.8756C122.626 66.6855 123.319 66.5218 124.007 66.3791C124.034 66.3738 124.06 66.3736 124.087 66.3787C124.113 66.3838 124.138 66.394 124.16 66.4087C124.182 66.4234 124.201 66.4424 124.216 66.4645C124.23 66.4867 124.241 66.5115 124.246 66.5376C124.256 66.5844 124.249 66.6332 124.227 66.6756C124.204 66.718 124.168 66.7514 124.124 66.77Z" fill="#97AAE8"/>
<path d="M122.547 185.442H76.6728C75.8147 185.458 74.9694 185.653 74.192 186.016C73.4146 186.38 72.7226 186.902 72.1609 187.55C71.5992 188.197 71.1806 188.956 70.9321 189.776C70.6837 190.596 70.6111 191.459 70.7189 192.308L76.9057 245.198C77.0563 246.674 77.7458 248.043 78.8429 249.045C79.9399 250.046 81.3677 250.61 82.8543 250.628H116.365C117.852 250.609 119.28 250.045 120.378 249.044C121.475 248.043 122.166 246.674 122.319 245.198L128.501 192.308C128.609 191.458 128.537 190.595 128.289 189.775C128.041 188.955 127.623 188.196 127.061 187.548C126.499 186.9 125.806 186.378 125.029 186.015C124.251 185.652 123.405 185.457 122.547 185.442Z" fill="#494C7F"/>
<path d="M94.0514 177.508H88.3577C88.134 177.52 87.9102 177.487 87.6999 177.41C87.4896 177.333 87.2972 177.214 87.1345 177.06C86.9719 176.906 86.8423 176.721 86.7538 176.516C86.6652 176.31 86.6196 176.089 86.6196 175.866C86.6196 175.642 86.6652 175.421 86.7538 175.215C86.8423 175.01 86.9719 174.825 87.1345 174.671C87.2972 174.517 87.4896 174.398 87.6999 174.321C87.9102 174.244 88.134 174.211 88.3577 174.223H92.4079V163.552H88.3577C87.9218 163.552 87.5038 163.379 87.1956 163.071C86.8874 162.764 86.7142 162.347 86.7142 161.912C86.7142 161.477 86.8874 161.059 87.1956 160.752C87.5038 160.444 87.9218 160.271 88.3577 160.271H94.0514C94.4873 160.271 94.9053 160.444 95.2136 160.752C95.5218 161.059 95.6949 161.477 95.6949 161.912V175.868C95.6936 176.303 95.5201 176.719 95.2121 177.026C94.9042 177.334 94.4869 177.507 94.0514 177.508Z" fill="#FF6C00"/>
<path d="M71.6143 153.808H83.7207C84.329 153.808 84.9313 153.928 85.4933 154.16C86.0553 154.393 86.566 154.733 86.9961 155.162C87.4263 155.592 87.7675 156.101 88.0003 156.662C88.2331 157.223 88.3529 157.824 88.3529 158.431V179.339C88.3529 179.946 88.2331 180.547 88.0003 181.108C87.7675 181.669 87.4263 182.178 86.9961 182.608C86.566 183.037 86.0553 183.378 85.4933 183.61C84.9313 183.842 84.329 183.962 83.7207 183.962H71.6143C71.0053 183.962 70.4023 183.842 69.8397 183.609C69.2771 183.377 68.7659 183.036 68.3353 182.606C67.9047 182.177 67.5632 181.666 67.3301 181.105C67.0971 180.543 66.9771 179.942 66.9771 179.334V158.426C66.9778 157.819 67.0983 157.218 67.3316 156.658C67.565 156.097 67.9068 155.588 68.3374 155.159C68.7679 154.73 69.279 154.39 69.8412 154.158C70.4035 153.927 71.006 153.808 71.6143 153.808Z" fill="#FF6C00"/>
<path d="M75.5815 150.938C75.5815 150.938 68.6699 148.141 70.8075 143.079C72.945 138.017 80.7224 138.685 76.3005 131.363C81.6322 134.292 82.4344 140.828 78.2914 142.43C74.1483 144.031 73.938 148.068 75.5815 150.938Z" fill="white"/>
<path d="M82.0967 150.938C82.0967 150.938 77.2052 148.946 78.702 145.349C80.1988 141.751 85.7506 142.224 82.6152 137.006C86.4061 139.095 86.9784 143.738 84.0337 144.875C81.089 146.012 80.9032 148.893 82.0967 150.938Z" fill="white"/>
<path d="M96.7712 193.656H-14.0205C-14.6744 193.656 -15.3219 193.528 -15.9261 193.278C-16.5302 193.028 -17.0791 192.662 -17.5415 192.201C-18.0039 191.739 -18.3707 191.192 -18.621 190.589C-18.8712 189.986 -19 189.34 -19 188.687C-19 187.369 -18.4754 186.105 -17.5415 185.173C-16.6077 184.241 -15.3411 183.718 -14.0205 183.718H96.7712C98.0918 183.718 99.3584 184.241 100.292 185.173C101.226 186.105 101.751 187.369 101.751 188.687C101.751 189.34 101.622 189.986 101.372 190.589C101.121 191.192 100.755 191.739 100.292 192.201C99.8298 192.662 99.2809 193.028 98.6768 193.278C98.0726 193.528 97.4251 193.656 96.7712 193.656Z" fill="#95ADF5"/>
<path d="M90.0454 191.904H83.6278V265.561H90.0454V191.904Z" fill="#95ADF5"/>
<path d="M55.8002 176.18V181.335H57.2089C57.3712 181.335 57.532 181.366 57.6821 181.428C57.8322 181.489 57.9687 181.58 58.0837 181.694C58.1987 181.808 58.2899 181.944 58.3521 182.094C58.4144 182.243 58.4464 182.404 58.4464 182.566V182.775C58.4464 182.937 58.4144 183.098 58.3521 183.247C58.2899 183.397 58.1987 183.533 58.0837 183.647C57.9687 183.761 57.8322 183.852 57.6821 183.913C57.532 183.975 57.3712 184.006 57.2089 184.006H-2.72621C-3.10761 184.006 -3.47339 183.854 -3.74309 183.585C-4.01278 183.316 -4.16429 182.951 -4.16429 182.57V175.145C-4.16429 174.765 -4.01278 174.4 -3.74309 174.131C-3.47339 173.862 -3.10761 173.71 -2.72621 173.71H57.2089C57.5371 173.71 57.8519 173.84 58.084 174.072C58.3161 174.304 58.4464 174.618 58.4464 174.945C58.4464 175.273 58.3161 175.587 58.084 175.819C57.8519 176.05 57.5371 176.18 57.2089 176.18H55.8002Z" fill="#FF6C00"/>
<path d="M55.9812 181.331H5.11C4.77106 181.331 4.43533 181.265 4.12201 181.136C3.8087 181.007 3.52394 180.818 3.28405 180.579C3.04416 180.34 2.85385 180.056 2.724 179.744C2.59414 179.431 2.5273 179.096 2.5273 178.758C2.52666 178.419 2.59302 178.084 2.72259 177.771C2.85215 177.458 3.04236 177.173 3.28232 176.934C3.52227 176.694 3.80724 176.505 4.12088 176.375C4.43452 176.246 4.77065 176.18 5.11 176.18H55.9812V181.331Z" fill="white"/>
<path d="M-9.46657 165.051V170.752H-10.8704C-11.2161 170.77 -11.5406 170.924 -11.7726 171.18C-12.0046 171.436 -12.1253 171.774 -12.108 172.119V172.348C-12.1239 172.692 -12.0027 173.029 -11.7708 173.284C-11.5389 173.539 -11.2152 173.693 -10.8704 173.71H49.0647C49.4657 173.689 49.8419 173.51 50.1113 173.213C50.3807 172.916 50.5214 172.524 50.5028 172.124V163.908C50.5214 163.508 50.3807 163.116 50.1113 162.819C49.8419 162.522 49.4657 162.343 49.0647 162.322H-10.8704C-11.2152 162.339 -11.5389 162.493 -11.7708 162.748C-12.0027 163.003 -12.1239 163.34 -12.108 163.684C-12.1253 164.029 -12.0046 164.366 -11.7726 164.623C-11.5406 164.879 -11.2161 165.033 -10.8704 165.051H-9.46657Z" fill="#92B5F8"/>
<path d="M-9.64254 170.752H40.9694C41.7271 170.752 42.4537 170.452 42.9894 169.917C43.5251 169.383 43.8261 168.658 43.8261 167.901C43.8267 167.527 43.7533 167.156 43.6099 166.81C43.4666 166.464 43.2562 166.149 42.9908 165.884C42.7254 165.619 42.4103 165.409 42.0634 165.266C41.7165 165.123 41.3448 165.05 40.9694 165.051H-9.64254V170.752Z" fill="white"/>
<path d="M47.1717 157.045H-2.58915C-3.19787 157.045 -3.80062 156.925 -4.36295 156.692C-4.92527 156.46 -5.43614 156.119 -5.86635 155.689C-6.29655 155.259 -6.63765 154.749 -6.87016 154.188C-7.10266 153.626 -7.222 153.025 -7.22136 152.417C-7.22136 151.191 -6.73332 150.015 -5.86461 149.148C-4.99591 148.281 -3.81769 147.794 -2.58915 147.794H47.1717C48.4003 147.794 49.5785 148.281 50.4472 149.148C51.3159 150.015 51.8039 151.191 51.8039 152.417C51.8046 153.025 51.6852 153.626 51.4527 154.188C51.2202 154.749 50.8791 155.259 50.4489 155.689C50.0187 156.119 49.5078 156.46 48.9455 156.692C48.3832 156.925 47.7804 157.045 47.1717 157.045Z" fill="#FF6C00"/>
<path d="M53.012 162.322H-0.720725C-1.42301 162.32 -2.0961 162.041 -2.59223 161.545C-3.08837 161.049 -3.36701 160.377 -3.36701 159.676C-3.36701 158.975 -3.08821 158.304 -2.59193 157.808C-2.09566 157.313 -1.42256 157.035 -0.720725 157.035H53.012C53.7143 157.035 54.3879 157.313 54.8849 157.808C55.382 158.303 55.6619 158.975 55.6632 159.676C55.6632 160.378 55.3839 161.051 54.8867 161.547C54.3895 162.043 53.7151 162.322 53.012 162.322Z" fill="#768FDB"/>
<path d="M255.321 214.731C252.166 224.483 246.184 233.082 238.132 239.441C230.08 245.799 220.319 249.632 210.084 250.455C199.849 251.278 189.6 249.053 180.632 244.062C171.664 239.071 164.38 231.539 159.702 222.417C155.023 213.295 153.161 202.994 154.349 192.815C155.537 182.637 159.723 173.038 166.378 165.234C173.032 157.43 181.856 151.77 191.733 148.971C201.611 146.171 212.098 146.358 221.87 149.507C234.972 153.729 245.858 162.973 252.131 175.205C258.405 187.437 259.552 201.655 255.321 214.731Z" fill="#7C9AF2"/>
<path d="M246.499 211.868C244.586 217.764 241.407 223.172 237.184 227.715C232.961 232.258 227.795 235.827 222.047 238.171C216.299 240.516 210.108 241.581 203.905 241.291C197.702 241.002 191.637 239.365 186.134 236.495C182.622 234.669 179.386 232.359 176.519 229.634C175.453 228.612 174.439 227.537 173.482 226.413C166.622 218.382 162.996 208.094 163.307 197.546C163.618 186.998 167.844 176.941 175.164 169.326C182.484 161.711 192.378 157.081 202.926 156.334C213.473 155.587 223.923 158.776 232.248 165.282C239.108 170.664 244.152 178.014 246.7 186.343C249.248 194.672 249.178 203.58 246.499 211.868Z" fill="#92B5F8"/>
<path d="M232.248 165.304L173.482 226.434C166.392 218.139 162.756 207.447 163.323 196.558L201.916 156.396C212.794 155.387 223.646 158.569 232.248 165.29V165.304Z" fill="#A7C1E9"/>
<path d="M242.841 177.511L186.134 236.502C182.622 234.676 179.386 232.367 176.519 229.641L235.576 168.206C238.419 170.956 240.865 174.088 242.841 177.511Z" fill="#A7C1E9"/>
<path d="M208.777 158.343C203.738 157.813 202.82 158.311 200.557 162.77C201.12 157.803 200.622 156.883 196.121 154.564C201.142 155.093 202.078 154.596 204.341 150.137C203.814 155.165 204.308 156.085 208.777 158.343Z" fill="white"/>
<path d="M190.964 238.277C186.715 237.833 185.944 238.252 184.029 242.013C184.502 237.822 184.086 237.046 180.285 235.092C184.538 235.535 185.305 235.117 187.224 231.355C186.758 235.596 187.177 236.373 190.964 238.277Z" fill="white"/>
<path d="M434.701 135.649L425.639 109.022C425.639 109.022 409.39 107.73 398.951 125.037C392.496 135.774 376 139.159 376 139.159L385.109 165.926C385.109 165.926 406.206 163.882 413.396 151.496C421.013 138.379 434.701 135.649 434.701 135.649Z" fill="#D4DEFF"/>
<path d="M396.222 144.574C399.966 148.948 407.149 148.958 412.263 144.599C417.377 140.24 418.488 133.147 414.744 128.781C411 124.415 403.814 124.397 398.7 128.756C393.586 133.115 392.478 140.197 396.222 144.574Z" fill="#E3EAFF"/>
<path d="M306.738 151.487L285.645 141.617C285.126 142.719 284.607 143.823 284.088 144.927C283.335 146.527 287.477 150.049 293.333 152.801C299.19 155.553 304.547 156.466 305.3 154.866C305.368 154.708 306.738 151.487 306.738 151.487Z" fill="#C2D0FF"/>
<path d="M306.774 151.731C306.021 153.331 300.678 152.404 294.807 149.662C288.937 146.921 284.809 143.399 285.562 141.789C286.315 140.178 291.659 141.116 297.529 143.857C303.4 146.599 307.524 150.127 306.774 151.731Z" fill="#D4DEFF"/>
<path d="M333.889 197.207L312.082 205.392L313.373 208.814C313.997 210.471 319.412 209.969 325.465 207.697C331.519 205.424 335.926 202.239 335.302 200.586C335.245 200.435 333.889 197.207 333.889 197.207Z" fill="#C2D0FF"/>
<path d="M334.083 197.347C334.703 199 330.299 202.182 324.246 204.454C318.193 206.727 312.77 207.228 312.15 205.575C311.529 203.921 315.933 200.736 321.987 198.463C328.04 196.191 333.459 195.693 334.083 197.347Z" fill="#D4DEFF"/>
</svg>
