<svg width="574" height="347" viewBox="0 0 574 347" fill="none" xmlns="http://www.w3.org/2000/svg">
<path d="M355.018 347.565H-583.792C-585.132 347.565 -586.459 347.302 -587.698 346.791C-588.936 346.279 -590.062 345.529 -591.01 344.584C-591.958 343.638 -592.71 342.515 -593.223 341.28C-593.736 340.044 -594 338.719 -594 337.382C-594 334.68 -592.924 332.088 -591.01 330.178C-589.096 328.267 -586.499 327.194 -583.792 327.194H355.018C357.726 327.194 360.322 328.267 362.237 330.178C364.151 332.088 365.227 334.68 365.227 337.382C365.227 338.719 364.963 340.044 364.45 341.28C363.937 342.515 363.185 343.638 362.237 344.584C361.289 345.529 360.163 346.279 358.925 346.791C357.686 347.302 356.359 347.565 355.018 347.565Z" fill="#95A6DB"/>
<path d="M119.994 170.813C112.486 154.659 131.368 134.295 122.363 118.915C116.766 109.369 102.062 105.892 100.427 94.9493C99.9351 91.6866 100.808 88.4032 101.272 85.1405C102.175 78.7494 101.488 72.2348 99.273 66.1708C97.058 60.1069 93.3824 54.6798 88.5701 50.3676C83.7579 46.0555 77.9567 42.9908 71.6779 41.4436C65.399 39.8964 58.8352 39.9142 52.5649 41.4954H52.5164H52.4679C40.4366 46.0023 30.3032 56.9378 27.3594 69.4148C25.9264 75.7056 26.0357 82.2486 27.678 88.4882C29.3204 94.7279 32.4473 100.48 36.7933 105.256C39.0375 107.675 41.6418 109.873 43.0895 112.859C48.0004 122.779 37.9084 134.005 38.7742 145.03C40.1595 162.788 67.3114 168.767 70.3729 186.311C71.1833 190.942 70.0958 195.67 70.0058 200.364C69.5971 220.873 91.9143 238.472 111.807 233.329L112.832 233.011C132.109 225.912 140.386 198.746 128.327 182.136C125.57 178.334 121.975 175.064 119.994 170.813Z" fill="#97AAE8"/>
<path d="M53.7561 42.5254L131.852 282.263C132.025 282.725 132.102 283.218 132.079 283.712C132.056 284.205 131.934 284.689 131.718 285.134C131.503 285.579 131.2 285.976 130.827 286.301C130.455 286.626 130.02 286.872 129.549 287.025C129.079 287.178 128.582 287.235 128.089 287.191C127.596 287.148 127.116 287.005 126.68 286.772C126.243 286.539 125.859 286.22 125.549 285.835C125.239 285.449 125.011 285.006 124.877 284.53V284.454L51.9899 43.0784C51.9366 42.8508 51.9716 42.6115 52.0877 42.4085C52.2038 42.2056 52.3925 42.0539 52.6159 41.9839C52.8394 41.914 53.081 41.9309 53.2925 42.0313C53.504 42.1317 53.6696 42.3082 53.7561 42.5254Z" fill="#859CE8"/>
<path d="M60.4061 153.974C61.3273 153.871 62.2485 153.788 63.1767 153.739C64.1048 153.691 65.0468 153.684 65.9819 153.739C67.8703 153.802 69.7477 154.054 71.5854 154.493C73.4399 154.941 75.2434 155.578 76.9672 156.394C78.6932 157.222 80.3454 158.196 81.9058 159.304C84.9927 161.547 87.7994 164.151 90.2661 167.06C92.7142 169.948 94.9591 173.001 96.9848 176.198C97.3411 176.754 97.4614 177.429 97.3192 178.074C97.177 178.719 96.7838 179.281 96.2263 179.637C95.6688 179.993 94.9925 180.113 94.3462 179.971C93.7 179.829 93.1368 179.436 92.7804 178.88L92.6626 178.666C91.0673 175.467 89.2505 172.384 87.2253 169.438C85.2201 166.495 82.8666 163.806 80.2158 161.426C78.8873 160.261 77.4597 159.213 75.9491 158.295C74.4157 157.374 72.7908 156.614 71.1005 156.027C69.4046 155.435 67.6522 155.018 65.871 154.783C64.9775 154.666 64.0702 154.583 63.1628 154.541C62.2554 154.5 61.3342 154.486 60.3922 154.5C60.3224 154.504 60.2536 154.481 60.201 154.435C60.1484 154.389 60.1162 154.324 60.1117 154.254C60.1071 154.185 60.1304 154.116 60.1765 154.064C60.2226 154.011 60.2878 153.979 60.3576 153.974H60.4061Z" fill="#859CE8"/>
<path d="M103.406 117.18C102.644 117.677 101.896 118.196 101.168 118.735C100.441 119.274 99.783 119.869 99.0904 120.47C97.7672 121.68 96.5761 123.026 95.5371 124.486C93.5068 127.411 92.054 130.696 91.2565 134.164C90.4504 137.641 90.0438 141.198 90.0444 144.767C90.0366 148.352 90.268 151.934 90.7371 155.488C90.7977 155.971 90.6639 156.457 90.3651 156.841C90.0664 157.224 89.6271 157.474 89.144 157.534C88.6609 157.595 88.1734 157.461 87.7889 157.163C87.4044 156.865 87.1544 156.427 87.0937 155.945C87.0903 155.901 87.0903 155.857 87.0937 155.813C86.8791 152.085 86.9068 148.347 87.1769 144.622C87.4489 140.869 88.146 137.159 89.2548 133.562C90.3613 129.953 92.1454 126.587 94.512 123.643C95.7056 122.2 97.0474 120.887 98.5155 119.724C99.2497 119.15 99.9977 118.611 100.773 118.106C101.549 117.601 102.346 117.124 103.156 116.682C103.186 116.665 103.218 116.654 103.252 116.649C103.286 116.645 103.32 116.647 103.353 116.656C103.386 116.665 103.417 116.681 103.444 116.702C103.471 116.723 103.493 116.749 103.509 116.779C103.533 116.811 103.548 116.848 103.556 116.886C103.563 116.925 103.561 116.965 103.552 117.004C103.542 117.042 103.523 117.077 103.498 117.108C103.473 117.138 103.441 117.163 103.406 117.18Z" fill="#859CE8"/>
<path d="M158.547 170.717C164.781 157.963 150.035 141.463 157.439 129.36C162.031 121.839 173.793 119.281 175.261 110.599C175.697 108.007 175.053 105.38 174.735 102.774C174.11 97.6717 174.752 92.494 176.606 87.6978C178.459 82.9015 181.467 78.634 185.363 75.2715C189.259 71.9091 193.925 69.5549 198.948 68.4167C203.971 67.2784 209.198 67.3909 214.167 68.7444H214.202C223.719 72.5186 231.601 81.3734 233.783 91.3549C234.834 96.3851 234.651 101.594 233.249 106.538C231.848 111.483 229.27 116.016 225.734 119.751C223.913 121.645 221.814 123.36 220.609 125.689C216.55 133.521 224.418 142.611 223.566 151.376C222.181 165.498 200.487 169.853 197.786 183.781C197.093 187.452 197.869 191.233 197.876 194.979C197.876 211.313 179.867 224.993 164.089 220.611L163.285 220.341C148.047 214.396 141.855 192.643 151.697 179.599C153.997 176.627 156.906 174.083 158.547 170.717Z" fill="#97AAE8"/>
<path d="M213.204 69.5461L147.444 259.293C147.191 260.026 147.241 260.829 147.582 261.526C147.923 262.223 148.527 262.756 149.262 263.008C149.997 263.26 150.802 263.21 151.5 262.87C152.198 262.53 152.733 261.927 152.985 261.193V261.138L214.631 70.0092C214.66 69.836 214.627 69.6581 214.537 69.5073C214.446 69.3564 214.305 69.2425 214.139 69.186C213.972 69.1294 213.791 69.1339 213.627 69.1986C213.463 69.2634 213.328 69.3841 213.246 69.5392L213.204 69.5461Z" fill="#859CE8"/>
<path d="M206.277 158.198C205.543 158.101 204.809 158.025 204.068 157.97C203.327 157.915 202.585 157.901 201.837 157.901C200.334 157.922 198.838 158.096 197.37 158.419C195.885 158.747 194.439 159.229 193.055 159.857C191.666 160.485 190.335 161.234 189.079 162.097C186.582 163.833 184.308 165.866 182.305 168.152C180.309 170.411 178.476 172.809 176.819 175.327C176.558 175.764 176.475 176.285 176.587 176.781C176.7 177.278 176.999 177.712 177.423 177.994C177.848 178.277 178.365 178.385 178.867 178.298C179.369 178.211 179.819 177.934 180.123 177.525L180.227 177.352C181.547 174.831 183.039 172.403 184.694 170.087C186.34 167.793 188.256 165.704 190.402 163.866C191.482 162.955 192.641 162.14 193.865 161.433C195.089 160.723 196.384 160.144 197.73 159.705C199.081 159.261 200.473 158.953 201.886 158.785C202.579 158.709 203.327 158.654 204.054 158.633C204.781 158.613 205.502 158.633 206.236 158.633C206.263 158.634 206.29 158.63 206.316 158.62C206.341 158.611 206.365 158.596 206.385 158.578C206.405 158.559 206.421 158.537 206.432 158.512C206.443 158.487 206.45 158.46 206.45 158.433C206.457 158.379 206.442 158.325 206.41 158.282C206.378 158.238 206.331 158.208 206.277 158.198Z" fill="#859CE8"/>
<path d="M226.267 98.3501C225.533 98.2603 224.799 98.1912 224.058 98.1497C223.317 98.1082 222.575 98.0944 221.834 98.1082C220.335 98.1468 218.843 98.3344 217.381 98.6681C215.911 99.0133 214.481 99.509 213.114 100.147C211.743 100.788 210.432 101.546 209.194 102.415C206.74 104.17 204.505 106.212 202.537 108.497C200.582 110.768 198.789 113.173 197.169 115.693C197.051 115.865 196.968 116.059 196.926 116.263C196.884 116.468 196.883 116.679 196.924 116.883C196.964 117.088 197.046 117.282 197.163 117.455C197.28 117.628 197.431 117.775 197.607 117.889C197.782 118.003 197.978 118.08 198.184 118.117C198.39 118.153 198.601 118.148 198.805 118.102C199.009 118.056 199.202 117.97 199.372 117.848C199.542 117.726 199.685 117.572 199.794 117.394L199.857 117.29C201.213 114.771 202.745 112.35 204.442 110.046C206.125 107.748 208.079 105.659 210.26 103.825C211.357 102.924 212.53 102.119 213.765 101.419C215.006 100.723 216.315 100.155 217.672 99.7257C219.043 99.2982 220.454 99.0088 221.883 98.8616C222.575 98.7925 223.324 98.7441 224.044 98.7303C224.764 98.7165 225.498 98.7303 226.226 98.7303C226.253 98.7322 226.28 98.7287 226.306 98.72C226.332 98.7112 226.356 98.6975 226.377 98.6795C226.397 98.6615 226.414 98.6397 226.426 98.6152C226.438 98.5907 226.446 98.564 226.447 98.5368C226.442 98.4903 226.421 98.4469 226.389 98.4132C226.356 98.3795 226.314 98.3574 226.267 98.3501Z" fill="#859CE8"/>
<path d="M172.56 128.26C173.155 128.661 173.744 129.09 174.312 129.532C174.88 129.975 175.42 130.451 175.947 130.915C176.982 131.9 177.911 132.991 178.717 134.17C180.291 136.534 181.398 139.176 181.98 141.954C182.57 144.734 182.84 147.573 182.783 150.414C182.739 153.27 182.508 156.119 182.091 158.944C182.036 159.328 182.135 159.717 182.368 160.027C182.6 160.336 182.947 160.541 183.331 160.596C183.714 160.651 184.105 160.552 184.415 160.32C184.725 160.088 184.931 159.742 184.986 159.359C184.986 159.325 184.986 159.283 184.986 159.255C185.216 156.291 185.248 153.314 185.083 150.345C184.929 147.356 184.431 144.394 183.601 141.518C182.776 138.629 181.405 135.924 179.562 133.548C178.638 132.378 177.591 131.31 176.439 130.362C175.857 129.898 175.268 129.449 174.659 129.034C174.049 128.62 173.419 128.239 172.788 127.866C172.765 127.853 172.739 127.844 172.712 127.84C172.684 127.837 172.657 127.838 172.631 127.845C172.604 127.853 172.579 127.865 172.558 127.881C172.536 127.898 172.518 127.919 172.504 127.942C172.485 127.966 172.471 127.994 172.463 128.023C172.456 128.053 172.454 128.084 172.46 128.114C172.465 128.144 172.477 128.173 172.494 128.198C172.511 128.223 172.534 128.244 172.56 128.26Z" fill="#859CE8"/>
<path d="M166.339 143.509C164.026 125.882 188.13 112.058 184.113 94.6935C181.633 83.9101 168.646 76.2096 170.357 65.2741C170.869 62.0184 172.684 59.1428 174.104 56.1705C176.881 50.3411 178.179 43.9192 177.882 37.4712C177.585 31.0232 175.702 24.7471 172.4 19.1967C169.099 13.6462 164.479 8.99191 158.949 5.64412C153.419 2.29632 147.149 0.357963 140.691 0H140.594C127.752 0.691244 114.841 8.129 108.268 19.1543C105.013 24.7289 103.156 31.0057 102.854 37.4505C102.553 43.8954 103.816 50.3175 106.536 56.1705C107.922 59.1428 109.771 62.0184 110.283 65.2741C111.994 76.2096 99.0002 83.9377 96.5205 94.6935C92.5517 112.058 116.67 125.882 114.342 143.509C113.726 148.168 111.274 152.357 109.778 156.809C103.253 176.26 119.281 199.714 139.804 200.737H140.871C161.401 199.714 177.429 176.26 170.897 156.809C169.401 152.357 166.956 148.168 166.339 143.509Z" fill="#AEBCE8"/>
<path d="M141.535 1.34099L144.306 253.417C144.332 253.91 144.258 254.404 144.088 254.868C143.918 255.332 143.655 255.757 143.316 256.117C142.977 256.477 142.569 256.765 142.116 256.964C141.662 257.162 141.173 257.268 140.678 257.273C140.183 257.278 139.692 257.183 139.235 256.994C138.777 256.805 138.363 256.525 138.017 256.172C137.67 255.819 137.399 255.399 137.219 254.939C137.04 254.479 136.955 253.987 136.971 253.493V253.417L139.741 1.34099C139.761 1.11004 139.868 0.894955 140.039 0.738265C140.21 0.581576 140.434 0.494659 140.666 0.494659C140.898 0.494659 141.122 0.581576 141.293 0.738265C141.465 0.894955 141.571 1.11004 141.591 1.34099H141.535Z" fill="#97AAE8"/>
<path d="M114.508 109.68C115.423 109.852 116.323 110.053 117.23 110.281C118.138 110.509 119.024 110.786 119.911 111.09C123.511 112.335 126.813 114.312 129.608 116.896C131.007 118.198 132.29 119.618 133.445 121.14C135.719 124.201 137.615 127.525 139.09 131.039C140.563 134.525 141.79 138.11 142.761 141.767C142.869 142.097 142.906 142.447 142.869 142.792C142.833 143.138 142.725 143.472 142.552 143.773C142.379 144.074 142.144 144.336 141.863 144.542C141.583 144.747 141.262 144.891 140.922 144.965C140.582 145.04 140.23 145.042 139.889 144.972C139.548 144.902 139.225 144.762 138.942 144.561C138.658 144.359 138.42 144.1 138.243 143.801C138.066 143.502 137.953 143.17 137.913 142.825C137.349 139.297 136.536 135.814 135.482 132.401C134.444 129.014 133 125.764 131.18 122.723C130.26 121.213 129.211 119.786 128.043 118.458C126.866 117.129 125.555 115.924 124.129 114.864C122.688 113.787 121.14 112.86 119.509 112.099C118.692 111.726 117.854 111.408 116.995 111.062C116.136 110.716 115.27 110.461 114.397 110.205C114.332 110.187 114.276 110.144 114.242 110.086C114.207 110.028 114.196 109.959 114.211 109.893C114.226 109.827 114.266 109.769 114.323 109.732C114.38 109.695 114.449 109.681 114.515 109.693L114.508 109.68Z" fill="#97AAE8"/>
<path d="M114.508 30.4908C115.416 30.6775 116.323 30.8848 117.217 31.1199C118.11 31.3549 119.004 31.6452 119.89 31.9563C121.659 32.5962 123.358 33.4137 124.961 34.3964C126.577 35.3901 128.086 36.5484 129.463 37.8526C130.837 39.1584 132.096 40.5807 133.224 42.1038C135.463 45.1666 137.323 48.4878 138.765 51.9955C140.189 55.4737 141.367 59.047 142.291 62.6891C142.37 62.9428 142.398 63.2101 142.371 63.4746C142.344 63.7392 142.263 63.9955 142.134 64.2281C142.005 64.4606 141.83 64.6646 141.619 64.8275C141.409 64.9905 141.167 65.1091 140.909 65.1762C140.652 65.2432 140.383 65.2572 140.119 65.2175C139.856 65.1777 139.603 65.0849 139.377 64.9448C139.15 64.8047 138.955 64.6201 138.802 64.4023C138.649 64.1844 138.542 63.9379 138.488 63.6776C138.488 63.6292 138.488 63.5808 138.453 63.5324C137.839 59.9959 136.981 56.506 135.884 53.0877C134.789 49.6957 133.292 46.4467 131.423 43.4102C130.476 41.9034 129.401 40.481 128.209 39.1591C127.014 37.8334 125.681 36.6378 124.233 35.5923C122.773 34.5353 121.209 33.6296 119.565 32.8895C118.734 32.5231 117.896 32.1982 117.037 31.8803C116.178 31.5623 115.305 31.3065 114.425 31.0508C114.392 31.0427 114.36 31.028 114.332 31.0076C114.305 30.9871 114.282 30.9612 114.264 30.9315C114.247 30.9018 114.235 30.8689 114.231 30.8347C114.226 30.8006 114.229 30.7659 114.238 30.7328C114.245 30.6662 114.277 30.6045 114.327 30.5598C114.377 30.5151 114.441 30.4905 114.508 30.4908Z" fill="#97AAE8"/>
<path d="M166.561 87.3869C165.688 87.6288 164.816 87.9053 163.964 88.2095C163.112 88.5136 162.281 88.9007 161.456 89.2394C159.831 89.9949 158.292 90.9219 156.864 92.0044C154.046 94.1917 151.674 96.8971 149.875 99.9745C148.068 103.054 146.615 106.329 145.546 109.735C144.468 113.155 143.615 116.642 142.99 120.173C142.958 120.418 142.876 120.655 142.749 120.868C142.622 121.081 142.453 121.266 142.253 121.412C142.052 121.559 141.824 121.663 141.582 121.718C141.34 121.774 141.089 121.78 140.845 121.736C140.6 121.692 140.368 121.598 140.16 121.462C139.953 121.326 139.776 121.149 139.639 120.942C139.502 120.735 139.409 120.503 139.364 120.259C139.32 120.015 139.326 119.765 139.382 119.523C139.378 119.479 139.378 119.435 139.382 119.392C140.294 115.771 141.439 112.213 142.81 108.74C144.192 105.254 145.965 101.935 148.095 98.8478C150.228 95.7297 152.939 93.0478 156.081 90.9469C157.65 89.9215 159.325 89.0664 161.075 88.3961C161.941 88.0713 162.828 87.774 163.714 87.5252C164.601 87.2763 165.508 87.062 166.409 86.8754C166.443 86.8684 166.478 86.8682 166.512 86.8748C166.547 86.8814 166.579 86.8948 166.608 86.9141C166.637 86.9334 166.662 86.9582 166.681 86.9872C166.701 87.0161 166.714 87.0486 166.721 87.0828C166.734 87.144 166.725 87.2079 166.696 87.2634C166.667 87.3189 166.619 87.3626 166.561 87.3869Z" fill="#97AAE8"/>
<path d="M164.497 242.703H104.458C103.335 242.723 102.229 242.979 101.211 243.454C100.194 243.929 99.2883 244.613 98.5532 245.461C97.8181 246.308 97.2702 247.301 96.945 248.374C96.6199 249.447 96.5248 250.577 96.666 251.689L104.763 320.91C104.96 322.842 105.863 324.633 107.298 325.944C108.734 327.254 110.603 327.992 112.548 328.016H156.407C158.353 327.991 160.222 327.253 161.658 325.943C163.095 324.633 163.999 322.842 164.199 320.91L172.289 251.689C172.432 250.576 172.337 249.447 172.013 248.373C171.688 247.3 171.14 246.306 170.405 245.458C169.669 244.61 168.763 243.927 167.745 243.452C166.727 242.977 165.621 242.722 164.497 242.703Z" fill="#494C7F"/>
<path d="M127.203 232.318H119.751C119.458 232.334 119.165 232.291 118.89 232.19C118.615 232.089 118.363 231.933 118.15 231.732C117.937 231.531 117.768 231.288 117.652 231.02C117.536 230.751 117.476 230.461 117.476 230.169C117.476 229.876 117.536 229.586 117.652 229.318C117.768 229.049 117.937 228.806 118.15 228.605C118.363 228.404 118.615 228.248 118.89 228.147C119.165 228.047 119.458 228.003 119.751 228.019H125.052V214.053H119.751C119.181 214.053 118.634 213.827 118.23 213.424C117.827 213.021 117.6 212.475 117.6 211.906C117.6 211.337 117.827 210.791 118.23 210.388C118.634 209.986 119.181 209.76 119.751 209.76H127.203C127.773 209.76 128.321 209.986 128.724 210.388C129.127 210.791 129.354 211.337 129.354 211.906V230.172C129.352 230.741 129.125 231.286 128.722 231.688C128.319 232.09 127.773 232.317 127.203 232.318Z" fill="#FF6C00"/>
<path d="M97.8375 201.301H113.682C114.478 201.301 115.267 201.457 116.002 201.761C116.738 202.065 117.406 202.511 117.969 203.073C118.532 203.634 118.978 204.301 119.283 205.036C119.588 205.77 119.745 206.556 119.745 207.351V234.714C119.745 235.509 119.588 236.296 119.283 237.03C118.978 237.764 118.532 238.431 117.969 238.993C117.406 239.554 116.738 240 116.002 240.304C115.267 240.608 114.478 240.765 113.682 240.765H97.8375C97.0405 240.765 96.2513 240.608 95.515 240.304C94.7787 239.999 94.1097 239.553 93.5461 238.991C92.9826 238.428 92.5355 237.761 92.2305 237.026C91.9255 236.291 91.7686 235.503 91.7686 234.708V207.344C91.7694 206.55 91.927 205.763 92.2325 205.03C92.5379 204.296 92.9852 203.629 93.5488 203.068C94.1123 202.507 94.7811 202.062 95.517 201.759C96.2528 201.455 97.0414 201.3 97.8375 201.301Z" fill="#FF6C00"/>
<path d="M103.03 197.544C103.03 197.544 93.9842 193.883 96.7818 187.258C99.5794 180.633 109.758 181.508 103.971 171.925C110.949 175.758 111.999 184.313 106.577 186.408C101.154 188.504 100.879 193.788 103.03 197.544Z" fill="white"/>
<path d="M111.557 197.544C111.557 197.544 105.155 194.937 107.114 190.229C109.073 185.52 116.339 186.14 112.235 179.31C117.197 182.045 117.946 188.12 114.092 189.609C110.238 191.098 109.995 194.867 111.557 197.544Z" fill="white"/>
<path d="M130.762 253.453H-14.239C-15.0949 253.453 -15.9423 253.285 -16.733 252.958C-17.5237 252.631 -18.2421 252.152 -18.8473 251.548C-19.4525 250.944 -19.9325 250.227 -20.26 249.438C-20.5875 248.649 -20.7561 247.803 -20.7561 246.949C-20.7561 245.224 -20.0695 243.57 -18.8473 242.35C-17.6251 241.13 -15.9675 240.445 -14.239 240.445H130.762C132.491 240.445 134.149 241.13 135.371 242.35C136.593 243.57 137.28 245.224 137.28 246.949C137.28 247.803 137.111 248.649 136.783 249.438C136.456 250.227 135.976 250.944 135.371 251.548C134.766 252.152 134.047 252.631 133.256 252.958C132.466 253.285 131.618 253.453 130.762 253.453Z" fill="#95ADF5"/>
<path d="M2.96269 251.159H-5.43652V347.56H2.96269V251.159Z" fill="#95ADF5"/>
<path d="M121.96 251.159H113.561V347.56H121.96V251.159Z" fill="#95ADF5"/>
<path d="M77.1407 230.581V237.327H78.9844C79.1968 237.327 79.4073 237.368 79.6038 237.448C79.8002 237.529 79.9788 237.647 80.1293 237.797C80.2798 237.946 80.3992 238.124 80.4807 238.32C80.5621 238.516 80.6041 238.725 80.6041 238.937V239.212C80.6041 239.424 80.5621 239.634 80.4807 239.83C80.3992 240.025 80.2798 240.203 80.1293 240.353C79.9788 240.502 79.8002 240.621 79.6038 240.701C79.4073 240.782 79.1968 240.823 78.9844 240.822H0.54278C0.0436056 240.822 -0.43512 240.624 -0.788089 240.272C-1.14106 239.92 -1.33936 239.442 -1.33936 238.944V229.226C-1.33936 228.728 -1.14106 228.25 -0.788089 227.898C-0.43512 227.546 0.0436056 227.348 0.54278 227.348H78.9844C79.414 227.348 79.826 227.518 80.1297 227.821C80.4334 228.124 80.6041 228.536 80.6041 228.964C80.6041 229.393 80.4334 229.804 80.1297 230.107C79.826 230.41 79.414 230.581 78.9844 230.581H77.1407Z" fill="#FF6C00"/>
<path d="M77.3777 237.321H10.7986C10.355 237.322 9.91565 237.235 9.50558 237.067C9.09552 236.898 8.72284 236.65 8.40887 236.337C8.09491 236.024 7.84584 235.653 7.67589 235.244C7.50594 234.835 7.41846 234.397 7.41846 233.954C7.41762 233.511 7.50447 233.072 7.67404 232.662C7.84361 232.252 8.09256 231.88 8.40661 231.567C8.72065 231.253 9.09362 231.005 9.5041 230.836C9.91458 230.667 10.3545 230.58 10.7986 230.581H77.3777V237.321Z" fill="white"/>
<path d="M-8.27891 216.014V223.476H-10.1162C-10.5686 223.499 -10.9933 223.701 -11.297 224.036C-11.6007 224.372 -11.7585 224.814 -11.7359 225.265V225.565C-11.7568 226.016 -11.5982 226.456 -11.2946 226.79C-10.9911 227.124 -10.5675 227.325 -10.1162 227.348H68.3254C68.8502 227.32 69.3426 227.086 69.6952 226.697C70.0478 226.308 70.232 225.795 70.2076 225.272V214.519C70.232 213.995 70.0478 213.483 69.6952 213.094C69.3426 212.705 68.8502 212.471 68.3254 212.443H-10.1162C-10.5675 212.466 -10.9911 212.666 -11.2946 213C-11.5982 213.335 -11.7568 213.775 -11.7359 214.225C-11.7585 214.677 -11.6007 215.119 -11.297 215.454C-10.9933 215.79 -10.5686 215.991 -10.1162 216.014H-8.27891Z" fill="#92B5F8"/>
<path d="M-8.50928 223.476H57.7305C58.722 223.476 59.673 223.083 60.3741 222.384C61.0752 221.684 61.4691 220.735 61.4691 219.745C61.47 219.255 61.3739 218.77 61.1863 218.317C60.9987 217.863 60.7233 217.452 60.376 217.105C60.0287 216.759 59.6162 216.484 59.1622 216.297C58.7082 216.109 58.2217 216.013 57.7305 216.014H-8.50928V223.476Z" fill="white"/>
<path d="M65.8478 205.536H0.721958C-0.0747247 205.536 -0.863593 205.38 -1.59955 205.075C-2.33551 204.771 -3.00412 204.325 -3.56717 203.762C-4.13021 203.2 -4.57664 202.532 -4.88093 201.797C-5.18522 201.062 -5.34141 200.275 -5.34057 199.48C-5.34057 197.875 -4.70184 196.336 -3.5649 195.202C-2.42795 194.067 -0.885926 193.43 0.721958 193.43H65.8478C67.4557 193.43 68.9977 194.067 70.1347 195.202C71.2716 196.336 71.9103 197.875 71.9103 199.48C71.9112 200.275 71.755 201.062 71.4507 201.797C71.1464 202.532 70.7 203.2 70.1369 203.762C69.5739 204.325 68.9053 204.771 68.1693 205.075C67.4333 205.38 66.6445 205.536 65.8478 205.536Z" fill="#FF6C00"/>
<path d="M73.4916 212.443H3.16749C2.24836 212.441 1.36744 212.076 0.718112 211.426C0.068784 210.777 -0.2959 209.897 -0.295898 208.98C-0.295898 208.063 0.0689913 207.184 0.718503 206.536C1.36801 205.888 2.24895 205.524 3.16749 205.524H73.4916C74.4107 205.524 75.2923 205.888 75.9429 206.536C76.5934 207.184 76.9597 208.063 76.9614 208.98C76.9614 209.898 76.5958 210.779 75.9451 211.429C75.2944 212.078 74.4119 212.443 73.4916 212.443Z" fill="#768FDB"/>
<path d="M338.269 281.035C334.139 293.798 326.31 305.052 315.772 313.374C305.234 321.696 292.459 326.713 279.064 327.789C265.669 328.866 252.254 325.954 240.517 319.423C228.78 312.891 219.247 303.033 213.124 291.094C207.001 279.155 204.563 265.673 206.119 252.352C207.674 239.03 213.152 226.469 221.862 216.255C230.571 206.041 242.119 198.633 255.047 194.97C267.974 191.306 281.7 191.55 294.488 195.671C311.637 201.197 325.883 213.295 334.094 229.304C342.304 245.313 343.806 263.921 338.269 281.035Z" fill="#7C9AF2"/>
<path d="M326.723 277.288C324.22 285.004 320.059 292.082 314.532 298.028C309.004 303.974 302.243 308.644 294.721 311.713C287.198 314.782 279.095 316.176 270.977 315.796C262.858 315.417 254.921 313.275 247.718 309.518C243.123 307.129 238.887 304.106 235.135 300.539C233.739 299.203 232.412 297.796 231.16 296.324C222.182 285.813 217.437 272.349 217.843 258.544C218.25 244.739 223.78 231.576 233.361 221.61C242.942 211.644 255.891 205.584 269.695 204.606C283.499 203.628 297.176 207.802 308.071 216.318C317.05 223.361 323.651 232.981 326.986 243.882C330.32 254.782 330.229 266.441 326.723 277.288Z" fill="#92B5F8"/>
<path d="M308.071 216.346L231.16 296.352C221.881 285.494 217.122 271.502 217.863 257.251L268.374 204.688C282.61 203.367 296.813 207.532 308.071 216.327V216.346Z" fill="#A7C1E9"/>
<path d="M321.936 232.323L247.718 309.528C243.122 307.138 238.886 304.116 235.135 300.549L312.427 220.145C316.148 223.743 319.349 227.842 321.936 232.323Z" fill="#A7C1E9"/>
<path d="M277.352 207.236C270.758 206.542 269.556 207.193 266.595 213.03C267.332 206.528 266.679 205.325 260.789 202.289C267.36 202.983 268.585 202.332 271.546 196.495C270.857 203.076 271.504 204.28 277.352 207.236Z" fill="white"/>
<path d="M254.04 311.851C248.479 311.27 247.47 311.818 244.963 316.741C245.583 311.256 245.038 310.24 240.063 307.682C245.63 308.263 246.634 307.715 249.145 302.792C248.535 308.343 249.084 309.359 254.04 311.851Z" fill="white"/>
<path d="M573.037 177.534L561.177 142.685C561.177 142.685 539.911 140.994 526.248 163.646C517.8 177.697 496.21 182.128 496.21 182.128L508.132 217.16C508.132 217.16 535.743 214.485 545.154 198.274C555.123 181.107 573.037 177.534 573.037 177.534Z" fill="#D4DEFF"/>
<path d="M522.676 189.215C527.576 194.939 536.977 194.953 543.67 189.248C550.363 183.543 551.818 174.26 546.918 168.545C542.018 162.831 532.612 162.807 525.919 168.512C519.226 174.217 517.776 183.487 522.676 189.215Z" fill="#E3EAFF"/>
<path d="M405.563 198.263L377.956 185.345C377.277 186.787 376.598 188.232 375.919 189.677C374.933 191.771 380.354 196.38 388.019 199.982C395.683 203.584 402.695 204.778 403.681 202.685C403.77 202.479 405.563 198.263 405.563 198.263Z" fill="#C2D0FF"/>
<path d="M405.61 198.582C404.624 200.675 397.631 199.462 389.948 195.874C382.264 192.286 376.862 187.677 377.848 185.57C378.834 183.462 385.827 184.689 393.51 188.277C401.193 191.865 406.591 196.483 405.61 198.582Z" fill="#D4DEFF"/>
<path d="M441.097 258.1L412.556 268.812L414.246 273.29C415.062 275.459 422.15 274.803 430.072 271.829C437.995 268.854 443.763 264.686 442.946 262.522C442.871 262.325 441.097 258.1 441.097 258.1Z" fill="#C2D0FF"/>
<path d="M441.349 258.283C442.161 260.447 436.398 264.611 428.475 267.585C420.553 270.559 413.456 271.215 412.644 269.051C411.832 266.887 417.596 262.719 425.518 259.744C433.441 256.77 440.533 256.119 441.349 258.283Z" fill="#D4DEFF"/>
</svg>
