<svg width="60" height="60" viewBox="0 0 60 60" fill="none" xmlns="http://www.w3.org/2000/svg">
<path d="M51.5709 41.2847L43.1229 32.8367L47.2661 28.6935C47.6251 28.3345 47.7726 27.8153 47.656 27.3211C47.5393 26.827 47.1752 26.4286 46.6935 26.268L21.8344 17.9816C21.3081 17.8061 20.7277 17.9431 20.3354 18.3355C19.943 18.7279 19.806 19.3082 19.9815 19.8345L28.2679 44.6938C28.4285 45.1754 28.827 45.5396 29.321 45.6562C29.8151 45.7731 30.3344 45.6254 30.6934 45.2663L34.8366 41.1232L43.2847 49.5711C43.5707 49.8571 43.9456 50.0002 44.3204 50.0002C44.6952 50.0002 45.0702 49.8572 45.3561 49.5711L51.571 43.3563C52.1431 42.7842 52.1431 41.8568 51.5709 41.2847ZM44.3203 46.4637L35.8723 38.0157C35.3003 37.4437 34.3727 37.4437 33.8007 38.0157L30.2977 41.5188L23.6872 21.6875L43.5186 28.2979L40.0155 31.8009C39.4439 32.3724 39.4435 33.3005 40.0155 33.8725L48.4636 42.3205L44.3203 46.4637Z" fill="#18191F" fill-opacity="0.87"/>
<path d="M21.043 11.7187C21.852 11.7187 22.5078 11.0629 22.5078 10.2539V1.46484C22.5078 0.655858 21.852 0 21.043 0C20.234 0 19.5781 0.655858 19.5781 1.46484V10.2539C19.5781 11.0629 20.234 11.7187 21.043 11.7187Z" fill="white"/>
<path d="M9.64883 5.57761C9.07685 5.00554 8.14932 5.00554 7.57725 5.57761C7.00518 6.14968 7.00518 7.07712 7.57725 7.64919L13.7921 13.864C14.3641 14.4361 15.2917 14.4361 15.8637 13.864C16.4357 13.292 16.4357 12.3645 15.8637 11.7924L9.64883 5.57761Z" fill="white"/>
<path d="M13.7921 24.2219L7.57725 30.4367C7.00518 31.0088 7.00518 31.9362 7.57725 32.5083C8.14922 33.0804 9.07685 33.0804 9.64883 32.5083L15.8637 26.2935C16.4357 25.7214 16.4357 24.794 15.8637 24.2219C15.2916 23.6498 14.3641 23.6498 13.7921 24.2219Z" fill="white"/>
<path d="M28.2938 13.864L34.5087 7.64919C35.0807 7.07712 35.0807 6.14968 34.5087 5.57761C33.9367 5.00554 33.0092 5.00554 32.4371 5.57761L26.2223 11.7924C25.6502 12.3645 25.6502 13.292 26.2223 13.864C26.7942 14.4361 27.7219 14.4361 28.2938 13.864Z" fill="white"/>
<path d="M13.7187 19.043C13.7187 18.234 13.0629 17.5781 12.2539 17.5781H3.46484C2.65586 17.5781 2 18.234 2 19.043C2 19.852 2.65586 20.5078 3.46484 20.5078H12.2539C13.0629 20.5078 13.7187 19.852 13.7187 19.043Z" fill="white"/>
</svg>
