<svg width="72" height="102" viewBox="0 0 72 102" fill="none" xmlns="http://www.w3.org/2000/svg">
  <path d="M61.4331 18.0221C61.0371 17.7789 60.7315 17.3883 60.6072 16.9028C60.3539 15.9129 60.9512 14.9068 61.9416 14.6556L65.1423 13.8435C66.1321 13.5931 67.1402 14.1916 67.3934 15.1815C67.6471 16.1705 67.0493 17.1775 66.0595 17.4279L62.8587 18.24C62.3541 18.3678 61.845 18.2751 61.4331 18.0221Z" fill="#7C9AF2" />
  <path d="M13.8855 95.4315C13.4894 95.1883 13.1844 94.7969 13.0595 94.3122C12.8063 93.3223 13.4036 92.3162 14.3939 92.065L17.5947 91.2529C18.5845 91.0025 19.5931 91.6002 19.8463 92.5901C20.0995 93.5799 19.5022 94.586 18.5119 94.8373L15.3111 95.6493C14.8065 95.7772 14.2973 95.6845 13.8855 95.4315Z" fill="#FFAA00" />
  <path d="M-4.02814 30.0679L-10.8504 29.6904C-12.6196 29.5927 -13.4596 27.4791 -12.2718 26.1137L-7.69245 20.8513C-7.2205 20.3091 -7.03653 19.574 -7.2007 18.8841L-8.79344 12.1857C-9.20676 10.4489 -7.46139 8.93653 -5.83917 9.62695L0.411641 12.2883C1.05612 12.5626 1.79912 12.4953 2.40044 12.1071L8.23852 8.34555C9.7525 7.37072 11.671 8.54911 11.486 10.3403L10.7696 17.2477C10.6961 17.9601 10.9719 18.6533 11.5072 19.1036L16.708 23.4762C18.0564 24.6105 17.4967 26.8511 15.7606 27.2677L9.06665 28.8761C8.37705 29.0416 7.80372 29.5375 7.53353 30.2036L4.91017 36.6675C4.23014 38.3448 1.96519 38.5512 1.07812 37.0173L-2.34313 31.1029C-2.69558 30.4933 -3.32589 30.1061 -4.02814 30.0679Z" fill="#FFD02F" />
  <path d="M31.8108 37.2636C31.4148 37.0204 31.1092 36.6298 30.9857 36.1448C30.7325 35.1549 31.3298 34.1488 32.3201 33.8976L59.9491 26.8879C60.9394 26.6366 61.9475 27.2352 62.2007 28.2251C62.4539 29.2149 61.8566 30.221 60.8663 30.4723L33.2364 37.4815C32.7318 37.6093 32.2227 37.5166 31.8108 37.2636Z" fill="#FFAA00" />
  <path d="M22.4948 39.643C22.0863 39.392 21.7752 38.9843 21.6594 38.4811L21.6526 38.4529C21.4227 37.4567 22.0442 36.4655 23.0395 36.2379C24.0362 36.01 25.0294 36.6327 25.2589 37.6275L25.2657 37.6557C25.4947 38.6514 24.874 39.6431 23.8779 39.8702C23.3861 39.983 22.8942 39.8883 22.4948 39.643Z" fill="#FF4E61" />
  <path d="M16.4182 41.1849C16.0064 40.9319 15.6935 40.5196 15.5794 40.0118L15.5726 39.9835C15.3498 38.9871 15.9763 37.9989 16.9737 37.7772C17.9711 37.5555 18.9608 38.184 19.1849 39.1801L19.1917 39.2084C19.4145 40.2048 18.788 41.1929 17.7906 41.4146C17.3013 41.5232 16.8143 41.4281 16.4182 41.1849Z" fill="#FFAA00" />
  <path d="M35.1487 6.66001C34.8835 6.49716 34.656 6.26569 34.4964 5.97398C34.0041 5.07794 34.3315 3.95417 35.227 3.46471L60.4031 -10.3087C61.2986 -10.7981 62.423 -10.4696 62.9153 -9.57351C63.4076 -8.67747 63.0802 -7.5537 62.1848 -7.06425L37.0086 6.70912C36.4054 7.03882 35.6973 6.99699 35.1487 6.66001Z" fill="#62D38F" />
  <path d="M26.6646 11.3176C26.3886 11.1481 26.1541 10.9055 25.9928 10.5978L25.9796 10.5725C25.5065 9.66767 25.8562 8.55069 26.7624 8.07928C27.6683 7.60653 28.7858 7.95947 29.2597 8.86486L29.2729 8.89015C29.7468 9.79554 29.3964 10.912 28.491 11.3839C27.8919 11.6956 27.2015 11.6474 26.6646 11.3176Z" fill="#FFAA00" />
  <path d="M21.1271 14.3468C20.8495 14.1763 20.6135 13.9305 20.4532 13.6211L20.4401 13.5959C19.9699 12.6882 20.3242 11.5729 21.231 11.1042C22.1387 10.636 23.255 10.9928 23.7258 11.8996L23.7389 11.9249C24.2091 12.8326 23.8548 13.9479 22.9471 14.4161C22.3501 14.7244 21.6616 14.6751 21.1271 14.3468Z" fill="#2DC471" />
  <path d="M0.334999 1.57567C-0.198603 1.24791 -0.553262 0.658742 -0.549539 -0.0128625C-0.544492 -1.03435 0.288395 -1.85565 1.30996 -1.84933L1.33848 -1.84901C2.3612 -1.84084 3.18519 -1.00809 3.18014 0.0134003C3.17426 1.03438 2.3422 1.85618 1.3198 1.84936L1.29129 1.84904C0.94026 1.84659 0.613473 1.74672 0.334999 1.57567Z" fill="#FFAA00" />
  <path d="M25.3309 71.2174L20.4996 71.6537C19.2467 71.7678 18.445 70.3791 19.1426 69.3051L21.8344 65.1639C22.1115 64.737 22.1672 64.2051 21.9831 63.7402L20.1937 59.2315C19.7295 58.0616 20.8045 56.8275 22.0132 57.1424L26.6725 58.3585C27.1517 58.4832 27.6686 58.3595 28.0517 58.0275L31.7769 54.8042C32.7433 53.9675 34.21 54.5933 34.2586 55.8621L34.4464 60.7554C34.4664 61.2594 34.7294 61.7155 35.1505 61.9741L39.2427 64.4911C40.3044 65.1444 40.1354 66.7655 38.9564 67.2343L34.4137 69.0421C33.9453 69.2288 33.5919 69.6341 33.4689 70.1259L32.2725 74.9059C31.9615 76.1451 30.3905 76.5211 29.6139 75.5421L26.6185 71.7665C26.3106 71.378 25.8292 71.1728 25.3309 71.2174Z" fill="#FFD02F" />
  <path d="M-24.9311 85.7382C-25.8024 85.2031 -26.0756 84.0645 -25.5415 83.1949C-18.0531 71.0035 -8.11715 65.7546 -1.10054 63.4975C6.5288 61.0448 12.3641 61.4923 12.6092 61.5121C13.628 61.5958 14.387 62.4895 14.3036 63.5076C14.2213 64.5241 13.3308 65.2802 12.3123 65.1978C12.2247 65.191 6.82032 64.8065 -0.115496 67.0686C-9.38847 70.0921 -16.8813 76.17 -22.3866 85.1328C-22.9207 86.0024 -24.0598 86.2734 -24.9311 85.7382Z" fill="#FF6C00" />
  <path d="M7.41198 86.4788C8.88861 84.0748 8.19053 80.9619 5.85269 79.526C3.51402 78.0895 0.421852 78.8742 -1.05478 81.2783C-2.5314 83.6823 -1.83333 86.7951 0.505347 88.2316C2.84319 89.6676 5.93535 88.8828 7.41198 86.4788Z" fill="#7C9AF2" />
  <path d="M44.1959 22.8356C45.3802 20.9075 44.8198 18.4099 42.9447 17.2581C41.0696 16.1063 38.5884 16.7358 37.4042 18.6638C36.2199 20.5919 36.7808 23.0887 38.6559 24.2405C40.531 25.3922 43.0116 24.7636 44.1959 22.8356Z" fill="#FF4E61" />
</svg>
