<svg width="83" height="126" viewBox="0 0 83 126" fill="none" xmlns="http://www.w3.org/2000/svg">
  <g opacity="0.2">
    <path d="M70.2741 69.1512C69.921 69.4518 69.4536 69.6214 68.9542 69.5887C67.9346 69.5231 67.1628 68.6437 67.231 67.625L67.4495 64.3301C67.5171 63.3106 68.3975 62.538 69.4171 62.6036C70.4368 62.6692 71.2086 63.5486 71.141 64.568L70.9225 67.863C70.8879 68.3823 70.6422 68.8378 70.2741 69.1512Z" fill="#FF4E61" />
    <path d="M40.545 87.7796C40.1919 88.0803 39.7252 88.2506 39.2258 88.2179C38.2061 88.1523 37.4343 87.2729 37.5019 86.2535L37.7204 82.9585C37.7886 81.9398 38.6698 81.1665 39.6894 81.2321C40.7083 81.2984 41.4802 82.1778 41.4119 83.1965L41.1934 86.4914C41.1588 87.0108 40.9131 87.4663 40.545 87.7796Z" fill="#FFAA00" />
    <path d="M57.7519 127.605C57.3987 127.906 56.9321 128.076 56.4326 128.043C55.413 127.978 54.6412 127.098 54.7088 126.079L54.9265 122.785C54.9941 121.765 55.8753 120.992 56.8949 121.057C57.9146 121.123 58.6864 122.002 58.6188 123.022L58.4003 126.317C58.3664 126.836 58.1199 127.292 57.7519 127.605Z" fill="#2DC471" />
    <path d="M96.604 94.4187L94.1335 100.789C93.493 102.441 91.2232 102.586 90.2925 101.034L86.7059 95.0504C86.3364 94.4338 85.6943 94.0313 84.9875 93.9739L78.1251 93.4152C76.3455 93.2706 75.4477 91.1429 76.6063 89.814L81.0717 84.6939C81.5321 84.166 81.698 83.4386 81.515 82.7466L79.7451 76.031C79.2868 74.2896 81.0011 72.8301 82.6471 73.5604L88.9936 76.3795C89.6482 76.67 90.3928 76.6222 90.9866 76.2526L96.7543 72.6606C98.2502 71.7295 100.207 72.9552 100.066 74.735L99.5238 81.5981C99.4678 82.305 99.7619 83.0037 100.312 83.4668L105.646 87.962C107.031 89.1278 106.526 91.3454 104.793 91.7142L98.1097 93.1368C97.421 93.2833 96.8577 93.7628 96.604 94.4187Z" fill="#FFD02F" />
    <path d="M64.2748 106.315C63.9068 106.628 63.4179 106.798 62.8997 106.749L34.5205 104.073C33.5033 103.977 32.7576 103.076 32.8561 102.06C32.954 101.042 33.858 100.296 34.8745 100.391L63.2544 103.067C64.271 103.162 65.0166 104.065 64.9181 105.081C64.8699 105.58 64.6287 106.014 64.2748 106.315Z" fill="#FF4E61" />
    <path d="M73.8454 107.232C73.49 107.534 73.0213 107.704 72.5192 107.67C71.4998 107.601 70.731 106.719 70.8013 105.7L70.8037 105.671C70.8746 104.653 71.7577 103.882 72.7777 103.951C73.7972 104.019 74.566 104.901 74.4949 105.921L74.4933 105.949C74.4568 106.466 74.2119 106.92 73.8454 107.232Z" fill="#FFAA00" />
    <path d="M80.0868 107.82C79.7329 108.122 79.2663 108.291 78.7661 108.258C77.7472 108.192 76.9754 107.313 77.0436 106.294L77.0446 106.265C77.1129 105.245 77.9947 104.472 79.0136 104.539C80.0333 104.604 80.8051 105.484 80.7375 106.503L80.7351 106.532C80.7006 107.051 80.4548 107.507 80.0868 107.82Z" fill="#5C73BC" />
    <path d="M86.4714 49.9206C86.2344 50.1223 85.9439 50.2671 85.6171 50.3285C84.6127 50.5193 83.6454 49.8602 83.4572 48.8572L78.1526 20.6543C77.9644 19.6513 78.6248 18.6837 79.6292 18.4929C80.6337 18.3021 81.6009 18.9613 81.7892 19.9643L87.0937 48.1672C87.2205 48.8429 86.9616 49.5033 86.4714 49.9206Z" fill="#62D38F" />
    <path d="M55.8239 76.0131C55.3336 76.4305 54.6404 76.5807 53.993 76.347L26.9981 66.6119C26.0374 66.2653 25.5416 65.206 25.8894 64.2455C26.238 63.2844 27.2987 62.7854 28.2594 63.132L55.2543 72.8671C56.215 73.2137 56.7114 74.2738 56.3636 75.2342C56.25 75.5477 56.0608 75.8114 55.8239 76.0131Z" fill="#5C73BC" />
    <path d="M64.9237 79.3099C64.4454 79.7171 63.7712 79.8717 63.1332 79.6582C62.1652 79.3332 61.645 78.2844 61.9712 77.3167L61.9811 77.289C62.3081 76.3207 63.3567 75.7985 64.3248 76.1235C65.2936 76.4479 65.8131 77.4958 65.4868 78.465L65.4777 78.492C65.3663 78.8215 65.171 79.0993 64.9237 79.3099Z" fill="#FF4E61" />
    <path d="M70.8614 81.4511C70.3846 81.8571 69.7146 82.0119 69.0771 81.8005C68.1073 81.4796 67.5842 80.4334 67.9064 79.4639L67.9155 79.4369C68.2398 78.4669 69.2867 77.9412 70.2565 78.2621C71.2255 78.5837 71.7494 79.6293 71.4265 80.5994L71.4173 80.6264C71.3064 80.9594 71.1102 81.2392 70.8614 81.4511Z" fill="#FFAA00" />
    <path d="M94.2311 135.464L99.0042 136.524C100.243 136.799 101.218 135.536 100.655 134.388L98.485 129.96C98.2619 129.505 98.2732 128.973 98.5158 128.54L100.869 124.334C101.48 123.243 100.561 121.888 99.3144 122.041L94.5064 122.63C94.0112 122.69 93.5113 122.501 93.1694 122.126L89.8509 118.466C88.9912 117.517 87.447 117.941 87.2392 119.184L86.4371 123.976C86.354 124.47 86.0339 124.885 85.5807 125.085L81.1758 127.029C80.0336 127.534 79.9985 129.151 81.1171 129.766L85.4298 132.139C85.8739 132.383 86.1761 132.829 86.2374 133.329L86.8327 138.19C86.9875 139.451 88.5088 140.026 89.409 139.163L92.8755 135.837C93.2328 135.495 93.74 135.355 94.2311 135.464Z" fill="#FFD02F" />
    <path d="M70.5683 43.5002C68.7394 41.352 65.5625 41.0529 63.4735 42.8315C61.3836 44.6107 61.1728 47.7939 63.0017 49.9421C64.8306 52.0903 68.0074 52.3908 70.0972 50.6115C72.1863 48.833 72.3972 45.6484 70.5683 43.5002Z" fill="#FFD02F" />
    <path d="M73.7655 117.1C72.2987 115.377 69.7516 115.137 68.0753 116.564C66.3997 117.991 66.2304 120.543 67.6972 122.266C69.164 123.989 71.7117 124.23 73.3873 122.803C75.0636 121.376 75.2323 118.823 73.7655 117.1Z" fill="#5C73BC" />
    <path d="M53.0867 45.4116C51.6192 43.688 49.0722 43.4479 47.3966 44.8744C45.7203 46.3016 45.5509 48.8544 47.0184 50.578C48.4852 52.3008 51.0323 52.541 52.7086 51.1138C54.3842 49.6872 54.5535 47.1345 53.0867 45.4116Z" fill="#FF4E61" />
    <path d="M42.218 60.035C41.8641 60.3363 41.3981 60.5059 40.8973 60.4732C39.8777 60.4076 39.1065 59.5289 39.1741 58.5095L39.3926 55.2145C39.4602 54.1951 40.3414 53.4218 41.3603 53.488C42.3799 53.5536 43.1517 54.433 43.0841 55.4525L42.8663 58.7468C42.8318 59.2661 42.5853 59.7223 42.218 60.035Z" fill="#FF4E61" />
  </g>
</svg>
