<svg width="159" height="159" viewBox="0 0 159 159" fill="none" xmlns="http://www.w3.org/2000/svg">
<g clip-path="url(#clip0)">
<path d="M28.0764 74.5426V145.027C28.0764 152.744 34.3321 159 42.0491 159H74.6521L83.9673 107.145L74.6521 74.5426H28.0764Z" fill="#FF7816"/>
<path d="M102.598 74.5426L93.2825 107.146L102.598 159H135.201C142.918 159 149.173 152.744 149.173 145.027V74.5426H102.598Z" fill="#FF4B00"/>
<path d="M102.597 74.543H74.6519V159H102.597V74.543Z" fill="#76E2F8"/>
<path d="M83.1288 1.5739C76.9812 4.18187 72.696 9.67792 71.6715 16.1988L69.5293 29.5501L58.8167 20.0483C53.7868 15.5774 46.9868 14.1799 40.6523 16.1364C26.587 20.5147 22.7676 38.4929 33.6659 48.2736C38.8825 52.9311 46.1486 54.328 52.7623 51.9992L67.0142 46.7826L74.6527 43.988L96.8226 35.884C103.437 33.5552 108.094 27.6868 109.119 20.7936C111.167 6.3557 96.6357 -4.10878 83.1288 1.5739ZM49.5948 43.2436C46.148 44.4538 42.5152 43.7095 39.9073 41.2872C34.2246 36.2573 36.3677 27.2213 43.4469 25.0789C46.5207 24.0537 50.0603 24.7059 52.6689 27.0347L64.6851 37.6538L49.5948 43.2436ZM99.8964 19.4899C99.3374 23.0296 97.0087 25.9173 93.6551 27.1285L78.5647 32.6248L80.8935 17.5962C81.4525 14.2426 83.5952 11.5418 86.669 10.2375C93.469 7.34945 100.921 12.0378 99.8964 19.4899Z" fill="#25D9F8"/>
<path d="M84.2945 30.5549L62.2051 38.5975L84.2958 30.5583L84.2945 30.5549Z" fill="black"/>
<path d="M102.597 74.543H88.6243V159H102.597V74.543Z" fill="#25D9F8"/>
<path d="M69.5289 29.5501L58.8162 20.0483C53.7863 15.5774 46.9863 14.1799 40.6518 16.1363C26.5865 20.5147 22.7671 38.4929 33.6654 48.2736C38.882 52.9311 46.1481 54.328 52.7618 51.9992L67.0137 46.7826L74.6522 43.988L69.5289 29.5501ZM49.5946 43.2436C46.1478 44.4538 42.5151 43.7095 39.9071 41.2872C34.2244 36.2573 36.3675 27.2213 43.4467 25.0788C46.5205 24.0537 50.0601 24.7059 52.6687 27.0347L64.685 37.6538L49.5946 43.2436Z" fill="#76E2F8"/>
<path d="M149.559 46.4561L141.591 24.5735C140.313 21.0668 137.747 18.2651 134.368 16.6866C130.997 15.113 127.204 14.9537 123.684 16.2226L84.2957 30.5583L80.8157 46.5968L97.0343 65.5718L149.559 46.4561Z" fill="#FF7816"/>
<path d="M58.0368 40.1157L18.6431 54.4521C15.1364 55.73 12.3346 58.2954 10.7561 61.6751C9.17793 65.0591 9.01427 68.8524 10.2922 72.3591L18.2564 94.2415L70.777 75.1245L74.011 58.4137L58.0368 40.1157Z" fill="#FF9F00"/>
<path d="M97.034 65.5719L88.7732 68.5783L97.0346 65.5731L97.034 65.5719Z" fill="black"/>
<path d="M97.0083 65.5998L83.8738 70.3505L70.7395 75.1013L58.0708 40.0763L62.1694 38.586L71.4845 35.2324L84.3396 30.5748L97.0083 65.5998Z" fill="#76E2F8"/>
<path d="M83.8738 70.3505L70.7395 75.1013L58.0708 40.0763L62.1694 38.586L71.4845 35.2324L83.8738 70.3505Z" fill="#A8EBFA"/>
</g>
<defs>
<clipPath id="clip0">
<rect width="159" height="159" fill="white"/>
</clipPath>
</defs>
</svg>
