<svg width="691" height="598" viewBox="0 0 691 598" fill="none" xmlns="http://www.w3.org/2000/svg">
<path d="M290.275 133.812C294.206 138.195 296.747 143.644 297.575 149.468C298.403 155.293 297.482 161.231 294.928 166.533C292.374 171.835 288.302 176.262 283.226 179.254C278.151 182.246 272.301 183.669 266.415 183.343C260.529 183.016 254.873 180.955 250.161 177.42C245.449 173.885 241.894 169.035 239.944 163.483C237.995 157.932 237.739 151.928 239.209 146.231C240.678 140.534 243.808 135.4 248.202 131.478C254.092 126.22 261.833 123.512 269.723 123.95C277.613 124.387 285.006 127.935 290.275 133.812Z" fill="#D4DEFF"/>
<path d="M282.025 172.069L278.244 167.848C275.775 169.978 272.593 171.47 270.185 171.752L268.681 168.052C271.52 167.612 274.173 166.367 276.322 164.464C279.296 161.809 279.769 158.3 277.626 155.918C275.566 153.619 272.658 153.654 268.437 155.168C262.665 157.311 258.3 157.745 255.04 154.11C251.932 150.639 252.041 145.802 255.332 141.733L251.55 137.491L254.158 135.17L257.766 139.226C259.69 137.536 262.015 136.365 264.521 135.825L265.951 139.521C263.504 139.997 261.237 141.136 259.396 142.813C256.175 145.689 256.683 148.7 258.183 150.37C260.13 152.539 262.656 152.244 267.646 150.496C273.536 148.401 277.644 148.631 280.995 152.348C283.955 155.649 284.425 160.803 280.752 165.362L284.664 169.7L282.025 172.069Z" fill="#E3EAFF"/>
<path d="M93.4212 355.259L82.4368 322.984C82.4368 322.984 62.7413 321.418 50.0877 342.396C42.2635 355.41 22.2681 359.514 22.2681 359.514L33.309 391.958C33.309 391.958 58.8814 389.481 67.5967 374.467C76.8294 358.568 93.4212 355.259 93.4212 355.259Z" fill="#D4DEFF"/>
<path d="M46.7792 366.077C51.3173 371.378 60.0239 371.392 66.2225 366.108C72.4211 360.824 73.7686 352.226 69.2305 346.934C64.6924 341.641 55.9814 341.62 49.7828 346.903C43.5843 352.187 42.2411 360.772 46.7792 366.077Z" fill="#E3EAFF"/>
<path d="M39.581 587.498C39.581 587.498 -39.066 510.733 25.3626 434.211C41.6979 414.824 75.6336 406.335 77.2028 381.035C80.4151 328.363 46.6577 289.113 82.6755 235.209C131.038 162.834 178.819 181.465 247.881 173.444C296.604 167.783 306.767 132.884 345.224 102.496C484.652 -7.68899 600.078 91.7685 671.805 163.146C725.558 216.638 774.985 132.68 854.519 241.781C903.408 308.842 857.279 344.917 853.65 389.928C849.738 438.514 900.665 461.939 907.077 493.398C918.483 549.415 895.879 586.475 895.879 586.475L39.581 587.498Z" fill="#E3EAFF"/>
<path d="M621.743 482.441C634.609 480.112 643.148 467.815 640.814 454.974C638.481 442.134 626.158 433.613 613.292 435.942C600.425 438.27 591.886 450.568 594.22 463.408C596.554 476.249 608.876 484.77 621.743 482.441Z" fill="white"/>
<path d="M609.671 475.855L611.244 471.638C608.836 470.697 606.606 469.01 605.528 467.422L607.58 464.997C608.94 466.826 610.799 468.227 612.935 469.031C615.904 470.138 618.551 469.17 619.456 466.793C620.325 464.494 619.208 462.455 616.582 460.065C612.935 456.807 611.018 453.905 612.375 450.274C613.679 446.803 617.117 445.094 621.199 445.897L622.777 441.68L625.385 442.648L623.876 446.695C625.776 447.419 627.46 448.613 628.771 450.165L626.693 452.534C625.454 450.994 623.813 449.825 621.951 449.155C618.73 447.957 616.8 449.428 616.174 451.098C615.365 453.267 616.508 454.928 619.586 457.787C623.242 461.14 624.607 464.125 623.22 467.838C621.99 471.14 618.534 473.374 613.961 472.48L612.34 476.818L609.671 475.855Z" fill="#E3EAFF"/>
<path d="M891.597 600H22.1194C20.878 600.001 19.6487 599.757 18.5017 599.283C17.3547 598.81 16.3124 598.115 15.4344 597.239C14.5564 596.364 13.86 595.324 13.3848 594.179C12.9096 593.035 12.665 591.808 12.665 590.569C12.665 588.067 13.6611 585.667 15.4342 583.897C17.2072 582.128 19.6119 581.134 22.1194 581.134H891.597C894.105 581.134 896.509 582.128 898.282 583.897C900.055 585.667 901.051 588.067 901.051 590.569C901.051 591.808 900.807 593.035 900.332 594.179C899.857 595.324 899.16 596.364 898.282 597.239C897.404 598.115 896.362 598.81 895.215 599.283C894.068 599.757 892.838 600.001 891.597 600Z" fill="#95A6DB"/>
<path d="M426.7 152.192C423.881 158.617 419.216 164.063 413.295 167.842C407.375 171.621 400.464 173.563 393.438 173.423C386.411 173.283 379.584 171.066 373.819 167.053C368.055 163.041 363.613 157.412 361.053 150.88C358.494 144.348 357.933 137.205 359.442 130.355C360.951 123.504 364.461 117.254 369.529 112.395C374.597 107.535 380.995 104.285 387.914 103.054C394.833 101.823 401.962 102.668 408.4 105.48C412.675 107.348 416.54 110.038 419.773 113.397C423.006 116.755 425.545 120.716 427.245 125.054C428.944 129.391 429.771 134.02 429.677 138.677C429.584 143.333 428.572 147.926 426.7 152.192Z" fill="#7C9AF2"/>
<path d="M420.889 149.637C417.783 156.714 411.988 162.27 404.778 165.083C397.568 167.896 389.533 167.736 382.442 164.638C380.929 163.974 379.475 163.185 378.095 162.278C375.826 160.794 373.778 158.999 372.009 156.947C371.352 156.182 370.733 155.384 370.158 154.556C367.257 150.383 365.5 145.525 365.062 140.464C364.623 135.404 365.518 130.317 367.657 125.708C369.796 121.099 373.106 117.129 377.257 114.19C381.408 111.251 386.257 109.447 391.323 108.956C396.389 108.465 401.495 109.304 406.136 111.39C410.776 113.476 414.79 116.736 417.778 120.848C420.766 124.96 422.626 129.779 423.171 134.829C423.717 139.879 422.93 144.984 420.889 149.637Z" fill="#92B5F8"/>
<path d="M363.261 287.629C368.533 264.894 354.339 242.2 331.559 236.938C308.778 231.677 286.037 245.842 280.765 268.576C275.493 291.311 289.687 314.006 312.468 319.267C335.248 324.528 357.989 310.363 363.261 287.629Z" fill="#7C9AF2"/>
<path d="M353.873 292.032C352.042 296.207 349.404 299.981 346.111 303.139C342.818 306.296 338.934 308.776 334.681 310.435C330.428 312.095 325.889 312.902 321.323 312.811C316.757 312.72 312.254 311.732 308.071 309.905C303.292 307.818 299.043 304.687 295.639 300.743C294.857 299.826 294.123 298.877 293.44 297.897C288.493 290.824 286.362 282.166 287.464 273.61C288.566 265.055 292.82 257.216 299.399 251.621C305.977 246.026 314.407 243.076 323.046 243.347C331.685 243.618 339.914 247.09 346.127 253.085C346.992 253.91 347.814 254.778 348.588 255.688C352.777 260.647 355.492 266.677 356.427 273.096C357.361 279.515 356.476 286.067 353.873 292.01V292.032Z" fill="#92B5F8"/>
<path d="M656 322.697C652.641 330.352 647.083 336.841 640.028 341.344C632.974 345.846 624.74 348.16 616.368 347.993C607.996 347.825 599.862 345.184 592.994 340.403C586.126 335.622 580.833 328.915 577.785 321.132C574.736 313.349 574.068 304.838 575.866 296.677C577.664 288.515 581.847 281.068 587.886 275.279C593.924 269.49 601.548 265.617 609.792 264.152C618.036 262.686 626.53 263.693 634.2 267.045C644.485 271.541 652.56 279.93 656.648 290.366C660.736 300.803 660.503 312.432 656 322.697Z" fill="#7C9AF2"/>
<path d="M649.076 319.687C647.044 324.318 644.024 328.45 640.225 331.794C636.427 335.138 631.942 337.614 627.085 339.048C622.228 340.482 617.115 340.84 612.105 340.097C607.095 339.353 602.308 337.527 598.079 334.744C594.37 332.31 591.165 329.188 588.637 325.547C583.695 318.474 581.568 309.818 582.672 301.265C583.776 292.713 588.03 284.877 594.607 279.284C601.184 273.69 609.611 270.741 618.248 271.011C626.884 271.28 635.111 274.748 641.325 280.74C642.192 281.564 643.014 282.433 643.79 283.343C647.983 288.304 650.701 294.338 651.635 300.761C652.569 307.185 651.682 313.741 649.076 319.687Z" fill="#92B5F8"/>
<path d="M613.475 341.642C609.715 340.861 608.98 341.169 606.954 344.361C607.759 340.657 607.454 339.924 604.233 337.854C607.993 338.635 608.728 338.332 610.754 335.139C609.971 338.87 610.293 339.598 613.475 341.642Z" fill="white"/>
<path d="M538.07 212.664L514.054 276.61L438.523 477.703L430.703 498.525L408.135 490.188L282.929 443.932L340.868 290.115L370.365 211.805L370.708 210.885L454.315 181.721L538.07 212.664Z" fill="#92B5F8"/>
<path d="M426.631 199.724L483.322 220.668C482.111 223.926 481.555 227.391 481.686 230.865C481.817 234.338 482.633 237.751 484.086 240.91C485.539 244.068 487.602 246.91 490.156 249.273C492.71 251.637 495.705 253.474 498.971 254.682L428.448 441.216C425.182 440.007 421.71 439.452 418.229 439.582C414.748 439.713 411.327 440.526 408.162 441.977C404.996 443.427 402.148 445.485 399.78 448.034C397.412 450.584 395.57 453.573 394.36 456.833L337.682 435.945C338.893 432.687 339.449 429.222 339.317 425.749C339.186 422.275 338.371 418.862 336.918 415.703C335.465 412.545 333.402 409.703 330.848 407.34C328.294 404.977 325.299 403.139 322.033 401.931L392.556 215.397C395.825 216.603 399.299 217.154 402.781 217.018C406.263 216.883 409.684 216.064 412.849 214.609C416.013 213.153 418.859 211.089 421.224 208.535C423.589 205.981 425.426 202.987 426.631 199.724Z" fill="#BED2F9"/>
<path d="M427.2 279.153C435.369 282.17 442.458 287.536 447.57 294.574C452.682 301.611 455.589 310.004 455.922 318.69C456.254 327.376 453.999 335.965 449.44 343.372C444.881 350.778 438.224 356.67 430.31 360.3C422.396 363.931 413.581 365.138 404.98 363.769C396.378 362.4 388.377 358.516 381.988 352.609C375.598 346.701 371.108 339.035 369.084 330.581C367.06 322.127 367.594 313.263 370.618 305.111C372.624 299.699 375.68 294.733 379.609 290.499C383.539 286.265 388.266 282.845 393.521 280.435C398.775 278.024 404.454 276.67 410.233 276.45C416.011 276.23 421.777 277.149 427.2 279.153Z" fill="#92B5F8"/>
<path d="M454.315 181.721L421.045 241.781L370.365 211.805L369.513 211.302L370.709 210.885L454.315 181.721Z" fill="#92B5F8"/>
<g style="mix-blend-mode:color-burn" opacity="0.2">
<path d="M362.928 231.864L421.045 241.781L370.365 211.805L362.928 231.864Z" fill="#193F1E"/>
</g>
<g style="mix-blend-mode:color-burn" opacity="0.2">
<path d="M454.316 181.721L421.045 241.781L459.867 183.773L454.316 181.721Z" fill="#193F1E"/>
</g>
<g style="mix-blend-mode:color-burn" opacity="0.2">
<path d="M514.055 276.61L438.524 477.703L408.135 490.17L282.947 443.914L340.868 290.115H367.74C377.89 290.115 386.523 305.796 389.74 327.69L514.055 276.61Z" fill="#193F1E"/>
</g>
<path d="M580.585 258.466L240.345 398.279L300.341 543.688L640.58 403.874L580.585 258.466Z" fill="#92B5F8"/>
<path d="M574.54 313.392L597.552 369.175C594.33 370.497 591.401 372.44 588.931 374.893C586.462 377.345 584.501 380.259 583.161 383.469C581.821 386.678 581.127 390.119 581.12 393.596C581.113 397.073 581.793 400.517 583.121 403.731L341.003 503.215C339.678 499.999 337.731 497.075 335.273 494.61C332.815 492.145 329.894 490.188 326.678 488.851C323.462 487.513 320.013 486.821 316.529 486.815C313.044 486.808 309.593 487.487 306.371 488.813L283.359 433.03C286.581 431.708 289.511 429.765 291.98 427.312C294.45 424.86 296.41 421.946 297.751 418.736C299.091 415.527 299.784 412.086 299.791 408.609C299.798 405.132 299.118 401.688 297.791 398.474L539.909 298.99C541.234 302.206 543.181 305.13 545.639 307.595C548.097 310.06 551.017 312.017 554.233 313.354C557.45 314.692 560.899 315.384 564.383 315.39C567.867 315.397 571.319 314.718 574.54 313.392Z" fill="#BED2F9"/>
<path d="M448.153 441.527C471.843 436.043 486.592 412.432 481.097 388.79C475.601 365.148 451.942 350.428 428.252 355.913C404.562 361.397 389.813 385.008 395.308 408.65C400.804 432.292 424.463 447.012 448.153 441.527Z" fill="#92B5F8"/>
<path d="M384.693 357.97V512.871H227.103V357.97H337.995C338.108 326.996 348.514 301.966 361.337 301.966C374.16 301.966 384.562 326.996 384.675 357.97H384.693Z" fill="#92B5F8"/>
<path d="M361.329 302.192H250.458V476.31H361.329V302.192Z" fill="#BED2F9"/>
<path d="M333.708 427.034C349.069 411.704 349.069 386.849 333.708 371.519C318.347 356.19 293.442 356.19 278.081 371.52C262.72 386.849 262.72 411.704 278.081 427.034C293.442 442.364 318.347 442.364 333.708 427.034Z" fill="#92B5F8"/>
<g style="mix-blend-mode:color-burn" opacity="0.2">
<path d="M384.693 357.97V373.838H227.103V301.966H361.337C374.156 301.966 384.562 326.996 384.675 357.97H384.693Z" fill="#193F1E"/>
</g>
<path d="M361.337 301.966C348.514 301.966 338.108 326.996 337.995 357.97H180.418C180.531 326.996 190.937 301.97 203.76 301.97L361.337 301.966Z" fill="#92B5F8"/>
<path d="M332.9 301.966C327.249 301.966 322.242 307.098 319.369 314.854C310.675 315.071 303.698 321.739 303.698 329.929V329.968H224.03V329.929C224.03 322.407 218.144 316.169 210.455 315.032C213.319 307.176 218.34 301.966 224.056 301.966H332.9Z" fill="#BED2F9"/>
<g style="mix-blend-mode:color-burn" opacity="0.2">
<path d="M227.107 424.172V416.802H609.54L589.971 424.606L227.107 424.172Z" fill="#193F1E"/>
</g>
<path d="M594.432 424.805C590.607 433.512 584.283 440.891 576.256 446.01C568.23 451.13 558.864 453.759 549.34 453.567C539.817 453.374 530.564 450.368 522.753 444.928C514.941 439.488 508.921 431.859 505.454 423.005C501.987 414.151 501.228 404.47 503.273 395.186C505.318 385.901 510.076 377.431 516.945 370.844C523.813 364.258 532.485 359.852 541.862 358.184C551.24 356.515 560.902 357.659 569.629 361.471C575.425 364.002 580.666 367.649 585.05 372.203C589.434 376.757 592.876 382.128 595.179 388.009C597.483 393.891 598.602 400.168 598.474 406.482C598.346 412.795 596.972 419.022 594.432 424.805Z" fill="#7C9AF2"/>
<path d="M586.555 421.361C584.242 426.627 580.805 431.326 576.483 435.129C572.162 438.932 567.06 441.748 561.536 443.38C556.011 445.012 550.195 445.42 544.496 444.577C538.797 443.733 533.351 441.658 528.538 438.496C525.458 436.487 522.678 434.054 520.279 431.269C519.389 430.231 518.552 429.15 517.771 428.029C512.129 419.983 509.695 410.127 510.943 400.386C512.192 390.645 517.034 381.718 524.524 375.349C532.014 368.979 541.614 365.625 551.449 365.94C561.284 366.255 570.649 370.217 577.714 377.053C578.7 377.996 579.636 378.991 580.517 380.033C585.284 385.675 588.374 392.536 589.437 399.84C590.5 407.143 589.494 414.598 586.533 421.361H586.555Z" fill="#92B5F8"/>
<path d="M577.736 377.053L517.793 428.029C512.018 419.714 509.653 409.507 511.186 399.506L550.555 366.025C560.691 366.1 570.414 370.044 577.727 377.048L577.736 377.053Z" fill="#A7C1E9"/>
<path d="M586.385 389.299L528.538 438.496C525.458 436.487 522.678 434.054 520.279 431.269L580.517 380.033C582.894 382.835 584.869 385.954 586.385 389.299Z" fill="#A7C1E9"/>
<path d="M531.711 365.192C528.112 369.53 528.003 370.693 530.759 375.543C526.482 371.96 525.321 371.851 520.383 374.593C523.987 370.255 524.091 369.088 521.34 364.242C525.691 367.839 526.834 367.938 531.711 365.192Z" fill="white"/>
<path d="M589.306 424.172H209.346C198.094 424.172 188.973 433.275 188.973 444.504V567.973C188.973 579.202 198.094 588.305 209.346 588.305H589.306C600.558 588.305 609.68 579.202 609.68 567.973V444.504C609.68 433.275 600.558 424.172 589.306 424.172Z" fill="#4E73E6"/>
<path d="M409.087 424.172H389.565V588.409H409.087V424.172Z" fill="#2E5BE6"/>
<path d="M585.229 579.407H574.566C574.144 579.407 573.74 579.24 573.441 578.942C573.143 578.645 572.975 578.241 572.975 577.82C572.975 577.399 573.143 576.995 573.441 576.697C573.74 576.399 574.144 576.232 574.566 576.232H585.229C585.651 576.232 586.056 576.399 586.354 576.697C586.652 576.995 586.82 577.399 586.82 577.82C586.82 578.241 586.652 578.645 586.354 578.942C586.056 579.24 585.651 579.407 585.229 579.407ZM563.964 579.407H553.349C552.928 579.407 552.523 579.24 552.225 578.942C551.926 578.645 551.759 578.241 551.759 577.82C551.759 577.399 551.926 576.995 552.225 576.697C552.523 576.399 552.928 576.232 553.349 576.232H563.956C564.378 576.232 564.782 576.399 565.081 576.697C565.379 576.995 565.547 577.399 565.547 577.82C565.547 578.241 565.379 578.645 565.081 578.942C564.782 579.24 564.378 579.407 563.956 579.407H563.964ZM542.752 579.407H532.146C531.724 579.407 531.319 579.24 531.021 578.942C530.722 578.645 530.555 578.241 530.555 577.82C530.555 577.399 530.722 576.995 531.021 576.697C531.319 576.399 531.724 576.232 532.146 576.232H542.752C543.174 576.232 543.579 576.399 543.877 576.697C544.175 576.995 544.343 577.399 544.343 577.82C544.343 578.241 544.175 578.645 543.877 578.942C543.579 579.24 543.174 579.407 542.752 579.407ZM521.539 579.407H510.933C510.511 579.407 510.107 579.24 509.808 578.942C509.51 578.645 509.342 578.241 509.342 577.82C509.342 577.399 509.51 576.995 509.808 576.697C510.107 576.399 510.511 576.232 510.933 576.232H521.539C521.961 576.232 522.366 576.399 522.664 576.697C522.963 576.995 523.13 577.399 523.13 577.82C523.13 578.241 522.963 578.645 522.664 578.942C522.366 579.24 521.961 579.407 521.539 579.407ZM500.331 579.407H489.725C489.303 579.407 488.898 579.24 488.6 578.942C488.302 578.645 488.134 578.241 488.134 577.82C488.134 577.399 488.302 576.995 488.6 576.697C488.898 576.399 489.303 576.232 489.725 576.232H500.318C500.74 576.232 501.145 576.399 501.443 576.697C501.742 576.995 501.909 577.399 501.909 577.82C501.909 578.241 501.742 578.645 501.443 578.942C501.145 579.24 500.74 579.407 500.318 579.407H500.331ZM479.119 579.407H468.513C468.091 579.407 467.686 579.24 467.388 578.942C467.089 578.645 466.922 578.241 466.922 577.82C466.922 577.399 467.089 576.995 467.388 576.697C467.686 576.399 468.091 576.232 468.513 576.232H479.119C479.541 576.232 479.945 576.399 480.244 576.697C480.542 576.995 480.71 577.399 480.71 577.82C480.71 578.241 480.542 578.645 480.244 578.942C479.945 579.24 479.541 579.407 479.119 579.407ZM457.906 579.407H447.287C446.865 579.407 446.46 579.24 446.162 578.942C445.864 578.645 445.696 578.241 445.696 577.82C445.696 577.399 445.864 576.995 446.162 576.697C446.46 576.399 446.865 576.232 447.287 576.232H457.893C458.315 576.232 458.72 576.399 459.018 576.697C459.317 576.995 459.484 577.399 459.484 577.82C459.484 578.241 459.317 578.645 459.018 578.942C458.72 579.24 458.315 579.407 457.893 579.407H457.906ZM436.698 579.407H426.092C425.67 579.407 425.265 579.24 424.967 578.942C424.669 578.645 424.501 578.241 424.501 577.82C424.501 577.399 424.669 576.995 424.967 576.697C425.265 576.399 425.67 576.232 426.092 576.232H436.698C437.12 576.232 437.525 576.399 437.823 576.697C438.121 576.995 438.289 577.399 438.289 577.82C438.289 578.241 438.121 578.645 437.823 578.942C437.525 579.24 437.12 579.407 436.698 579.407ZM415.486 579.407H404.879C404.457 579.407 404.053 579.24 403.754 578.942C403.456 578.645 403.288 578.241 403.288 577.82C403.288 577.399 403.456 576.995 403.754 576.697C404.053 576.399 404.457 576.232 404.879 576.232H415.486C415.908 576.232 416.312 576.399 416.611 576.697C416.909 576.995 417.077 577.399 417.077 577.82C417.077 578.241 416.909 578.645 416.611 578.942C416.312 579.24 415.908 579.407 415.486 579.407ZM394.273 579.407H383.671C383.249 579.407 382.845 579.24 382.546 578.942C382.248 578.645 382.08 578.241 382.08 577.82C382.08 577.399 382.248 576.995 382.546 576.697C382.845 576.399 383.249 576.232 383.671 576.232H394.256C394.678 576.232 395.082 576.399 395.381 576.697C395.679 576.995 395.847 577.399 395.847 577.82C395.847 578.241 395.679 578.645 395.381 578.942C395.082 579.24 394.678 579.407 394.256 579.407H394.273ZM373.065 579.407H362.459C362.037 579.407 361.632 579.24 361.334 578.942C361.035 578.645 360.868 578.241 360.868 577.82C360.868 577.399 361.035 576.995 361.334 576.697C361.632 576.399 362.037 576.232 362.459 576.232H373.065C373.487 576.232 373.892 576.399 374.19 576.697C374.488 576.995 374.656 577.399 374.656 577.82C374.656 578.241 374.488 578.645 374.19 578.942C373.892 579.24 373.487 579.407 373.065 579.407ZM351.852 579.407H341.246C340.824 579.407 340.42 579.24 340.121 578.942C339.823 578.645 339.655 578.241 339.655 577.82C339.655 577.399 339.823 576.995 340.121 576.697C340.42 576.399 340.824 576.232 341.246 576.232H351.852C352.274 576.232 352.679 576.399 352.977 576.697C353.276 576.995 353.443 577.399 353.443 577.82C353.443 578.241 353.276 578.645 352.977 578.942C352.679 579.24 352.274 579.407 351.852 579.407ZM330.64 579.407H320.038C319.616 579.407 319.211 579.24 318.913 578.942C318.615 578.645 318.447 578.241 318.447 577.82C318.447 577.399 318.615 576.995 318.913 576.697C319.211 576.399 319.616 576.232 320.038 576.232H330.64C331.062 576.232 331.467 576.399 331.765 576.697C332.063 576.995 332.231 577.399 332.231 577.82C332.231 578.241 332.063 578.645 331.765 578.942C331.467 579.24 331.062 579.407 330.64 579.407ZM309.432 579.407H298.826C298.404 579.407 297.999 579.24 297.701 578.942C297.402 578.645 297.235 578.241 297.235 577.82C297.235 577.399 297.402 576.995 297.701 576.697C297.999 576.399 298.404 576.232 298.826 576.232H309.432C309.854 576.232 310.258 576.399 310.557 576.697C310.855 576.995 311.023 577.399 311.023 577.82C311.023 578.241 310.855 578.645 310.557 578.942C310.258 579.24 309.854 579.407 309.432 579.407ZM288.219 579.407H277.613C277.191 579.407 276.786 579.24 276.488 578.942C276.19 578.645 276.022 578.241 276.022 577.82C276.022 577.399 276.19 576.995 276.488 576.697C276.786 576.399 277.191 576.232 277.613 576.232H288.219C288.641 576.232 289.046 576.399 289.344 576.697C289.643 576.995 289.81 577.399 289.81 577.82C289.81 578.241 289.643 578.645 289.344 578.942C289.046 579.24 288.641 579.407 288.219 579.407ZM267.011 579.407H256.405C255.983 579.407 255.578 579.24 255.28 578.942C254.982 578.645 254.814 578.241 254.814 577.82C254.814 577.399 254.982 576.995 255.28 576.697C255.578 576.399 255.983 576.232 256.405 576.232H267.011C267.433 576.232 267.838 576.399 268.136 576.697C268.435 576.995 268.602 577.399 268.602 577.82C268.602 578.241 268.435 578.645 268.136 578.942C267.838 579.24 267.433 579.407 267.011 579.407ZM245.799 579.407H235.192C234.771 579.407 234.366 579.24 234.067 578.942C233.769 578.645 233.602 578.241 233.602 577.82C233.602 577.399 233.769 576.995 234.067 576.697C234.366 576.399 234.771 576.232 235.192 576.232H245.799C246.221 576.232 246.625 576.399 246.924 576.697C247.222 576.995 247.39 577.399 247.39 577.82C247.39 578.241 247.222 578.645 246.924 578.942C246.625 579.24 246.221 579.407 245.799 579.407ZM224.586 579.407H213.98C213.558 579.407 213.153 579.24 212.855 578.942C212.557 578.645 212.389 578.241 212.389 577.82C212.389 577.399 212.557 576.995 212.855 576.697C213.153 576.399 213.558 576.232 213.98 576.232H224.586C225.008 576.232 225.413 576.399 225.711 576.697C226.01 576.995 226.177 577.399 226.177 577.82C226.177 578.241 226.01 578.645 225.711 578.942C225.413 579.24 225.008 579.407 224.586 579.407ZM204.33 575.75C203.921 575.753 203.527 575.598 203.23 575.317C201.791 573.951 200.644 572.31 199.857 570.491C199.069 568.672 198.658 566.713 198.649 564.732C198.645 564.31 198.809 563.905 199.105 563.604C199.401 563.303 199.804 563.131 200.227 563.127C200.646 563.127 201.049 563.292 201.347 563.587C201.645 563.882 201.814 564.283 201.818 564.702C201.829 566.259 202.155 567.799 202.776 569.228C203.397 570.657 204.302 571.946 205.434 573.018C205.663 573.237 205.82 573.519 205.887 573.828C205.954 574.137 205.927 574.459 205.809 574.752C205.692 575.046 205.489 575.298 205.227 575.476C204.965 575.654 204.656 575.749 204.339 575.75H204.33ZM594.718 575.356C594.406 575.356 594.101 575.265 593.841 575.094C593.58 574.922 593.376 574.678 593.254 574.392C593.132 574.105 593.097 573.789 593.155 573.483C593.212 573.177 593.358 572.894 593.575 572.671C595.678 570.502 596.85 567.602 596.844 564.584V564.151C596.844 563.73 597.011 563.326 597.31 563.028C597.608 562.73 598.013 562.563 598.435 562.563C598.857 562.563 599.261 562.73 599.56 563.028C599.858 563.326 600.026 563.73 600.026 564.151V564.584C600.033 568.423 598.541 572.112 595.866 574.87C595.717 575.024 595.539 575.147 595.342 575.23C595.145 575.314 594.932 575.356 594.718 575.356ZM200.218 555.718C199.796 555.718 199.391 555.55 199.093 555.253C198.795 554.955 198.627 554.551 198.627 554.13V543.549C198.627 543.128 198.795 542.725 199.093 542.427C199.391 542.129 199.796 541.962 200.218 541.962C200.64 541.962 201.045 542.129 201.343 542.427C201.641 542.725 201.809 543.128 201.809 543.549V554.13C201.809 554.551 201.641 554.955 201.343 555.253C201.045 555.55 200.64 555.718 200.218 555.718ZM598.435 555.162C598.226 555.162 598.019 555.121 597.826 555.041C597.633 554.962 597.457 554.845 597.31 554.697C597.162 554.55 597.045 554.375 596.965 554.182C596.885 553.99 596.844 553.783 596.844 553.575V542.99C596.844 542.569 597.011 542.165 597.31 541.867C597.608 541.569 598.013 541.402 598.435 541.402C598.857 541.402 599.261 541.569 599.56 541.867C599.858 542.165 600.026 542.569 600.026 542.99V553.575C600.026 553.783 599.985 553.99 599.905 554.182C599.825 554.375 599.707 554.55 599.56 554.697C599.412 554.845 599.237 554.962 599.044 555.041C598.851 555.121 598.644 555.162 598.435 555.162ZM200.218 534.552C199.796 534.552 199.391 534.385 199.093 534.087C198.795 533.79 198.627 533.386 198.627 532.965V522.38C198.627 521.959 198.795 521.555 199.093 521.257C199.391 520.96 199.796 520.792 200.218 520.792C200.64 520.792 201.045 520.96 201.343 521.257C201.641 521.555 201.809 521.959 201.809 522.38V532.965C201.809 533.386 201.641 533.79 201.343 534.087C201.045 534.385 200.64 534.552 200.218 534.552ZM598.435 533.993C598.013 533.993 597.608 533.826 597.31 533.528C597.011 533.23 596.844 532.826 596.844 532.405V521.838C596.844 521.417 597.011 521.013 597.31 520.715C597.608 520.417 598.013 520.25 598.435 520.25C598.857 520.25 599.261 520.417 599.56 520.715C599.858 521.013 600.026 521.417 600.026 521.838V532.423C600.019 532.839 599.848 533.236 599.551 533.528C599.253 533.821 598.852 533.984 598.435 533.984V533.993ZM200.218 513.383C199.796 513.383 199.391 513.216 199.093 512.918C198.795 512.62 198.627 512.216 198.627 511.795V501.211C198.627 500.789 198.795 500.386 199.093 500.088C199.391 499.79 199.796 499.623 200.218 499.623C200.64 499.623 201.045 499.79 201.343 500.088C201.641 500.386 201.809 500.789 201.809 501.211V511.795C201.809 512.216 201.641 512.62 201.343 512.918C201.045 513.216 200.64 513.383 200.218 513.383ZM598.435 512.823C598.226 512.823 598.019 512.782 597.826 512.703C597.633 512.623 597.457 512.506 597.31 512.358C597.162 512.211 597.045 512.036 596.965 511.843C596.885 511.651 596.844 511.444 596.844 511.236V500.655C596.844 500.234 597.011 499.83 597.31 499.533C597.608 499.235 598.013 499.068 598.435 499.068C598.857 499.068 599.261 499.235 599.56 499.533C599.858 499.83 600.026 500.234 600.026 500.655V511.236C600.026 511.444 599.985 511.651 599.905 511.843C599.825 512.036 599.707 512.211 599.56 512.358C599.412 512.506 599.237 512.623 599.044 512.703C598.851 512.782 598.644 512.823 598.435 512.823ZM200.218 492.214C199.796 492.214 199.391 492.046 199.093 491.748C198.795 491.451 198.627 491.047 198.627 490.626V480.045C198.627 479.624 198.795 479.22 199.093 478.923C199.391 478.625 199.796 478.458 200.218 478.458C200.64 478.458 201.045 478.625 201.343 478.923C201.641 479.22 201.809 479.624 201.809 480.045V490.626C201.809 490.834 201.768 491.041 201.688 491.233C201.608 491.426 201.491 491.601 201.343 491.748C201.195 491.896 201.02 492.013 200.827 492.093C200.634 492.172 200.427 492.214 200.218 492.214ZM598.435 491.658C598.013 491.658 597.608 491.491 597.31 491.193C597.011 490.895 596.844 490.492 596.844 490.071V479.486C596.844 479.065 597.011 478.661 597.31 478.363C597.608 478.065 598.013 477.898 598.435 477.898C598.857 477.898 599.261 478.065 599.56 478.363C599.858 478.661 600.026 479.065 600.026 479.486V490.071C600.026 490.492 599.858 490.895 599.56 491.193C599.261 491.491 598.857 491.658 598.435 491.658ZM200.218 471.048C199.796 471.048 199.391 470.881 199.093 470.583C198.795 470.286 198.627 469.882 198.627 469.461V458.876C198.627 458.455 198.795 458.051 199.093 457.753C199.391 457.456 199.796 457.288 200.218 457.288C200.64 457.288 201.045 457.456 201.343 457.753C201.641 458.051 201.809 458.455 201.809 458.876V469.461C201.809 469.882 201.641 470.286 201.343 470.583C201.045 470.881 200.64 471.048 200.218 471.048ZM598.435 470.489C598.013 470.489 597.608 470.322 597.31 470.024C597.011 469.726 596.844 469.322 596.844 468.901V458.316C596.844 457.895 597.011 457.491 597.31 457.194C597.608 456.896 598.013 456.729 598.435 456.729C598.857 456.729 599.261 456.896 599.56 457.194C599.858 457.491 600.026 457.895 600.026 458.316V468.914C600.022 469.333 599.853 469.733 599.555 470.028C599.257 470.323 598.854 470.489 598.435 470.489ZM200.218 449.879C199.796 449.879 199.391 449.712 199.093 449.414C198.795 449.116 198.627 448.712 198.627 448.291V447.892C198.619 444.042 200.12 440.341 202.809 437.581C203.103 437.284 203.503 437.114 203.922 437.11C204.341 437.105 204.745 437.266 205.046 437.557C205.347 437.847 205.521 438.245 205.53 438.663C205.539 439.08 205.383 439.485 205.095 439.789C202.981 441.958 201.802 444.866 201.809 447.892V448.291C201.809 448.712 201.641 449.116 201.343 449.414C201.045 449.712 200.64 449.879 200.218 449.879ZM598.435 449.319C598.016 449.321 597.614 449.157 597.316 448.863C597.018 448.57 596.848 448.171 596.844 447.753C596.83 446.196 596.5 444.657 595.876 443.23C595.252 441.802 594.345 440.515 593.21 439.446C593.037 439.309 592.895 439.139 592.792 438.944C592.689 438.75 592.627 438.536 592.611 438.317C592.595 438.098 592.625 437.878 592.699 437.67C592.773 437.463 592.889 437.274 593.04 437.113C593.191 436.953 593.374 436.826 593.576 436.74C593.779 436.655 593.998 436.612 594.218 436.614C594.438 436.617 594.656 436.665 594.856 436.756C595.057 436.847 595.236 436.979 595.383 437.143C596.828 438.503 597.983 440.14 598.777 441.957C599.572 443.774 599.991 445.732 600.008 447.714C600.011 447.923 599.972 448.13 599.894 448.323C599.816 448.517 599.701 448.693 599.555 448.842C599.409 448.991 599.234 449.11 599.042 449.192C598.85 449.274 598.644 449.317 598.435 449.319ZM584.647 436.245H574.04C573.618 436.245 573.214 436.077 572.915 435.78C572.617 435.482 572.449 435.078 572.449 434.657C572.449 434.236 572.617 433.832 572.915 433.534C573.214 433.236 573.618 433.069 574.04 433.069H584.647C585.069 433.069 585.473 433.236 585.772 433.534C586.07 433.832 586.238 434.236 586.238 434.657C586.238 435.078 586.07 435.482 585.772 435.78C585.473 436.077 585.069 436.245 584.647 436.245ZM563.434 436.245H552.828C552.406 436.245 552.001 436.077 551.703 435.78C551.405 435.482 551.237 435.078 551.237 434.657C551.237 434.236 551.405 433.832 551.703 433.534C552.001 433.236 552.406 433.069 552.828 433.069H563.43C563.852 433.069 564.256 433.236 564.555 433.534C564.853 433.832 565.021 434.236 565.021 434.657C565.021 435.078 564.853 435.482 564.555 435.78C564.256 436.077 563.852 436.245 563.43 436.245H563.434ZM542.226 436.245H531.615C531.193 436.245 530.789 436.077 530.49 435.78C530.192 435.482 530.024 435.078 530.024 434.657C530.024 434.236 530.192 433.832 530.49 433.534C530.789 433.236 531.193 433.069 531.615 433.069H542.222C542.644 433.069 543.048 433.236 543.347 433.534C543.645 433.832 543.813 434.236 543.813 434.657C543.813 435.078 543.645 435.482 543.347 435.78C543.048 436.077 542.644 436.245 542.222 436.245H542.226ZM521.013 436.245H510.407C509.985 436.245 509.581 436.077 509.282 435.78C508.984 435.482 508.816 435.078 508.816 434.657C508.816 434.236 508.984 433.832 509.282 433.534C509.581 433.236 509.985 433.069 510.407 433.069H521.013C521.435 433.069 521.84 433.236 522.138 433.534C522.437 433.832 522.604 434.236 522.604 434.657C522.604 435.078 522.437 435.482 522.138 435.78C521.84 436.077 521.435 436.245 521.013 436.245ZM499.801 436.245H489.199C488.777 436.245 488.372 436.077 488.074 435.78C487.776 435.482 487.608 435.078 487.608 434.657C487.608 434.236 487.776 433.832 488.074 433.534C488.372 433.236 488.777 433.069 489.199 433.069H499.801C500.223 433.069 500.628 433.236 500.926 433.534C501.224 433.832 501.392 434.236 501.392 434.657C501.392 435.078 501.224 435.482 500.926 435.78C500.628 436.077 500.223 436.245 499.801 436.245ZM478.593 436.245H467.987C467.565 436.245 467.16 436.077 466.862 435.78C466.563 435.482 466.396 435.078 466.396 434.657C466.396 434.236 466.563 433.832 466.862 433.534C467.16 433.236 467.565 433.069 467.987 433.069H478.584C479.006 433.069 479.411 433.236 479.709 433.534C480.007 433.832 480.175 434.236 480.175 434.657C480.175 435.078 480.007 435.482 479.709 435.78C479.411 436.077 479.006 436.245 478.584 436.245H478.593ZM457.38 436.245H446.774C446.352 436.245 445.947 436.077 445.649 435.78C445.351 435.482 445.183 435.078 445.183 434.657C445.183 434.236 445.351 433.832 445.649 433.534C445.947 433.236 446.352 433.069 446.774 433.069H457.38C457.802 433.069 458.207 433.236 458.505 433.534C458.804 433.832 458.971 434.236 458.971 434.657C458.971 435.078 458.804 435.482 458.505 435.78C458.207 436.077 457.802 436.245 457.38 436.245ZM436.172 436.245H425.553C425.131 436.245 424.726 436.077 424.428 435.78C424.13 435.482 423.962 435.078 423.962 434.657C423.962 434.236 424.13 433.832 424.428 433.534C424.726 433.236 425.131 433.069 425.553 433.069H436.159C436.581 433.069 436.986 433.236 437.284 433.534C437.582 433.832 437.75 434.236 437.75 434.657C437.75 435.078 437.582 435.482 437.284 435.78C436.986 436.077 436.581 436.245 436.159 436.245H436.172ZM414.96 436.245H404.353C403.931 436.245 403.527 436.077 403.228 435.78C402.93 435.482 402.762 435.078 402.762 434.657C402.762 434.236 402.93 433.832 403.228 433.534C403.527 433.236 403.931 433.069 404.353 433.069H414.96C415.382 433.069 415.786 433.236 416.085 433.534C416.383 433.832 416.551 434.236 416.551 434.657C416.551 435.078 416.383 435.482 416.085 435.78C415.786 436.077 415.382 436.245 414.96 436.245ZM393.747 436.245H383.141C382.719 436.245 382.314 436.077 382.016 435.78C381.718 435.482 381.55 435.078 381.55 434.657C381.55 434.236 381.718 433.832 382.016 433.534C382.314 433.236 382.719 433.069 383.141 433.069H393.747C394.169 433.069 394.574 433.236 394.872 433.534C395.171 433.832 395.338 434.236 395.338 434.657C395.338 435.078 395.171 435.482 394.872 435.78C394.574 436.077 394.169 436.245 393.747 436.245ZM372.539 436.245H361.933C361.511 436.245 361.106 436.077 360.808 435.78C360.509 435.482 360.342 435.078 360.342 434.657C360.342 434.236 360.509 433.832 360.808 433.534C361.106 433.236 361.511 433.069 361.933 433.069H372.522C372.944 433.069 373.348 433.236 373.647 433.534C373.945 433.832 374.113 434.236 374.113 434.657C374.113 435.078 373.945 435.482 373.647 435.78C373.348 436.077 372.944 436.245 372.522 436.245H372.539ZM351.327 436.245H340.72C340.298 436.245 339.894 436.077 339.595 435.78C339.297 435.482 339.129 435.078 339.129 434.657C339.129 434.236 339.297 433.832 339.595 433.534C339.894 433.236 340.298 433.069 340.72 433.069H351.327C351.748 433.069 352.153 433.236 352.451 433.534C352.75 433.832 352.917 434.236 352.917 434.657C352.917 435.078 352.75 435.482 352.451 435.78C352.153 436.077 351.748 436.245 351.327 436.245ZM330.114 436.245H319.49C319.068 436.245 318.664 436.077 318.365 435.78C318.067 435.482 317.899 435.078 317.899 434.657C317.899 434.236 318.067 433.832 318.365 433.534C318.664 433.236 319.068 433.069 319.49 433.069H330.097C330.519 433.069 330.923 433.236 331.222 433.534C331.52 433.832 331.688 434.236 331.688 434.657C331.688 435.078 331.52 435.482 331.222 435.78C330.923 436.077 330.519 436.245 330.097 436.245H330.114ZM308.906 436.245H298.3C297.878 436.245 297.473 436.077 297.175 435.78C296.876 435.482 296.709 435.078 296.709 434.657C296.709 434.236 296.876 433.832 297.175 433.534C297.473 433.236 297.878 433.069 298.3 433.069H308.906C309.328 433.069 309.732 433.236 310.031 433.534C310.329 433.832 310.497 434.236 310.497 434.657C310.497 435.078 310.329 435.482 310.031 435.78C309.732 436.077 309.328 436.245 308.906 436.245ZM287.693 436.245H277.087C276.665 436.245 276.261 436.077 275.962 435.78C275.664 435.482 275.496 435.078 275.496 434.657C275.496 434.236 275.664 433.832 275.962 433.534C276.261 433.236 276.665 433.069 277.087 433.069H287.693C288.115 433.069 288.52 433.236 288.818 433.534C289.117 433.832 289.284 434.236 289.284 434.657C289.284 435.078 289.117 435.482 288.818 435.78C288.52 436.077 288.115 436.245 287.693 436.245ZM266.481 436.245H255.875C255.453 436.245 255.048 436.077 254.75 435.78C254.451 435.482 254.284 435.078 254.284 434.657C254.284 434.236 254.451 433.832 254.75 433.534C255.048 433.236 255.453 433.069 255.875 433.069H266.459C266.881 433.069 267.286 433.236 267.584 433.534C267.882 433.832 268.05 434.236 268.05 434.657C268.05 435.078 267.882 435.482 267.584 435.78C267.286 436.077 266.881 436.245 266.459 436.245H266.481ZM245.273 436.245H234.666C234.245 436.245 233.84 436.077 233.542 435.78C233.243 435.482 233.076 435.078 233.076 434.657C233.076 434.236 233.243 433.832 233.542 433.534C233.84 433.236 234.245 433.069 234.666 433.069H245.273C245.695 433.069 246.099 433.236 246.398 433.534C246.696 433.832 246.864 434.236 246.864 434.657C246.864 435.078 246.696 435.482 246.398 435.78C246.099 436.077 245.695 436.245 245.273 436.245ZM224.06 436.245H213.48C213.057 436.245 212.651 436.078 212.35 435.78C212.05 435.483 211.88 435.079 211.876 434.657C211.874 434.449 211.914 434.244 211.992 434.051C212.07 433.859 212.186 433.684 212.332 433.537C212.478 433.389 212.652 433.272 212.844 433.192C213.036 433.111 213.242 433.07 213.45 433.069H224.056C224.478 433.069 224.883 433.236 225.181 433.534C225.479 433.832 225.647 434.236 225.647 434.657C225.647 435.078 225.479 435.482 225.181 435.78C224.883 436.077 224.478 436.245 224.056 436.245H224.06Z" fill="#7292F7"/>
<path d="M569.842 462.32H432.026C427.75 462.32 424.284 465.779 424.284 470.046V540.227C424.284 544.493 427.75 547.952 432.026 547.952H569.842C574.118 547.952 577.584 544.493 577.584 540.227V470.046C577.584 465.779 574.118 462.32 569.842 462.32Z" fill="#7292F7"/>
<path d="M563.839 474.974H497.48C496.289 474.974 495.324 475.938 495.324 477.126V481.078C495.324 482.266 496.289 483.23 497.48 483.23H563.839C565.03 483.23 565.995 482.266 565.995 481.078V477.126C565.995 475.938 565.03 474.974 563.839 474.974Z" fill="#4E73E6"/>
<path d="M530.055 508.681H497.48C496.289 508.681 495.324 509.644 495.324 510.832V514.784C495.324 515.973 496.289 516.936 497.48 516.936H530.055C531.246 516.936 532.211 515.973 532.211 514.784V510.832C532.211 509.644 531.246 508.681 530.055 508.681Z" fill="#4E73E6"/>
<path d="M563.839 525.534H497.48C496.289 525.534 495.324 526.497 495.324 527.686V531.637C495.324 532.826 496.289 533.789 497.48 533.789H563.839C565.03 533.789 565.995 532.826 565.995 531.637V527.686C565.995 526.497 565.03 525.534 563.839 525.534Z" fill="#4E73E6"/>
<path d="M548.156 491.828H497.48C496.289 491.828 495.324 492.791 495.324 493.979V497.931C495.324 499.119 496.289 500.083 497.48 500.083H548.156C549.346 500.083 550.312 499.119 550.312 497.931V493.979C550.312 492.791 549.346 491.828 548.156 491.828Z" fill="#4E73E6"/>
<path d="M487.739 474.974H436.546V533.793H487.739V474.974Z" fill="white"/>
<path d="M487.739 524.714V533.789H436.546V524.714C440.523 519.608 450.486 515.986 462.144 515.986C473.803 515.986 483.761 519.608 487.739 524.714Z" fill="#4E73E6"/>
<path d="M475.407 499.571C475.408 502.19 474.631 504.75 473.173 506.928C471.716 509.106 469.644 510.803 467.219 511.806C464.795 512.809 462.127 513.071 459.553 512.56C456.98 512.05 454.615 510.789 452.76 508.937C450.904 507.085 449.64 504.726 449.129 502.157C448.617 499.588 448.88 496.926 449.885 494.507C450.889 492.087 452.59 490.019 454.773 488.565C456.955 487.111 459.521 486.335 462.145 486.336C465.662 486.336 469.036 487.73 471.523 490.212C474.01 492.694 475.407 496.061 475.407 499.571Z" fill="#0B0754"/>
<path d="M473.959 501.983C473.959 502.2 473.959 502.417 473.959 502.625C473.633 509.132 468.473 514.285 462.157 514.285C455.841 514.285 450.699 509.145 450.355 502.673C450.355 502.443 450.355 502.213 450.355 501.983C450.34 499.917 450.841 497.881 451.813 496.058C452.785 494.234 454.198 492.682 455.924 491.541C457.781 490.326 459.954 489.68 462.174 489.68C462.6 489.681 463.025 489.705 463.448 489.75C469.342 490.413 473.959 495.641 473.959 501.983Z" fill="#F37A50"/>
<path d="M473.96 501.475C473.96 501.679 473.96 501.909 473.96 502.091C473.017 502.259 472.062 502.343 471.104 502.343C467.748 502.34 464.476 501.29 461.748 499.339C459.02 497.388 456.971 494.634 455.89 491.463C457.765 490.296 459.931 489.678 462.141 489.68C462.566 489.679 462.992 489.702 463.414 489.75C466.311 490.063 468.99 491.433 470.937 493.598C472.883 495.762 473.96 498.567 473.96 501.475Z" fill="#0B0754"/>
<path d="M463.418 489.737C462.731 492.869 461.117 495.724 458.786 497.931C456.455 500.138 453.514 501.597 450.343 502.117C450.343 501.9 450.343 501.683 450.343 501.462C450.342 499.913 450.648 498.379 451.241 496.948C451.835 495.517 452.706 494.216 453.803 493.121C454.901 492.025 456.204 491.156 457.638 490.564C459.072 489.971 460.609 489.667 462.162 489.667C462.581 489.667 463.001 489.69 463.418 489.737Z" fill="#0B0754"/>
<path d="M365.793 464.394V472.506H228.521V464.394C228.522 462.039 229.459 459.781 231.128 458.116C232.796 456.451 235.059 455.515 237.418 455.514H356.9C359.259 455.515 361.521 456.451 363.189 458.117C364.856 459.782 365.793 462.04 365.793 464.394Z" fill="#92B5F8"/>
<path d="M379.629 469.096H217.84V472.506H379.629V469.096Z" fill="#2E5BE6"/>
<path d="M365.793 487.364V492.569H228.521V487.364C228.522 485.009 229.459 482.751 231.128 481.086C232.796 479.421 235.059 478.485 237.418 478.484H356.9C359.259 478.485 361.521 479.421 363.189 481.086C364.856 482.751 365.793 485.009 365.793 487.364Z" fill="#7C9AF2"/>
<path d="M379.629 491.693H217.84V495.103H379.629V491.693Z" fill="#2E5BE6"/>
<path d="M365.793 511.392V518.953H228.521V511.392C228.522 509.037 229.459 506.779 231.128 505.114C232.796 503.449 235.059 502.513 237.418 502.512H356.9C359.259 502.513 361.521 503.449 363.189 505.114C364.856 506.78 365.793 509.038 365.793 511.392Z" fill="#7C9AF2"/>
<path d="M379.629 515.544H217.84V518.953H379.629V515.544Z" fill="#2E5BE6"/>
<path d="M634.201 575.941V584.791C634.201 586.451 633.54 588.043 632.363 589.217C631.187 590.391 629.592 591.051 627.928 591.051H519.692C518.869 591.051 518.053 590.889 517.292 590.574C516.531 590.26 515.84 589.799 515.257 589.217C514.675 588.636 514.213 587.946 513.897 587.186C513.582 586.427 513.42 585.613 513.42 584.791V575.941C513.419 575.119 513.58 574.304 513.895 573.544C514.21 572.784 514.672 572.093 515.254 571.511C515.837 570.929 516.529 570.468 517.29 570.153C518.052 569.838 518.868 569.677 519.692 569.677H627.928C629.592 569.678 631.188 570.339 632.364 571.514C633.54 572.688 634.201 574.281 634.201 575.941Z" fill="#92B5F8"/>
<path d="M522.544 569.682H519.401V591.055H522.544V569.682Z" fill="#7C9AF2"/>
<path d="M535.732 569.682H532.589V591.055H535.732V569.682Z" fill="#7C9AF2"/>
<path d="M548.911 569.682H545.769V591.055H548.911V569.682Z" fill="#7C9AF2"/>
<path d="M562.096 569.682H558.953V591.055H562.096V569.682Z" fill="#7C9AF2"/>
<path d="M575.28 569.682H572.137V591.055H575.28V569.682Z" fill="#7C9AF2"/>
<path d="M588.463 569.682H585.32V591.055H588.463V569.682Z" fill="#7C9AF2"/>
<path d="M601.647 569.682H598.504V591.055H601.647V569.682Z" fill="#7C9AF2"/>
<path d="M614.831 569.682H611.688V591.055H614.831V569.682Z" fill="#7C9AF2"/>
<path d="M628.015 569.682H624.873V591.055H628.015V569.682Z" fill="#7C9AF2"/>
<path d="M632.705 571.898H514.906C515.494 571.204 516.226 570.645 517.051 570.262C517.877 569.878 518.777 569.679 519.688 569.677H627.924C628.835 569.678 629.735 569.877 630.561 570.261C631.386 570.644 632.118 571.203 632.705 571.898Z" fill="#7C9AF2"/>
<path d="M632.705 588.834H514.906C515.494 589.528 516.226 590.086 517.052 590.469C517.878 590.852 518.777 591.05 519.688 591.051H627.924C628.835 591.051 629.734 590.853 630.56 590.47C631.386 590.087 632.118 589.529 632.705 588.834Z" fill="#7C9AF2"/>
<path d="M641.76 554.568V563.418C641.758 565.078 641.097 566.67 639.92 567.844C638.743 569.018 637.147 569.677 635.483 569.677H527.269C525.605 569.677 524.009 569.018 522.832 567.844C521.655 566.67 520.993 565.078 520.992 563.418V554.568C520.99 553.745 521.151 552.929 521.466 552.168C521.781 551.407 522.243 550.716 522.826 550.133C523.409 549.551 524.102 549.089 524.864 548.775C525.626 548.46 526.444 548.299 527.269 548.3H635.504C636.329 548.299 637.145 548.46 637.907 548.774C638.669 549.088 639.361 549.549 639.944 550.13C640.527 550.712 640.989 551.402 641.305 552.162C641.62 552.922 641.782 553.737 641.781 554.559L641.76 554.568Z" fill="#92B5F8"/>
<path d="M530.115 548.308H526.973V569.682H530.115V548.308Z" fill="#7C9AF2"/>
<path d="M543.3 548.308H540.157V569.682H543.3V548.308Z" fill="#7C9AF2"/>
<path d="M556.484 548.308H553.341V569.682H556.484V548.308Z" fill="#7C9AF2"/>
<path d="M569.668 548.308H566.525V569.682H569.668V548.308Z" fill="#7C9AF2"/>
<path d="M582.851 548.308H579.708V569.682H582.851V548.308Z" fill="#7C9AF2"/>
<path d="M596.035 548.308H592.892V569.682H596.035V548.308Z" fill="#7C9AF2"/>
<path d="M609.219 548.308H606.077V569.682H609.219V548.308Z" fill="#7C9AF2"/>
<path d="M622.403 548.308H619.26V569.682H622.403V548.308Z" fill="#7C9AF2"/>
<path d="M635.588 548.308H632.445V569.682H635.588V548.308Z" fill="#7C9AF2"/>
<path d="M640.286 550.525H522.487C523.075 549.831 523.807 549.273 524.633 548.89C525.459 548.507 526.358 548.309 527.269 548.308H635.505C636.415 548.309 637.315 548.507 638.141 548.89C638.967 549.273 639.699 549.831 640.286 550.525Z" fill="#7C9AF2"/>
<path d="M640.286 567.461H522.487C523.075 568.155 523.807 568.713 524.633 569.095C525.459 569.478 526.358 569.677 527.269 569.677H635.505C636.415 569.677 637.315 569.478 638.141 569.095C638.967 568.713 639.699 568.155 640.286 567.461Z" fill="#7C9AF2"/>
<path d="M755.677 546.131C751.852 557.951 744.602 568.374 734.841 576.081C725.081 583.789 713.25 588.435 700.844 589.432C688.438 590.429 676.014 587.732 665.144 581.683C654.274 575.634 645.445 566.503 639.774 555.447C634.104 544.39 631.846 531.903 633.286 519.565C634.727 507.228 639.8 495.594 647.866 486.134C655.932 476.674 666.628 469.814 678.601 466.421C690.573 463.028 703.286 463.254 715.13 467.071C731.012 472.189 744.206 483.393 751.81 498.22C759.414 513.047 760.805 530.281 755.677 546.131Z" fill="#7C9AF2"/>
<path d="M744.984 542.66C742.665 549.807 738.812 556.362 733.693 561.868C728.573 567.375 722.312 571.7 715.344 574.543C708.377 577.385 700.873 578.676 693.354 578.325C685.835 577.974 678.484 575.989 671.813 572.51C667.557 570.297 663.634 567.498 660.16 564.194C658.867 562.956 657.638 561.653 656.478 560.29C648.163 550.555 643.768 538.086 644.145 525.3C644.522 512.514 649.643 500.324 658.517 491.094C667.39 481.864 679.382 476.251 692.167 475.346C704.952 474.44 717.619 478.306 727.709 486.193C736.025 492.716 742.138 501.625 745.227 511.721C748.315 521.817 748.23 532.614 744.984 542.66Z" fill="#92B5F8"/>
<path d="M727.709 486.219L656.477 560.316C647.884 550.26 643.477 537.301 644.163 524.102L690.943 475.421C704.128 474.198 717.282 478.055 727.709 486.201V486.219Z" fill="#A7C1E9"/>
<path d="M740.55 501.016L671.813 572.519C667.557 570.306 663.634 567.507 660.159 564.203L731.743 489.737C735.19 493.069 738.154 496.866 740.55 501.016Z" fill="#A7C1E9"/>
<path d="M699.259 477.781C693.152 477.139 692.039 477.742 689.296 483.147C689.979 477.126 689.375 476.011 683.919 473.2C690.005 473.842 691.14 473.239 693.882 467.834C693.243 473.929 693.843 475.044 699.259 477.781Z" fill="white"/>
<path d="M677.669 574.67C672.518 574.133 671.584 574.64 669.263 579.199C669.836 574.12 669.332 573.178 664.725 570.81C669.88 571.348 670.81 570.84 673.136 566.281C672.571 571.421 673.079 572.363 677.669 574.67Z" fill="white"/>
<path d="M575.084 164.165L594.845 136.363C594.845 136.363 614.166 140.475 620.291 164.187C624.09 178.884 642.025 188.51 642.025 188.51L622.173 216.442C622.173 216.442 598.374 206.782 594.319 189.907C590.028 172.077 575.084 164.165 575.084 164.165Z" fill="#D4DEFF"/>
<path d="M616.678 187.838C610.81 191.629 602.464 189.161 598.034 182.328C593.605 175.496 594.774 166.885 600.643 163.098C606.511 159.311 614.857 161.775 619.286 168.607C623.715 175.44 622.546 184.05 616.678 187.838Z" fill="#E3EAFF"/>
<path d="M158.398 244.249C161.221 247.977 162.874 252.457 163.146 257.123C163.418 261.788 162.298 266.429 159.927 270.46C157.556 274.49 154.041 277.728 149.826 279.764C145.611 281.8 140.886 282.544 136.248 281.9C131.609 281.257 127.267 279.255 123.768 276.148C120.27 273.041 117.774 268.969 116.594 264.446C115.415 259.923 115.606 255.153 117.144 250.739C118.681 246.325 121.496 242.464 125.231 239.646C127.712 237.775 130.538 236.41 133.547 235.629C136.556 234.847 139.69 234.665 142.77 235.092C145.85 235.52 148.815 236.548 151.496 238.119C154.178 239.691 156.523 241.773 158.398 244.249Z" fill="white"/>
<path d="M149.351 274.003L146.634 270.411C144.539 271.938 141.918 272.91 139.997 272.962L139.049 269.926C141.326 269.763 143.508 268.95 145.334 267.583C147.864 265.679 148.469 262.928 146.934 260.903C145.456 258.946 143.148 258.786 139.705 259.71C134.993 261.011 131.512 261.085 129.169 257.996C126.934 255.042 127.339 251.22 130.212 248.214L127.495 244.639L129.703 242.974L132.311 246.422C133.947 245.211 135.865 244.436 137.884 244.171L138.753 247.207C136.786 247.424 134.916 248.174 133.346 249.376C130.607 251.446 130.812 253.862 131.89 255.28C133.289 257.128 135.306 257.059 139.375 256.001C144.157 254.73 147.425 255.176 149.807 258.343C151.933 261.15 151.981 265.258 148.755 268.633L151.559 272.329L149.351 274.003Z" fill="#E3EAFF"/>
<path d="M523.357 139.139L496.502 147.858C496.96 149.264 497.418 150.67 497.876 152.075C498.541 154.11 505.122 153.81 512.581 151.377C520.04 148.943 525.543 145.342 524.883 143.304C524.835 143.13 523.357 139.139 523.357 139.139Z" fill="#C2D0FF"/>
<path d="M523.598 139.313C524.263 141.351 518.755 144.952 511.301 147.386C503.846 149.819 497.256 150.119 496.595 148.084C495.935 146.05 501.438 142.445 508.892 140.011C516.347 137.577 522.924 137.278 523.598 139.313Z" fill="#D4DEFF"/>
<path d="M207.929 215.575L182.361 203.611C181.732 204.947 181.103 206.284 180.474 207.623C179.562 209.562 184.582 213.831 191.68 217.167C198.779 220.503 205.273 221.609 206.186 219.67C206.268 219.479 207.929 215.575 207.929 215.575Z" fill="#C2D0FF"/>
<path d="M207.973 215.87C207.06 217.809 200.584 216.685 193.468 213.362C186.352 210.039 181.349 205.771 182.262 203.819C183.175 201.867 189.651 203.003 196.767 206.326C203.883 209.649 208.882 213.926 207.973 215.87Z" fill="#D4DEFF"/>
<path d="M240.839 270.993L214.406 280.914L215.971 285.061C216.727 287.069 223.291 286.462 230.629 283.707C237.966 280.953 243.308 277.092 242.552 275.088C242.482 274.906 240.839 270.993 240.839 270.993Z" fill="#C2D0FF"/>
<path d="M241.073 271.162C241.825 273.166 236.487 277.023 229.15 279.777C221.813 282.532 215.24 283.139 214.488 281.135C213.736 279.131 219.074 275.27 226.411 272.515C233.749 269.761 240.317 269.158 241.073 271.162Z" fill="#D4DEFF"/>
<path d="M283.164 494.075C278.452 483.937 290.301 471.157 284.65 461.505C281.138 455.514 271.91 453.332 270.884 446.465C270.575 444.417 271.123 442.357 271.414 440.309C271.981 436.298 271.55 432.21 270.16 428.405C268.77 424.599 266.463 421.193 263.443 418.487C260.423 415.781 256.782 413.858 252.842 412.887C248.901 411.916 244.782 411.927 240.847 412.919H240.817H240.786C233.236 415.748 226.877 422.61 225.029 430.44C224.13 434.388 224.198 438.494 225.229 442.41C226.26 446.326 228.222 449.936 230.95 452.933C232.358 454.451 233.992 455.831 234.901 457.705C237.983 463.93 231.649 470.975 232.193 477.894C233.062 489.038 250.102 492.79 252.023 503.8C252.531 506.707 251.849 509.674 251.793 512.619C251.536 525.49 265.542 536.535 278.026 533.307L278.669 533.108C290.766 528.653 295.961 511.604 288.393 501.18C286.663 498.794 284.407 496.742 283.164 494.075Z" fill="#97AAE8"/>
<path d="M241.595 413.566L290.606 564.016C290.714 564.307 290.763 564.616 290.748 564.926C290.734 565.236 290.657 565.539 290.522 565.818C290.387 566.098 290.197 566.347 289.963 566.551C289.729 566.755 289.456 566.909 289.16 567.005C288.865 567.101 288.553 567.137 288.244 567.109C287.934 567.082 287.634 566.993 287.36 566.846C287.086 566.7 286.845 566.5 286.65 566.258C286.456 566.016 286.312 565.738 286.228 565.439V565.391L240.487 413.913C240.454 413.77 240.475 413.62 240.548 413.492C240.621 413.365 240.74 413.27 240.88 413.226C241.02 413.182 241.172 413.192 241.304 413.256C241.437 413.319 241.541 413.429 241.595 413.566Z" fill="#859CE8"/>
<path d="M245.769 483.507C246.347 483.442 246.925 483.39 247.507 483.36C248.09 483.329 248.681 483.325 249.268 483.36C250.453 483.399 251.631 483.557 252.784 483.833C253.948 484.114 255.08 484.513 256.162 485.026C257.245 485.545 258.282 486.156 259.261 486.852C261.198 488.259 262.96 489.894 264.508 491.719C266.044 493.531 267.453 495.448 268.724 497.454C268.948 497.803 269.023 498.227 268.934 498.631C268.845 499.036 268.598 499.389 268.248 499.612C267.898 499.835 267.474 499.911 267.068 499.822C266.663 499.732 266.309 499.486 266.086 499.137L266.012 499.003C265.011 496.995 263.87 495.06 262.599 493.211C261.341 491.365 259.864 489.677 258.2 488.184C257.367 487.452 256.471 486.795 255.523 486.219C254.561 485.641 253.541 485.164 252.48 484.796C251.416 484.424 250.316 484.162 249.198 484.015C248.637 483.941 248.068 483.889 247.499 483.863C246.929 483.837 246.351 483.828 245.76 483.837C245.716 483.84 245.673 483.825 245.64 483.796C245.607 483.767 245.587 483.727 245.584 483.683C245.581 483.639 245.596 483.596 245.625 483.563C245.653 483.53 245.694 483.51 245.738 483.507H245.769Z" fill="#859CE8"/>
<path d="M272.754 460.416C272.276 460.728 271.806 461.054 271.35 461.392C270.893 461.731 270.481 462.104 270.046 462.481C269.215 463.24 268.468 464.085 267.816 465.001C266.542 466.837 265.63 468.898 265.13 471.075C264.624 473.257 264.369 475.489 264.369 477.729C264.364 479.979 264.509 482.227 264.804 484.457C264.842 484.76 264.758 485.065 264.57 485.306C264.383 485.547 264.107 485.703 263.804 485.741C263.501 485.779 263.195 485.696 262.953 485.508C262.712 485.321 262.555 485.046 262.517 484.744C262.515 484.716 262.515 484.689 262.517 484.661C262.382 482.321 262.4 479.975 262.569 477.638C262.74 475.283 263.178 472.954 263.873 470.697C264.568 468.432 265.687 466.32 267.173 464.472C267.922 463.567 268.764 462.743 269.685 462.013C270.146 461.652 270.615 461.314 271.102 460.997C271.589 460.681 272.089 460.381 272.597 460.104C272.616 460.093 272.636 460.086 272.658 460.083C272.679 460.08 272.7 460.082 272.721 460.088C272.742 460.093 272.761 460.103 272.778 460.116C272.795 460.129 272.809 460.146 272.819 460.165C272.834 460.185 272.843 460.208 272.848 460.232C272.853 460.256 272.852 460.282 272.846 460.306C272.839 460.33 272.828 460.352 272.812 460.371C272.796 460.39 272.776 460.406 272.754 460.416Z" fill="#859CE8"/>
<path d="M307.358 494.014C311.271 486.01 302.016 475.655 306.663 468.06C309.545 463.34 316.926 461.735 317.847 456.286C318.121 454.66 317.717 453.011 317.517 451.376C317.125 448.173 317.528 444.924 318.691 441.914C319.854 438.904 321.742 436.226 324.187 434.116C326.632 432.006 329.56 430.528 332.712 429.814C335.865 429.1 339.145 429.17 342.263 430.02H342.285C348.258 432.388 353.204 437.945 354.574 444.209C355.233 447.366 355.118 450.635 354.239 453.738C353.359 456.841 351.741 459.685 349.523 462.03C348.379 463.218 347.062 464.294 346.306 465.756C343.759 470.671 348.697 476.376 348.162 481.876C347.293 490.739 333.678 493.472 331.983 502.213C331.548 504.516 332.035 506.889 332.04 509.24C332.04 519.491 320.738 528.076 310.836 525.326L310.332 525.156C300.769 521.426 296.883 507.774 303.059 499.588C304.503 497.723 306.328 496.126 307.358 494.014Z" fill="#97AAE8"/>
<path d="M341.659 430.523L300.39 549.601C300.232 550.061 300.263 550.565 300.477 551.003C300.691 551.44 301.07 551.775 301.531 551.933C301.993 552.091 302.498 552.06 302.936 551.846C303.374 551.633 303.709 551.254 303.868 550.794V550.759L342.555 430.813C342.573 430.705 342.552 430.593 342.495 430.498C342.439 430.404 342.35 430.332 342.246 430.297C342.141 430.261 342.027 430.264 341.925 430.305C341.822 430.345 341.737 430.421 341.685 430.518L341.659 430.523Z" fill="#859CE8"/>
<path d="M337.313 486.158C336.852 486.097 336.391 486.049 335.926 486.015C335.461 485.98 334.996 485.971 334.526 485.971C333.583 485.985 332.644 486.094 331.723 486.297C330.791 486.502 329.883 486.805 329.015 487.199C328.143 487.593 327.308 488.063 326.52 488.604C324.953 489.694 323.525 490.97 322.268 492.404C321.016 493.823 319.865 495.327 318.826 496.907C318.662 497.182 318.61 497.508 318.68 497.82C318.751 498.131 318.939 498.404 319.205 498.581C319.471 498.758 319.796 498.827 320.111 498.772C320.426 498.717 320.708 498.543 320.899 498.287L320.964 498.178C321.793 496.596 322.729 495.073 323.768 493.619C324.801 492.179 326.003 490.868 327.35 489.715C328.028 489.143 328.755 488.632 329.523 488.188C330.291 487.742 331.104 487.379 331.949 487.103C332.797 486.825 333.67 486.632 334.557 486.526C334.991 486.479 335.461 486.444 335.917 486.431C336.374 486.418 336.826 486.431 337.287 486.431C337.304 486.432 337.321 486.429 337.337 486.423C337.353 486.417 337.368 486.408 337.38 486.396C337.393 486.384 337.403 486.37 337.41 486.355C337.417 486.339 337.421 486.322 337.421 486.305C337.425 486.271 337.416 486.238 337.396 486.21C337.376 486.183 337.346 486.164 337.313 486.158Z" fill="#859CE8"/>
<path d="M349.857 448.599C349.396 448.543 348.936 448.499 348.471 448.473C348.006 448.447 347.54 448.439 347.075 448.447C346.134 448.472 345.198 448.589 344.28 448.799C343.358 449.015 342.461 449.327 341.603 449.727C340.743 450.129 339.919 450.605 339.142 451.15C337.602 452.252 336.2 453.533 334.965 454.967C333.738 456.393 332.613 457.902 331.596 459.483C331.522 459.591 331.47 459.713 331.444 459.841C331.417 459.969 331.417 460.102 331.442 460.23C331.468 460.358 331.519 460.48 331.593 460.589C331.666 460.697 331.761 460.79 331.871 460.861C331.981 460.932 332.104 460.981 332.233 461.004C332.363 461.027 332.495 461.024 332.623 460.995C332.751 460.966 332.872 460.912 332.979 460.835C333.085 460.759 333.175 460.662 333.244 460.55L333.283 460.485C334.134 458.904 335.096 457.385 336.16 455.939C337.217 454.497 338.443 453.186 339.812 452.035C340.5 451.47 341.236 450.965 342.011 450.525C342.79 450.088 343.611 449.732 344.463 449.462C345.324 449.194 346.209 449.013 347.106 448.92C347.54 448.877 348.01 448.846 348.462 448.838C348.914 448.829 349.375 448.838 349.831 448.838C349.848 448.839 349.866 448.837 349.882 448.831C349.898 448.826 349.913 448.817 349.926 448.806C349.939 448.795 349.949 448.781 349.957 448.766C349.965 448.75 349.969 448.733 349.97 448.716C349.967 448.687 349.954 448.66 349.933 448.639C349.913 448.618 349.886 448.604 349.857 448.599Z" fill="#859CE8"/>
<path d="M316.152 467.37C316.526 467.621 316.895 467.89 317.252 468.168C317.608 468.446 317.947 468.745 318.278 469.036C318.928 469.654 319.51 470.339 320.017 471.079C321.004 472.562 321.699 474.22 322.064 475.963C322.434 477.708 322.604 479.49 322.568 481.273C322.54 483.065 322.395 484.853 322.133 486.626C322.099 486.867 322.161 487.111 322.307 487.305C322.453 487.5 322.671 487.628 322.912 487.663C323.152 487.697 323.397 487.635 323.592 487.489C323.787 487.344 323.916 487.127 323.95 486.886C323.95 486.865 323.95 486.839 323.95 486.821C324.095 484.961 324.115 483.093 324.011 481.23C323.914 479.354 323.602 477.495 323.081 475.69C322.563 473.877 321.703 472.179 320.547 470.688C319.967 469.954 319.309 469.284 318.586 468.689C318.221 468.398 317.852 468.116 317.469 467.856C317.087 467.595 316.691 467.357 316.296 467.123C316.281 467.114 316.264 467.108 316.247 467.106C316.23 467.104 316.213 467.105 316.197 467.11C316.18 467.114 316.165 467.122 316.151 467.132C316.137 467.142 316.126 467.155 316.117 467.17C316.105 467.185 316.097 467.203 316.092 467.221C316.087 467.24 316.086 467.259 316.089 467.278C316.093 467.297 316.1 467.315 316.111 467.331C316.122 467.347 316.136 467.36 316.152 467.37Z" fill="#859CE8"/>
<path d="M312.248 476.939C310.796 465.878 325.923 457.202 323.402 446.304C321.846 439.537 313.696 434.705 314.769 427.842C315.091 425.799 316.23 423.994 317.121 422.129C318.864 418.47 319.678 414.44 319.492 410.394C319.305 406.347 318.124 402.409 316.052 398.925C313.98 395.442 311.081 392.521 307.61 390.42C304.14 388.319 300.205 387.103 296.152 386.878H296.091C288.032 387.312 279.93 391.98 275.804 398.899C273.762 402.397 272.596 406.336 272.407 410.381C272.218 414.425 273.011 418.456 274.718 422.129C275.587 423.994 276.748 425.799 277.069 427.842C278.143 434.705 269.988 439.555 268.432 446.304C265.942 457.202 281.077 465.878 279.617 476.939C279.23 479.863 277.691 482.492 276.752 485.286C272.657 497.493 282.716 512.212 295.596 512.854H296.265C309.149 512.212 319.207 497.493 315.108 485.286C314.169 482.492 312.635 479.863 312.248 476.939Z" fill="#AEBCE8"/>
<path d="M296.683 387.72L298.421 545.914C298.438 546.223 298.391 546.533 298.284 546.824C298.178 547.116 298.013 547.382 297.8 547.608C297.588 547.834 297.331 548.015 297.047 548.14C296.762 548.264 296.455 548.33 296.145 548.334C295.834 548.337 295.526 548.277 295.239 548.159C294.952 548.04 294.692 547.864 294.474 547.643C294.257 547.421 294.087 547.158 293.974 546.869C293.861 546.58 293.808 546.271 293.818 545.961V545.914L295.557 387.72C295.569 387.575 295.636 387.44 295.743 387.341C295.851 387.243 295.991 387.189 296.137 387.189C296.283 387.189 296.423 387.243 296.531 387.341C296.638 387.44 296.705 387.575 296.717 387.72H296.683Z" fill="#97AAE8"/>
<path d="M279.722 455.709C280.295 455.818 280.86 455.943 281.43 456.087C281.999 456.23 282.556 456.403 283.112 456.594C285.371 457.376 287.444 458.616 289.198 460.238C290.075 461.055 290.881 461.947 291.606 462.902C293.033 464.822 294.222 466.908 295.148 469.114C296.073 471.301 296.843 473.551 297.452 475.846C297.52 476.054 297.543 476.273 297.52 476.49C297.497 476.706 297.429 476.916 297.321 477.105C297.212 477.294 297.065 477.459 296.889 477.587C296.712 477.716 296.511 477.807 296.298 477.853C296.084 477.9 295.863 477.901 295.649 477.858C295.435 477.814 295.233 477.726 295.055 477.599C294.877 477.473 294.728 477.311 294.617 477.123C294.506 476.935 294.435 476.726 294.409 476.51C294.055 474.296 293.546 472.11 292.884 469.968C292.232 467.843 291.326 465.803 290.184 463.895C289.607 462.948 288.948 462.052 288.215 461.218C287.477 460.384 286.654 459.628 285.759 458.963C284.855 458.287 283.883 457.705 282.86 457.228C282.347 456.993 281.821 456.794 281.282 456.577C280.743 456.36 280.2 456.199 279.652 456.039C279.611 456.028 279.576 456.001 279.554 455.964C279.532 455.928 279.525 455.885 279.535 455.843C279.544 455.802 279.57 455.766 279.605 455.742C279.641 455.719 279.684 455.71 279.726 455.718L279.722 455.709Z" fill="#97AAE8"/>
<path d="M279.721 406.013C280.291 406.13 280.86 406.26 281.421 406.408C281.982 406.555 282.543 406.738 283.099 406.933C284.209 407.334 285.275 407.847 286.281 408.464C287.295 409.088 288.242 409.815 289.106 410.633C289.969 411.453 290.759 412.345 291.467 413.301C292.872 415.223 294.039 417.307 294.944 419.509C295.837 421.691 296.577 423.934 297.157 426.22C297.207 426.379 297.224 426.547 297.207 426.713C297.19 426.879 297.139 427.039 297.058 427.185C296.977 427.331 296.867 427.459 296.735 427.562C296.603 427.664 296.452 427.738 296.29 427.78C296.128 427.822 295.959 427.831 295.794 427.806C295.629 427.781 295.47 427.723 295.328 427.635C295.186 427.547 295.063 427.431 294.967 427.295C294.871 427.158 294.804 427.003 294.77 426.84C294.77 426.81 294.77 426.779 294.748 426.749C294.363 424.529 293.824 422.339 293.136 420.194C292.449 418.065 291.509 416.026 290.336 414.121C289.742 413.175 289.068 412.283 288.319 411.453C287.569 410.621 286.733 409.871 285.824 409.215C284.908 408.551 283.926 407.983 282.895 407.518C282.373 407.288 281.847 407.085 281.308 406.885C280.769 406.686 280.221 406.525 279.669 406.365C279.648 406.359 279.628 406.35 279.611 406.337C279.594 406.325 279.579 406.308 279.568 406.29C279.557 406.271 279.55 406.25 279.547 406.229C279.544 406.208 279.546 406.186 279.552 406.165C279.556 406.123 279.576 406.084 279.607 406.056C279.639 406.028 279.679 406.013 279.721 406.013Z" fill="#97AAE8"/>
<path d="M312.387 441.719C311.84 441.871 311.292 442.045 310.757 442.235C310.223 442.426 309.701 442.669 309.184 442.882C308.164 443.356 307.198 443.938 306.302 444.617C304.533 445.99 303.045 447.687 301.916 449.619C300.781 451.552 299.87 453.606 299.199 455.744C298.523 457.89 297.987 460.079 297.595 462.294C297.575 462.449 297.523 462.597 297.444 462.731C297.364 462.865 297.258 462.981 297.132 463.072C297.006 463.164 296.863 463.229 296.711 463.264C296.559 463.299 296.402 463.303 296.249 463.275C296.095 463.248 295.949 463.189 295.819 463.104C295.689 463.018 295.578 462.907 295.492 462.777C295.406 462.647 295.347 462.501 295.32 462.348C295.292 462.195 295.296 462.038 295.33 461.887C295.328 461.859 295.328 461.832 295.33 461.804C295.903 459.532 296.622 457.299 297.482 455.119C298.349 452.932 299.462 450.849 300.799 448.912C302.137 446.955 303.838 445.272 305.811 443.953C306.795 443.31 307.846 442.773 308.945 442.353C309.488 442.149 310.044 441.962 310.601 441.806C311.157 441.65 311.727 441.515 312.292 441.398C312.313 441.394 312.335 441.394 312.357 441.398C312.378 441.402 312.399 441.41 312.417 441.422C312.435 441.435 312.451 441.45 312.463 441.468C312.475 441.486 312.483 441.507 312.487 441.528C312.496 441.567 312.49 441.607 312.472 441.642C312.454 441.676 312.424 441.704 312.387 441.719Z" fill="#97AAE8"/>
<path d="M311.093 539.19H273.414C272.71 539.202 272.015 539.363 271.377 539.661C270.738 539.96 270.17 540.389 269.709 540.921C269.247 541.453 268.903 542.076 268.699 542.749C268.495 543.422 268.436 544.131 268.524 544.829L273.606 588.27C273.729 589.482 274.296 590.607 275.197 591.429C276.098 592.252 277.27 592.714 278.491 592.729H306.016C307.237 592.714 308.409 592.251 309.311 591.428C310.213 590.606 310.78 589.482 310.906 588.27L315.983 544.829C316.072 544.131 316.013 543.422 315.809 542.748C315.605 542.075 315.262 541.451 314.8 540.919C314.339 540.387 313.77 539.958 313.131 539.66C312.492 539.362 311.798 539.202 311.093 539.19Z" fill="#494C7F"/>
<path d="M262.982 557.535L274.284 593.541C274.588 594.504 275.092 595.081 275.627 595.081C276.627 595.081 277.366 593.159 277.231 591.033L274.766 557.531L262.982 557.535Z" fill="#4364CC"/>
<path d="M158.606 557.535L147.304 593.541C147 594.504 146.5 595.081 145.961 595.081C144.961 595.081 144.2 593.159 144.357 591.033L146.822 557.531L158.606 557.535Z" fill="#4364CC"/>
<path d="M104.779 557.535L93.4777 593.541C93.1777 594.504 92.6735 595.081 92.1345 595.081C91.1347 595.081 90.3958 593.159 90.5305 591.033L92.9952 557.531L104.779 557.535Z" fill="#4364CC"/>
<path d="M169.634 472.059H255.475C263.016 472.059 270.248 475.049 275.58 480.37C280.912 485.691 283.907 492.909 283.907 500.434V522.363C283.908 527.156 282.962 531.903 281.125 536.331C279.287 540.76 276.593 544.784 273.196 548.173C269.8 551.563 265.768 554.251 261.33 556.085C256.893 557.92 252.136 558.863 247.333 558.863H169.634V472.059Z" fill="#768FDB"/>
<path d="M144.313 472.059H230.163C237.704 472.059 244.936 475.049 250.268 480.37C255.6 485.691 258.596 492.909 258.596 500.434V522.363C258.596 532.042 254.743 541.325 247.885 548.169C241.027 555.013 231.725 558.858 222.026 558.858H144.313V472.059Z" fill="#4364CC"/>
<path d="M122.214 423.213H180.066C183.534 423.213 186.968 423.895 190.172 425.22C193.376 426.544 196.288 428.486 198.74 430.934C201.192 433.381 203.137 436.287 204.464 439.485C205.791 442.683 206.473 446.11 206.473 449.571V494.014H122.214V423.213Z" fill="#768FDB"/>
<path d="M113.142 492.526H233.936C240.536 492.526 246.866 495.142 251.533 499.8C256.2 504.457 258.822 510.774 258.822 517.361H113.142V492.526Z" fill="#95ADF5"/>
<path d="M258.822 514.476H113.142V558.923H258.822V514.476Z" fill="#768FDB"/>
<path d="M120.198 423.213H122.215V494.009H92.9082V450.452C92.9082 443.228 95.7832 436.301 100.901 431.193C106.018 426.085 112.96 423.214 120.198 423.213Z" fill="#4364CC"/>
<path d="M92.9082 472.059H137.794C141.528 472.059 145.226 472.793 148.676 474.219C152.126 475.646 155.261 477.736 157.901 480.371C160.542 483.007 162.637 486.135 164.066 489.578C165.495 493.021 166.23 496.712 166.23 500.438V522.367C166.23 532.046 162.378 541.329 155.519 548.173C148.661 555.018 139.36 558.863 129.661 558.863H92.9082V472.059Z" fill="#4364CC"/>
<path d="M267.994 365.153H234.089C233.078 365.153 232.108 365.554 231.393 366.268C230.678 366.981 230.277 367.949 230.277 368.958V387.937C230.277 388.946 230.678 389.913 231.393 390.627C232.108 391.34 233.078 391.741 234.089 391.741H235.193L239.105 399.116C239.222 399.334 239.394 399.517 239.605 399.648C239.815 399.778 240.057 399.85 240.304 399.857C240.552 399.864 240.797 399.806 241.015 399.688C241.233 399.57 241.415 399.396 241.544 399.185L246.117 391.741H267.994C269.005 391.741 269.975 391.34 270.69 390.627C271.405 389.913 271.806 388.946 271.806 387.937V368.958C271.806 367.949 271.405 366.981 270.69 366.268C269.975 365.554 269.005 365.153 267.994 365.153Z" fill="#CFDBFF"/>
<path d="M250.337 360.898C249.745 360.898 249.178 360.663 248.76 360.246C248.342 359.829 248.107 359.263 248.107 358.672V351.918C248.107 351.328 248.342 350.762 248.76 350.345C249.178 349.927 249.745 349.693 250.337 349.693C250.925 349.697 251.488 349.934 251.902 350.351C252.317 350.768 252.549 351.331 252.549 351.918V358.681C252.547 359.267 252.314 359.828 251.899 360.243C251.485 360.658 250.924 360.893 250.337 360.898Z" fill="#CFDBFF"/>
<path d="M258.413 360.256C258.206 360.05 258.041 359.805 257.928 359.535C257.816 359.265 257.758 358.976 257.758 358.683C257.758 358.391 257.816 358.102 257.928 357.832C258.041 357.562 258.206 357.317 258.413 357.111L263.195 352.339C263.613 351.922 264.18 351.688 264.771 351.688C265.362 351.688 265.928 351.922 266.346 352.339C266.554 352.545 266.719 352.79 266.832 353.06C266.944 353.33 267.002 353.619 267.002 353.912C267.002 354.204 266.944 354.493 266.832 354.763C266.719 355.033 266.554 355.278 266.346 355.484L261.565 360.256C261.147 360.673 260.58 360.907 259.989 360.907C259.398 360.907 258.832 360.673 258.413 360.256Z" fill="#CFDBFF"/>
<path d="M242.256 360.256C242.464 360.05 242.629 359.805 242.742 359.535C242.854 359.265 242.912 358.976 242.912 358.683C242.912 358.391 242.854 358.102 242.742 357.832C242.629 357.562 242.464 357.317 242.256 357.111L237.475 352.339C237.057 351.922 236.49 351.688 235.899 351.688C235.308 351.688 234.742 351.922 234.323 352.339C233.906 352.756 233.671 353.322 233.671 353.912C233.671 354.501 233.906 355.067 234.323 355.484L239.105 360.256C239.523 360.673 240.09 360.907 240.681 360.907C241.272 360.907 241.838 360.673 242.256 360.256Z" fill="#CFDBFF"/>
<path d="M265.938 363.548H232.032C231.532 363.548 231.036 363.646 230.573 363.837C230.11 364.028 229.69 364.308 229.335 364.661C228.981 365.015 228.701 365.435 228.509 365.896C228.318 366.358 228.22 366.853 228.22 367.353V386.332C228.22 387.341 228.622 388.308 229.337 389.022C230.052 389.735 231.021 390.136 232.032 390.136H233.136L237.049 397.511C237.165 397.729 237.337 397.913 237.548 398.043C237.759 398.173 238 398.245 238.248 398.253C238.495 398.26 238.74 398.201 238.958 398.083C239.176 397.965 239.358 397.791 239.487 397.58L244.03 390.128H265.938C266.949 390.128 267.918 389.727 268.633 389.013C269.348 388.3 269.75 387.332 269.75 386.323V367.353C269.75 366.853 269.652 366.358 269.461 365.896C269.269 365.435 268.989 365.015 268.634 364.661C268.28 364.308 267.86 364.028 267.397 363.837C266.934 363.646 266.438 363.548 265.938 363.548Z" fill="white"/>
<path d="M263.042 369.487V384.31C263.043 384.444 263.017 384.577 262.966 384.702C262.915 384.826 262.84 384.939 262.745 385.034C262.65 385.129 262.537 385.204 262.413 385.256C262.288 385.307 262.155 385.334 262.021 385.334H236.201C235.929 385.334 235.669 385.227 235.477 385.036C235.285 384.844 235.176 384.585 235.175 384.314V369.487C235.174 369.353 235.2 369.22 235.251 369.096C235.302 368.971 235.378 368.859 235.472 368.763C235.567 368.668 235.68 368.593 235.804 368.541C235.929 368.49 236.062 368.463 236.196 368.463H262.016C262.289 368.463 262.549 368.571 262.742 368.763C262.934 368.955 263.042 369.216 263.042 369.487Z" fill="#E46202"/>
<path d="M263.043 369.487V370.303L251.306 378.744C250.75 379.161 250.075 379.389 249.38 379.395C248.685 379.401 248.006 379.185 247.442 378.779L235.162 369.973V369.505C235.162 369.234 235.27 368.974 235.461 368.782C235.652 368.59 235.912 368.482 236.184 368.481H262.004C262.275 368.477 262.537 368.581 262.731 368.77C262.926 368.958 263.038 369.216 263.043 369.487Z" fill="#FF6C00"/>
<path d="M248.82 359.497C248.23 359.497 247.663 359.263 247.246 358.846C246.829 358.43 246.594 357.865 246.594 357.276V350.513C246.594 350.221 246.651 349.931 246.762 349.661C246.874 349.391 247.038 349.146 247.245 348.939C247.451 348.733 247.697 348.569 247.967 348.457C248.237 348.345 248.527 348.287 248.82 348.287C249.411 348.287 249.978 348.522 250.397 348.939C250.815 349.356 251.05 349.923 251.05 350.513V357.276C251.049 357.865 250.813 358.43 250.395 358.846C249.977 359.263 249.41 359.497 248.82 359.497Z" fill="white"/>
<path d="M256.896 358.846C256.478 358.429 256.244 357.863 256.244 357.274C256.244 356.684 256.478 356.118 256.896 355.701L261.677 350.929C261.884 350.722 262.129 350.557 262.4 350.445C262.67 350.333 262.96 350.275 263.253 350.275C263.546 350.275 263.836 350.333 264.106 350.445C264.377 350.557 264.622 350.722 264.829 350.929C265.246 351.346 265.481 351.912 265.481 352.502C265.481 353.091 265.246 353.657 264.829 354.074L260.047 358.846C259.841 359.053 259.595 359.218 259.325 359.33C259.054 359.443 258.764 359.5 258.471 359.5C258.179 359.5 257.889 359.443 257.618 359.33C257.348 359.218 257.102 359.053 256.896 358.846Z" fill="white"/>
<path d="M240.743 358.846C241.16 358.429 241.395 357.863 241.395 357.274C241.395 356.684 241.16 356.118 240.743 355.701L235.961 350.929C235.755 350.722 235.509 350.557 235.239 350.445C234.969 350.333 234.679 350.275 234.386 350.275C234.093 350.275 233.803 350.333 233.532 350.445C233.262 350.557 233.016 350.722 232.81 350.929C232.602 351.135 232.437 351.38 232.325 351.65C232.212 351.92 232.154 352.209 232.154 352.502C232.154 352.794 232.212 353.083 232.325 353.353C232.437 353.623 232.602 353.868 232.81 354.074L237.591 358.846C237.798 359.053 238.043 359.218 238.314 359.33C238.584 359.443 238.874 359.5 239.167 359.5C239.46 359.5 239.75 359.443 240.021 359.33C240.291 359.218 240.536 359.053 240.743 358.846Z" fill="white"/>
<path d="M141.896 515.296H136.837C136.638 515.307 136.439 515.277 136.252 515.209C136.065 515.14 135.894 515.034 135.75 514.898C135.605 514.761 135.49 514.597 135.411 514.414C135.333 514.231 135.292 514.035 135.292 513.836C135.292 513.638 135.333 513.441 135.411 513.258C135.49 513.076 135.605 512.911 135.75 512.775C135.894 512.638 136.065 512.532 136.252 512.464C136.439 512.395 136.638 512.366 136.837 512.376H140.436V502.894H136.837C136.449 502.894 136.078 502.74 135.804 502.467C135.53 502.193 135.376 501.823 135.376 501.436C135.376 501.05 135.53 500.679 135.804 500.405C136.078 500.132 136.449 499.979 136.837 499.979H141.896C142.284 499.979 142.655 500.132 142.929 500.405C143.203 500.679 143.357 501.05 143.357 501.436V513.838C143.356 514.225 143.201 514.595 142.928 514.868C142.654 515.141 142.283 515.295 141.896 515.296Z" fill="#FF6C00"/>
<path d="M121.958 494.235H132.716C133.257 494.235 133.792 494.341 134.291 494.548C134.791 494.754 135.245 495.057 135.627 495.438C136.009 495.82 136.312 496.273 136.519 496.771C136.726 497.27 136.833 497.804 136.833 498.343V516.923C136.833 517.462 136.726 517.997 136.519 518.495C136.312 518.993 136.009 519.446 135.627 519.828C135.245 520.209 134.791 520.512 134.291 520.718C133.792 520.925 133.257 521.031 132.716 521.031H121.958C121.417 521.031 120.881 520.925 120.381 520.718C119.881 520.511 119.427 520.208 119.044 519.827C118.661 519.445 118.358 518.991 118.151 518.492C117.944 517.993 117.837 517.459 117.837 516.919V498.339C117.837 497.799 117.945 497.265 118.152 496.767C118.359 496.269 118.663 495.816 119.046 495.435C119.428 495.054 119.882 494.752 120.382 494.546C120.882 494.34 121.417 494.235 121.958 494.235Z" fill="#FF6C00"/>
<path d="M125.483 491.684C125.483 491.684 119.341 489.199 121.241 484.7C123.14 480.202 130.051 480.796 126.122 474.289C130.86 476.892 131.573 482.7 127.891 484.123C124.209 485.546 124.022 489.134 125.483 491.684Z" fill="white"/>
<path d="M131.273 491.684C131.273 491.684 126.926 489.914 128.256 486.717C129.587 483.52 134.52 483.941 131.734 479.304C135.103 481.16 135.611 485.286 132.995 486.297C130.378 487.307 130.213 489.867 131.273 491.684Z" fill="white"/>
<path d="M144.313 529.646H45.8577C45.2766 529.646 44.7012 529.532 44.1643 529.31C43.6274 529.088 43.1396 528.763 42.7287 528.353C42.3178 527.943 41.9918 527.456 41.7695 526.92C41.5471 526.384 41.4326 525.81 41.4326 525.23C41.4326 524.059 41.8988 522.936 42.7287 522.108C43.5585 521.279 44.6841 520.814 45.8577 520.814H144.313C145.487 520.814 146.612 521.279 147.442 522.108C148.272 522.936 148.738 524.059 148.738 525.23C148.738 525.81 148.624 526.384 148.401 526.92C148.179 527.456 147.853 527.943 147.442 528.353C147.031 528.763 146.544 529.088 146.007 529.31C145.47 529.532 144.894 529.646 144.313 529.646Z" fill="#95ADF5"/>
<path d="M57.5375 528.089H51.8345V593.545H57.5375V528.089Z" fill="#95ADF5"/>
<path d="M138.337 528.089H132.634V593.545H138.337V528.089Z" fill="#95ADF5"/>
<path d="M107.904 514.116V518.697H109.156C109.301 518.697 109.443 518.724 109.577 518.779C109.71 518.834 109.831 518.914 109.934 519.016C110.036 519.117 110.117 519.238 110.172 519.371C110.228 519.504 110.256 519.646 110.256 519.79V519.977C110.256 520.121 110.228 520.263 110.172 520.396C110.117 520.529 110.036 520.65 109.934 520.751C109.831 520.853 109.71 520.933 109.577 520.988C109.443 521.043 109.301 521.071 109.156 521.07H55.8947C55.5557 521.07 55.2307 520.936 54.991 520.696C54.7513 520.457 54.6167 520.133 54.6167 519.795V513.196C54.6167 512.858 54.7513 512.534 54.991 512.295C55.2307 512.055 55.5557 511.921 55.8947 511.921H109.156C109.448 511.921 109.728 512.037 109.934 512.242C110.14 512.448 110.256 512.727 110.256 513.019C110.256 513.31 110.14 513.589 109.934 513.795C109.728 514 109.448 514.116 109.156 514.116H107.904Z" fill="#FF6C00"/>
<path d="M108.066 518.693H62.8586C62.5574 518.693 62.2591 518.635 61.9806 518.52C61.7022 518.405 61.4491 518.237 61.236 518.025C61.0228 517.812 60.8537 517.56 60.7383 517.282C60.6229 517.005 60.5635 516.707 60.5635 516.407C60.5629 516.106 60.6219 515.808 60.737 515.529C60.8522 515.251 61.0212 514.999 61.2344 514.786C61.4477 514.573 61.7009 514.404 61.9796 514.289C62.2583 514.174 62.557 514.116 62.8586 514.116H108.066V518.693Z" fill="white"/>
<path d="M49.9049 504.226V509.292H48.6574C48.3502 509.308 48.0618 509.445 47.8556 509.672C47.6494 509.9 47.5422 510.2 47.5576 510.507V510.711C47.5434 511.017 47.6511 511.316 47.8572 511.542C48.0633 511.769 48.351 511.905 48.6574 511.921H101.919C102.275 511.902 102.61 511.743 102.849 511.479C103.088 511.215 103.214 510.867 103.197 510.511V503.21C103.214 502.855 103.088 502.507 102.849 502.243C102.61 501.979 102.275 501.82 101.919 501.801H48.6574C48.351 501.816 48.0633 501.952 47.8572 502.179C47.6511 502.406 47.5434 502.705 47.5576 503.011C47.5422 503.317 47.6494 503.618 47.8556 503.845C48.0618 504.073 48.3502 504.21 48.6574 504.226H49.9049Z" fill="#92B5F8"/>
<path d="M49.7485 509.292H94.7251C95.3984 509.292 96.0441 509.025 96.5201 508.55C96.9962 508.075 97.2637 507.431 97.2637 506.759C97.2642 506.426 97.199 506.096 97.0716 505.789C96.9442 505.481 96.7573 505.202 96.5214 504.966C96.2856 504.731 96.0055 504.544 95.6973 504.417C95.389 504.29 95.0586 504.225 94.7251 504.226H49.7485V509.292Z" fill="white"/>
<path d="M100.237 497.111H56.0163C55.4754 497.111 54.9398 497.005 54.44 496.798C53.9403 496.591 53.4863 496.288 53.104 495.906C52.7217 495.525 52.4186 495.071 52.212 494.572C52.0054 494.073 51.8993 493.539 51.8999 492.999C51.8999 491.909 52.3336 490.864 53.1056 490.094C53.8776 489.323 54.9246 488.891 56.0163 488.891H100.237C101.328 488.891 102.375 489.323 103.147 490.094C103.919 490.864 104.353 491.909 104.353 492.999C104.354 493.539 104.248 494.073 104.041 494.572C103.834 495.071 103.531 495.525 103.149 495.906C102.767 496.288 102.313 496.591 101.813 496.798C101.313 497.005 100.778 497.111 100.237 497.111Z" fill="#FF6C00"/>
<path d="M105.427 501.801H57.6768C57.0527 501.799 56.4546 501.551 56.0137 501.11C55.5728 500.67 55.3252 500.072 55.3252 499.449C55.3252 498.827 55.573 498.23 56.014 497.79C56.455 497.35 57.0531 497.102 57.6768 497.102H105.427C106.051 497.102 106.649 497.35 107.091 497.79C107.533 498.23 107.782 498.827 107.783 499.449C107.783 500.073 107.534 500.671 107.093 501.112C106.651 501.553 106.052 501.801 105.427 501.801Z" fill="#768FDB"/>
<path d="M669.278 1.17368L642.423 9.89308C642.881 11.2986 643.339 12.7041 643.797 14.1096C644.462 16.1442 651.043 15.8448 658.502 13.4112C665.961 10.9776 671.464 7.37703 670.804 5.33817C670.756 5.16465 669.278 1.17368 669.278 1.17368Z" fill="#C2D0FF"/>
<path d="M669.517 1.3472C670.182 3.38606 664.674 6.98661 657.22 9.42023C649.765 11.8539 643.175 12.1532 642.514 10.1187C641.854 8.08413 647.357 4.47924 654.811 2.04562C662.266 -0.388005 668.843 -0.687327 669.517 1.3472Z" fill="#D4DEFF"/>
</svg>
