<svg width="99" height="143" xmlns="http://www.w3.org/2000/svg">
 <g>
  <title>background</title>
  <rect x="-1" y="-1" width="101" height="145" id="canvas_background" fill="none"/>
 </g>

 <g>
  <title>Layer 1</title>
  <path d="m68.43257,71.89707c-3.2146,6.3004 -8.2292,11.5078 -14.4096,14.9638c-6.1804,3.456 -13.249,5.0053 -20.3117,4.4519c-7.0627,-0.5534 -13.8024,-3.1847 -19.3666,-7.5609c-5.56419,-4.3763 -9.70292,-10.301 -11.89283,-17.0248c-2.18992,-6.7238 -2.33262,-13.9447 -0.41002,-20.7495c1.92259,-6.8048 5.82412,-12.8877 11.21115,-17.47946c5.3869,-4.59176 12.0174,-7.48608 19.0528,-8.31693c7.0354,-0.83085 14.1597,0.43909 20.4718,3.64924c4.1905,2.13022 7.9195,5.06332 10.9741,8.63175c3.0546,3.5685 5.375,7.7024 6.8287,12.1659c1.4537,4.4634 2.0123,9.1688 1.6438,13.8477c-0.3685,4.6788 -1.657,9.2394 -3.7916,13.4213z" fill="#D4DEFF" id="svg_1"/>
  <path d="m21.98794,78.41654l3.09943,-6.0666c-3.45922,-1.8332 -6.5208,-4.75 -7.85904,-7.3203l3.49712,-3.2884c1.72863,2.9827 4.27886,5.4075 7.34772,6.9864c4.2735,2.1734 8.4208,1.178 10.1693,-2.2427c1.6855,-3.3074 0.3788,-6.5391 -3.1562,-10.6087c-4.9111,-5.5186 -7.2908,-10.2119 -4.627,-15.4343c2.525,-4.98938 8.0294,-6.96749 14.0262,-5.03978l3.0932,-6.06659l3.7369,1.88991l-2.9732,5.82722c2.7323,1.41857 5.0554,3.51134 6.7481,6.07924l-3.5034,3.2254c-1.5982,-2.5257 -3.8603,-4.5652 -6.5397,-5.8965c-4.6334,-2.35609 -7.7896,-0.4851 -9.0142,1.9214c-1.5971,3.1499 -0.1641,5.8146 3.9642,10.6402c4.9111,5.6697 6.445,10.3882 3.718,15.7493c-2.4239,4.7499 -7.9979,7.5092 -14.7206,5.3799l-3.18777,6.243l-3.81906,-1.9781z" fill="#E3EAFF" id="svg_2"/>
  <path id="svg_4" fill="#C2D0FF" d="m98.21554,117.4641l-20.4164,-10.95655c-0.57565,1.06823 -1.15128,2.13647 -1.72692,3.20471c-0.83493,1.54894 3.08633,5.26996 8.75596,8.31444c5.66966,3.0445 10.93966,4.2516 11.77456,2.7026c0.0785,-0.1424 1.6128,-3.2652 1.6128,-3.2652z"/>
  <path id="svg_3" fill="#D4DEFF" d="m98.0974,117.6954c-0.8349,1.549 -6.1049,0.3383 -11.77456,-2.70259c-5.66963,-3.04092 -9.59093,-6.7655 -8.75601,-8.31444c0.83492,-1.54895 6.1085,-0.35609 11.77457,2.70619c5.6661,3.06228 9.5909,6.76194 8.756,8.31084z"/>
  <g stroke="null" transform="rotate(-44 78.09576416015626,10.555636405944824) " id="svg_7">
   <path stroke="null" id="svg_5" fill="#C2D0FF" d="m90.84755,14.86615l-23.39619,-12.55567c-0.65967,1.22414 -1.31931,2.44829 -1.97897,3.67244c-0.95679,1.77501 3.53678,6.03911 10.0339,9.52794c6.49715,3.48885 12.53631,4.87212 13.49307,3.09705c0.08996,-0.16318 1.84819,-3.74176 1.84819,-3.74176z"/>
   <path stroke="null" id="svg_6" fill="#D4DEFF" d="m90.71216,15.13121c-0.95675,1.77508 -6.99592,0.38768 -13.49307,-3.09704c-6.49712,-3.48474 -10.99073,-7.75293 -10.03396,-9.52794c0.95678,-1.77502 7.00004,-0.40806 13.49308,3.10116c6.49307,3.50922 10.9907,7.74885 10.03395,9.52381z"/>
  </g>
 </g>
</svg>