<svg width="26" height="26" viewBox="0 0 26 26" fill="none" xmlns="http://www.w3.org/2000/svg">
<g clip-path="url(#clip0)">
<path d="M3.71429 0C1.66623 0 0 1.66623 0 3.71429C0 5.76235 1.66623 7.42859 3.71429 7.42859C5.76235 7.42859 7.42859 5.76235 7.42859 3.71429C7.42859 1.66623 5.76235 0 3.71429 0Z" fill="#FF6C00"/>
<path d="M22.2856 0C20.2375 0 18.5713 1.66623 18.5713 3.71429C18.5713 5.76235 20.2375 7.42859 22.2856 7.42859C24.3336 7.42859 25.9999 5.76235 25.9999 3.71429C25.9999 1.66623 24.3336 0 22.2856 0Z" fill="#18191F"/>
<path d="M12.9999 0C10.9519 0 9.28564 1.66623 9.28564 3.71429C9.28564 5.76235 10.9519 7.42859 12.9999 7.42859C15.048 7.42859 16.7142 5.76235 16.7142 3.71429C16.7142 1.66623 15.048 0 12.9999 0Z" fill="#7C9AF2"/>
<path d="M22.2856 18.5714C20.2375 18.5714 18.5713 20.2376 18.5713 22.2857C18.5713 24.3338 20.2375 26 22.2856 26C24.3336 26 25.9999 24.3338 25.9999 22.2857C25.9999 20.2376 24.3336 18.5714 22.2856 18.5714Z" fill="#7C9AF2"/>
<path d="M22.2856 9.28571C20.2375 9.28571 18.5713 10.9519 18.5713 13C18.5713 15.0481 20.2375 16.7143 22.2856 16.7143C24.3336 16.7143 25.9999 15.0481 25.9999 13C25.9999 10.9519 24.3336 9.28571 22.2856 9.28571Z" fill="#18191F"/>
<path d="M12.9999 9.28571C10.9519 9.28571 9.28564 10.9519 9.28564 13C9.28564 15.0481 10.9519 16.7143 12.9999 16.7143C15.048 16.7143 16.7142 15.0481 16.7142 13C16.7142 10.9519 15.048 9.28571 12.9999 9.28571Z" fill="#FF6C00"/>
</g>
<defs>
<clipPath id="clip0">
<rect width="26" height="26" fill="white"/>
</clipPath>
</defs>
</svg>
