<svg width="26" height="26" viewBox="0 0 26 26" fill="none" xmlns="http://www.w3.org/2000/svg">
<g clip-path="url(#clip0)">
<path d="M3.71429 0C1.66623 0 0 1.66623 0 3.71429C0 5.76235 1.66623 7.42859 3.71429 7.42859C5.76235 7.42859 7.42859 5.76235 7.42859 3.71429C7.42859 1.66623 5.76235 0 3.71429 0Z" fill="#FF6C00"/>
<path d="M22.2858 0C20.2378 0 18.5715 1.66623 18.5715 3.71429C18.5715 5.76235 20.2378 7.42859 22.2858 7.42859C24.3339 7.42859 26.0001 5.76235 26.0001 3.71429C26.0001 1.66623 24.3339 0 22.2858 0Z" fill="#18191F"/>
<path d="M12.9999 0C10.9519 0 9.28564 1.66623 9.28564 3.71429C9.28564 5.76235 10.9519 7.42859 12.9999 7.42859C15.048 7.42859 16.7142 5.76235 16.7142 3.71429C16.7142 1.66623 15.048 0 12.9999 0Z" fill="#5BD1DA"/>
<path d="M22.2858 18.5714C20.2378 18.5714 18.5715 20.2376 18.5715 22.2857C18.5715 24.3338 20.2378 26 22.2858 26C24.3339 26 26.0001 24.3338 26.0001 22.2857C26.0001 20.2376 24.3339 18.5714 22.2858 18.5714Z" fill="#5BD1DA"/>
<path d="M22.2858 9.28577C20.2378 9.28577 18.5715 10.952 18.5715 13.0001C18.5715 15.0481 20.2378 16.7144 22.2858 16.7144C24.3339 16.7144 26.0001 15.0481 26.0001 13.0001C26.0001 10.952 24.3339 9.28577 22.2858 9.28577Z" fill="#18191F"/>
<path d="M12.9999 9.28577C10.9519 9.28577 9.28564 10.952 9.28564 13.0001C9.28564 15.0481 10.9519 16.7144 12.9999 16.7144C15.048 16.7144 16.7142 15.0481 16.7142 13.0001C16.7142 10.952 15.048 9.28577 12.9999 9.28577Z" fill="#FF6C00"/>
</g>
<defs>
<clipPath id="clip0">
<rect width="26" height="26" fill="white"/>
</clipPath>
</defs>
</svg>
